%TF.GenerationSoftware,KiCad,Pcbnew,(6.0.10)*%
%TF.CreationDate,2023-02-17T13:08:41-08:00*%
%TF.ProjectId,Lab 6b,4c616220-3662-42e6-9b69-6361645f7063,rev?*%
%TF.SameCoordinates,Original*%
%TF.FileFunction,Copper,L1,Top*%
%TF.FilePolarity,Positive*%
%FSLAX46Y46*%
G04 Gerber Fmt 4.6, Leading zero omitted, Abs format (unit mm)*
G04 Created by KiCad (PCBNEW (6.0.10)) date 2023-02-17 13:08:41*
%MOMM*%
%LPD*%
G01*
G04 APERTURE LIST*
G04 Aperture macros list*
%AMRoundRect*
0 Rectangle with rounded corners*
0 $1 Rounding radius*
0 $2 $3 $4 $5 $6 $7 $8 $9 X,Y pos of 4 corners*
0 Add a 4 corners polygon primitive as box body*
4,1,4,$2,$3,$4,$5,$6,$7,$8,$9,$2,$3,0*
0 Add four circle primitives for the rounded corners*
1,1,$1+$1,$2,$3*
1,1,$1+$1,$4,$5*
1,1,$1+$1,$6,$7*
1,1,$1+$1,$8,$9*
0 Add four rect primitives between the rounded corners*
20,1,$1+$1,$2,$3,$4,$5,0*
20,1,$1+$1,$4,$5,$6,$7,0*
20,1,$1+$1,$6,$7,$8,$9,0*
20,1,$1+$1,$8,$9,$2,$3,0*%
G04 Aperture macros list end*
%TA.AperFunction,SMDPad,CuDef*%
%ADD10RoundRect,0.250000X0.450000X-0.350000X0.450000X0.350000X-0.450000X0.350000X-0.450000X-0.350000X0*%
%TD*%
%TA.AperFunction,SMDPad,CuDef*%
%ADD11RoundRect,0.250001X0.624999X-0.462499X0.624999X0.462499X-0.624999X0.462499X-0.624999X-0.462499X0*%
%TD*%
%TA.AperFunction,ComponentPad*%
%ADD12R,3.000000X3.000000*%
%TD*%
%TA.AperFunction,ComponentPad*%
%ADD13C,3.000000*%
%TD*%
%TA.AperFunction,SMDPad,CuDef*%
%ADD14RoundRect,0.250000X0.425000X-0.537500X0.425000X0.537500X-0.425000X0.537500X-0.425000X-0.537500X0*%
%TD*%
%TA.AperFunction,SMDPad,CuDef*%
%ADD15RoundRect,0.150000X0.825000X0.150000X-0.825000X0.150000X-0.825000X-0.150000X0.825000X-0.150000X0*%
%TD*%
%TA.AperFunction,SMDPad,CuDef*%
%ADD16R,2.290000X3.000000*%
%TD*%
%TA.AperFunction,SMDPad,CuDef*%
%ADD17RoundRect,0.250000X0.475000X-0.337500X0.475000X0.337500X-0.475000X0.337500X-0.475000X-0.337500X0*%
%TD*%
%TA.AperFunction,ViaPad*%
%ADD18C,0.800000*%
%TD*%
%TA.AperFunction,Conductor*%
%ADD19C,0.250000*%
%TD*%
G04 APERTURE END LIST*
D10*
%TO.P,R3,1*%
%TO.N,Net-(D1-Pad1)*%
X144780000Y-84820000D03*
%TO.P,R3,2*%
%TO.N,/pin_3*%
X144780000Y-82820000D03*
%TD*%
%TO.P,R4,1*%
%TO.N,/pin_3*%
X144780000Y-89900000D03*
%TO.P,R4,2*%
%TO.N,Net-(D2-Pad2)*%
X144780000Y-87900000D03*
%TD*%
%TO.P,R1,1*%
%TO.N,+9V*%
X111760000Y-82280000D03*
%TO.P,R1,2*%
%TO.N,/pin_7*%
X111760000Y-80280000D03*
%TD*%
D11*
%TO.P,D1,1,K*%
%TO.N,Net-(D1-Pad1)*%
X144780000Y-80227500D03*
%TO.P,D1,2,A*%
%TO.N,+9V*%
X144780000Y-77252500D03*
%TD*%
D12*
%TO.P,J1,1,Pin_1*%
%TO.N,+9V*%
X125512500Y-77281250D03*
D13*
%TO.P,J1,2,Pin_2*%
%TO.N,GND*%
X130592500Y-77281250D03*
%TD*%
D10*
%TO.P,R2,1*%
%TO.N,/pin_7*%
X111760000Y-90920000D03*
%TO.P,R2,2*%
%TO.N,/pin_2*%
X111760000Y-88920000D03*
%TD*%
D14*
%TO.P,C1,1*%
%TO.N,/pin_2*%
X119580000Y-105577500D03*
%TO.P,C1,2*%
%TO.N,GND*%
X119580000Y-102702500D03*
%TD*%
D15*
%TO.P,U1,1,GND*%
%TO.N,GND*%
X132015000Y-95885000D03*
%TO.P,U1,2,TR*%
%TO.N,/pin_2*%
X132015000Y-94615000D03*
%TO.P,U1,3,Q*%
%TO.N,/pin_3*%
X132015000Y-93345000D03*
%TO.P,U1,4,R*%
%TO.N,+9V*%
X132015000Y-92075000D03*
%TO.P,U1,5,CV*%
%TO.N,Net-(C2-Pad1)*%
X127065000Y-92075000D03*
%TO.P,U1,6,THR*%
%TO.N,/pin_2*%
X127065000Y-93345000D03*
%TO.P,U1,7,DIS*%
%TO.N,/pin_7*%
X127065000Y-94615000D03*
%TO.P,U1,8,VCC*%
%TO.N,+9V*%
X127065000Y-95885000D03*
D16*
%TO.P,U1,9*%
%TO.N,N/C*%
X129540000Y-93980000D03*
%TD*%
D17*
%TO.P,C2,1*%
%TO.N,Net-(C2-Pad1)*%
X127625000Y-105177500D03*
%TO.P,C2,2*%
%TO.N,GND*%
X127625000Y-103102500D03*
%TD*%
D11*
%TO.P,D2,1,K*%
%TO.N,GND*%
X144780000Y-95467500D03*
%TO.P,D2,2,A*%
%TO.N,Net-(D2-Pad2)*%
X144780000Y-92492500D03*
%TD*%
D18*
%TO.N,/pin_2*%
X114300000Y-88900000D03*
X129540000Y-86360000D03*
X134620000Y-93980000D03*
X137160000Y-106680000D03*
X109220000Y-93980000D03*
X111760000Y-86360000D03*
X124460000Y-99060000D03*
%TO.N,Net-(C2-Pad1)*%
X142240000Y-99060000D03*
X127000000Y-88900000D03*
X124460000Y-104140000D03*
X124460000Y-88900000D03*
%TO.N,Net-(D1-Pad1)*%
X149860000Y-78740000D03*
X139700000Y-86360000D03*
X139700000Y-86360000D03*
%TO.N,+9V*%
X121920000Y-96520000D03*
X129540000Y-99060000D03*
X137160000Y-86360000D03*
X134620000Y-88900000D03*
X116840000Y-93980000D03*
X137160000Y-93980000D03*
%TO.N,/pin_7*%
X111760000Y-78740000D03*
X116840000Y-96520000D03*
X124460000Y-93980000D03*
X121920000Y-93980000D03*
X116840000Y-96520000D03*
X121920000Y-93980000D03*
%TO.N,/pin_3*%
X139700000Y-93980000D03*
X149860000Y-81280000D03*
X137160000Y-91440000D03*
X149860000Y-93980000D03*
%TD*%
D19*
%TO.N,/pin_2*%
X109220000Y-95217500D02*
X109220000Y-93980000D01*
X132650000Y-93980000D02*
X134620000Y-93980000D01*
X121920000Y-91440000D02*
X121195000Y-92165000D01*
X126365000Y-93345000D02*
X124460000Y-91440000D01*
X114280000Y-88920000D02*
X114300000Y-88900000D01*
X127065000Y-93345000D02*
X126365000Y-93345000D01*
X124460000Y-91440000D02*
X121920000Y-91440000D01*
X111760000Y-88920000D02*
X114280000Y-88920000D01*
X125096396Y-86360000D02*
X129540000Y-86360000D01*
X127065000Y-93345000D02*
X127000000Y-93410000D01*
X111760000Y-88920000D02*
X111760000Y-86360000D01*
X119580000Y-105577500D02*
X109220000Y-95217500D01*
X121195000Y-98335000D02*
X121920000Y-99060000D01*
X132015000Y-94615000D02*
X132650000Y-93980000D01*
X126430000Y-93410000D02*
X122238198Y-89218198D01*
X121920000Y-99060000D02*
X124460000Y-99060000D01*
X127000000Y-93410000D02*
X126430000Y-93410000D01*
X119580000Y-105577500D02*
X120682500Y-106680000D01*
X122238198Y-89218198D02*
X125096396Y-86360000D01*
X121195000Y-92165000D02*
X121195000Y-98335000D01*
X120682500Y-106680000D02*
X137160000Y-106680000D01*
%TO.N,GND*%
X127225000Y-102702500D02*
X119580000Y-102702500D01*
X127625000Y-103102500D02*
X127225000Y-102702500D01*
X119580000Y-91240000D02*
X130592500Y-80227500D01*
X130592500Y-80227500D02*
X130592500Y-77281250D01*
X134620000Y-85307500D02*
X144780000Y-95467500D01*
X134620000Y-77281250D02*
X130592500Y-77281250D01*
X132015000Y-95885000D02*
X132015000Y-98712500D01*
X132015000Y-95885000D02*
X132432500Y-95467500D01*
X119580000Y-102702500D02*
X119580000Y-91240000D01*
X132432500Y-95467500D02*
X144780000Y-95467500D01*
X132015000Y-98712500D02*
X127625000Y-103102500D01*
X134620000Y-77281250D02*
X134620000Y-85307500D01*
%TO.N,Net-(C2-Pad1)*%
X127065000Y-92075000D02*
X124460000Y-89470000D01*
X136122500Y-105177500D02*
X142240000Y-99060000D01*
X127625000Y-106055000D02*
X127450000Y-106230000D01*
X127450000Y-106230000D02*
X126550000Y-106230000D01*
X127065000Y-92075000D02*
X127065000Y-88965000D01*
X124460000Y-89470000D02*
X124460000Y-88900000D01*
X127625000Y-105177500D02*
X127625000Y-106055000D01*
X127065000Y-88965000D02*
X127000000Y-88900000D01*
X126550000Y-106230000D02*
X124460000Y-104140000D01*
X127625000Y-105177500D02*
X136122500Y-105177500D01*
%TO.N,Net-(D1-Pad1)*%
X144780000Y-84820000D02*
X143240000Y-86360000D01*
X143240000Y-86360000D02*
X139700000Y-86360000D01*
X146267500Y-78740000D02*
X149860000Y-78740000D01*
X144780000Y-80227500D02*
X142240000Y-82767500D01*
X142240000Y-83820000D02*
X143240000Y-84820000D01*
X144780000Y-80227500D02*
X146267500Y-78740000D01*
X142240000Y-82767500D02*
X142240000Y-83820000D01*
X143240000Y-84820000D02*
X144780000Y-84820000D01*
%TO.N,+9V*%
X132015000Y-92075000D02*
X135255000Y-92075000D01*
X127065000Y-96585000D02*
X129540000Y-99060000D01*
X116758750Y-77281250D02*
X111760000Y-82280000D01*
X125512500Y-77281250D02*
X116758750Y-77281250D01*
X129133750Y-73660000D02*
X144780000Y-73660000D01*
X144780000Y-77252500D02*
X144780000Y-73660000D01*
X135255000Y-92075000D02*
X137160000Y-93980000D01*
X116840000Y-87360000D02*
X116840000Y-93980000D01*
X127065000Y-95885000D02*
X127065000Y-96585000D01*
X132015000Y-92075000D02*
X134620000Y-89470000D01*
X127065000Y-95885000D02*
X126430000Y-96520000D01*
X111760000Y-82280000D02*
X116840000Y-87360000D01*
X144780000Y-77252500D02*
X137160000Y-84872500D01*
X134620000Y-89470000D02*
X134620000Y-88900000D01*
X126430000Y-96520000D02*
X121920000Y-96520000D01*
X125512500Y-77281250D02*
X129133750Y-73660000D01*
X137160000Y-84872500D02*
X137160000Y-86360000D01*
%TO.N,Net-(D2-Pad2)*%
X142240000Y-91440000D02*
X143292500Y-92492500D01*
X143292500Y-92492500D02*
X144780000Y-92492500D01*
X143780000Y-88900000D02*
X142240000Y-88900000D01*
X144780000Y-87900000D02*
X143780000Y-88900000D01*
X142240000Y-88900000D02*
X142240000Y-91440000D01*
%TO.N,/pin_7*%
X111760000Y-80280000D02*
X107680000Y-80280000D01*
X111760000Y-91440000D02*
X116840000Y-96520000D01*
X126430000Y-93980000D02*
X124460000Y-93980000D01*
X126430000Y-93980000D02*
X124460000Y-93980000D01*
X124460000Y-93980000D02*
X121920000Y-93980000D01*
X106680000Y-81280000D02*
X106680000Y-86360000D01*
X106680000Y-86360000D02*
X111760000Y-91440000D01*
X111760000Y-90920000D02*
X111760000Y-91440000D01*
X127065000Y-94615000D02*
X126430000Y-93980000D01*
X107680000Y-80280000D02*
X106680000Y-81280000D01*
X111760000Y-80280000D02*
X111760000Y-78740000D01*
%TO.N,/pin_3*%
X147320000Y-85360000D02*
X147320000Y-88900000D01*
X136847500Y-94705000D02*
X137460305Y-94705000D01*
X132015000Y-93345000D02*
X132080000Y-93410000D01*
X144780000Y-82820000D02*
X147320000Y-85360000D01*
X132105000Y-93255000D02*
X135397500Y-93255000D01*
X144780000Y-82820000D02*
X146320000Y-81280000D01*
X147320000Y-88900000D02*
X146320000Y-89900000D01*
X144780000Y-89900000D02*
X145780000Y-89900000D01*
X146320000Y-89900000D02*
X144780000Y-89900000D01*
X138975000Y-94705000D02*
X139700000Y-93980000D01*
X146320000Y-81280000D02*
X149860000Y-81280000D01*
X137460305Y-94705000D02*
X139700000Y-92465305D01*
X136847500Y-94705000D02*
X138975000Y-94705000D01*
X145780000Y-89900000D02*
X149860000Y-93980000D01*
X135397500Y-93255000D02*
X136847500Y-94705000D01*
X139700000Y-91440000D02*
X137160000Y-91440000D01*
X139700000Y-92465305D02*
X139700000Y-91440000D01*
%TD*%
%TA.AperFunction,Conductor*%
%TO.N,+9V*%
G36*
X151833621Y-71648502D02*
G01*
X151880114Y-71702158D01*
X151891500Y-71754500D01*
X151891500Y-108585500D01*
X151871498Y-108653621D01*
X151817842Y-108700114D01*
X151765500Y-108711500D01*
X102234500Y-108711500D01*
X102166379Y-108691498D01*
X102119886Y-108637842D01*
X102108500Y-108585500D01*
X102108500Y-93980000D01*
X108306496Y-93980000D01*
X108326458Y-94169928D01*
X108385473Y-94351556D01*
X108480960Y-94516944D01*
X108554137Y-94598215D01*
X108584853Y-94662221D01*
X108586500Y-94682524D01*
X108586500Y-95138733D01*
X108585973Y-95149916D01*
X108584298Y-95157409D01*
X108584547Y-95165335D01*
X108584547Y-95165336D01*
X108586438Y-95225486D01*
X108586500Y-95229445D01*
X108586500Y-95257356D01*
X108586997Y-95261290D01*
X108586997Y-95261291D01*
X108587005Y-95261356D01*
X108587938Y-95273193D01*
X108589327Y-95317389D01*
X108594538Y-95335324D01*
X108594978Y-95336839D01*
X108598987Y-95356200D01*
X108601526Y-95376297D01*
X108604445Y-95383668D01*
X108604445Y-95383670D01*
X108617804Y-95417412D01*
X108621649Y-95428642D01*
X108633982Y-95471093D01*
X108638015Y-95477912D01*
X108638017Y-95477917D01*
X108644293Y-95488528D01*
X108652988Y-95506276D01*
X108660448Y-95525117D01*
X108665110Y-95531533D01*
X108665110Y-95531534D01*
X108686436Y-95560887D01*
X108692952Y-95570807D01*
X108705189Y-95591498D01*
X108715458Y-95608862D01*
X108729779Y-95623183D01*
X108742619Y-95638216D01*
X108754528Y-95654607D01*
X108760634Y-95659658D01*
X108788605Y-95682798D01*
X108797384Y-95690788D01*
X118359595Y-105252999D01*
X118393621Y-105315311D01*
X118396500Y-105342094D01*
X118396500Y-106165400D01*
X118407474Y-106271166D01*
X118409655Y-106277702D01*
X118409655Y-106277704D01*
X118419911Y-106308444D01*
X118463450Y-106438946D01*
X118556522Y-106589348D01*
X118681697Y-106714305D01*
X118832262Y-106807115D01*
X118912005Y-106833564D01*
X118993611Y-106860632D01*
X118993613Y-106860632D01*
X119000139Y-106862797D01*
X119006975Y-106863497D01*
X119006978Y-106863498D01*
X119050031Y-106867909D01*
X119104600Y-106873500D01*
X119927906Y-106873500D01*
X119996027Y-106893502D01*
X120017001Y-106910405D01*
X120178843Y-107072247D01*
X120186387Y-107080537D01*
X120190500Y-107087018D01*
X120196277Y-107092443D01*
X120240167Y-107133658D01*
X120243009Y-107136413D01*
X120262730Y-107156134D01*
X120265925Y-107158612D01*
X120274947Y-107166318D01*
X120307179Y-107196586D01*
X120314128Y-107200406D01*
X120324932Y-107206346D01*
X120341456Y-107217199D01*
X120357459Y-107229613D01*
X120398043Y-107247176D01*
X120408673Y-107252383D01*
X120447440Y-107273695D01*
X120455117Y-107275666D01*
X120455122Y-107275668D01*
X120467058Y-107278732D01*
X120485766Y-107285137D01*
X120504355Y-107293181D01*
X120512180Y-107294420D01*
X120512182Y-107294421D01*
X120548019Y-107300097D01*
X120559640Y-107302504D01*
X120594789Y-107311528D01*
X120602470Y-107313500D01*
X120622731Y-107313500D01*
X120642440Y-107315051D01*
X120662443Y-107318219D01*
X120670335Y-107317473D01*
X120675562Y-107316979D01*
X120706454Y-107314059D01*
X120718311Y-107313500D01*
X136451800Y-107313500D01*
X136519921Y-107333502D01*
X136539147Y-107349843D01*
X136539420Y-107349540D01*
X136544332Y-107353963D01*
X136548747Y-107358866D01*
X136703248Y-107471118D01*
X136709276Y-107473802D01*
X136709278Y-107473803D01*
X136871681Y-107546109D01*
X136877712Y-107548794D01*
X136971113Y-107568647D01*
X137058056Y-107587128D01*
X137058061Y-107587128D01*
X137064513Y-107588500D01*
X137255487Y-107588500D01*
X137261939Y-107587128D01*
X137261944Y-107587128D01*
X137348888Y-107568647D01*
X137442288Y-107548794D01*
X137448319Y-107546109D01*
X137610722Y-107473803D01*
X137610724Y-107473802D01*
X137616752Y-107471118D01*
X137771253Y-107358866D01*
X137807852Y-107318219D01*
X137894621Y-107221852D01*
X137894622Y-107221851D01*
X137899040Y-107216944D01*
X137974053Y-107087018D01*
X137991223Y-107057279D01*
X137991224Y-107057278D01*
X137994527Y-107051556D01*
X138053542Y-106869928D01*
X138054292Y-106862797D01*
X138072814Y-106686565D01*
X138073504Y-106680000D01*
X138053542Y-106490072D01*
X137994527Y-106308444D01*
X137973005Y-106271166D01*
X137957314Y-106243990D01*
X137899040Y-106143056D01*
X137771253Y-106001134D01*
X137635589Y-105902568D01*
X137622094Y-105892763D01*
X137622093Y-105892762D01*
X137616752Y-105888882D01*
X137610724Y-105886198D01*
X137610722Y-105886197D01*
X137448319Y-105813891D01*
X137448318Y-105813891D01*
X137442288Y-105811206D01*
X137348888Y-105791353D01*
X137261944Y-105772872D01*
X137261939Y-105772872D01*
X137255487Y-105771500D01*
X137064513Y-105771500D01*
X137058061Y-105772872D01*
X137058056Y-105772872D01*
X136971113Y-105791353D01*
X136877712Y-105811206D01*
X136871682Y-105813891D01*
X136871681Y-105813891D01*
X136709278Y-105886197D01*
X136709276Y-105886198D01*
X136703248Y-105888882D01*
X136697907Y-105892762D01*
X136697906Y-105892763D01*
X136684411Y-105902568D01*
X136548747Y-106001134D01*
X136544332Y-106006037D01*
X136539420Y-106010460D01*
X136538295Y-106009211D01*
X136484986Y-106042051D01*
X136451800Y-106046500D01*
X136298960Y-106046500D01*
X136230839Y-106026498D01*
X136184346Y-105972842D01*
X136174242Y-105902568D01*
X136203736Y-105837988D01*
X136267626Y-105798458D01*
X136273431Y-105796968D01*
X136281297Y-105795974D01*
X136288665Y-105793057D01*
X136288672Y-105793055D01*
X136322412Y-105779696D01*
X136333642Y-105775851D01*
X136368483Y-105765729D01*
X136368484Y-105765729D01*
X136376093Y-105763518D01*
X136382912Y-105759485D01*
X136382917Y-105759483D01*
X136393528Y-105753207D01*
X136411276Y-105744512D01*
X136430117Y-105737052D01*
X136465887Y-105711064D01*
X136475807Y-105704548D01*
X136507035Y-105686080D01*
X136507038Y-105686078D01*
X136513862Y-105682042D01*
X136528183Y-105667721D01*
X136543217Y-105654880D01*
X136553194Y-105647631D01*
X136559607Y-105642972D01*
X136587798Y-105608895D01*
X136595788Y-105600116D01*
X142190499Y-100005405D01*
X142252811Y-99971379D01*
X142279594Y-99968500D01*
X142335487Y-99968500D01*
X142341939Y-99967128D01*
X142341944Y-99967128D01*
X142428888Y-99948647D01*
X142522288Y-99928794D01*
X142528319Y-99926109D01*
X142690722Y-99853803D01*
X142690724Y-99853802D01*
X142696752Y-99851118D01*
X142851253Y-99738866D01*
X142887851Y-99698220D01*
X142974621Y-99601852D01*
X142974622Y-99601851D01*
X142979040Y-99596944D01*
X143074527Y-99431556D01*
X143133542Y-99249928D01*
X143137092Y-99216157D01*
X143152814Y-99066565D01*
X143153504Y-99060000D01*
X143139624Y-98927938D01*
X143134232Y-98876635D01*
X143134232Y-98876633D01*
X143133542Y-98870072D01*
X143074527Y-98688444D01*
X143071168Y-98682625D01*
X143012484Y-98580983D01*
X142979040Y-98523056D01*
X142906505Y-98442497D01*
X142855675Y-98386045D01*
X142855674Y-98386044D01*
X142851253Y-98381134D01*
X142715958Y-98282836D01*
X142702094Y-98272763D01*
X142702093Y-98272762D01*
X142696752Y-98268882D01*
X142690724Y-98266198D01*
X142690722Y-98266197D01*
X142528319Y-98193891D01*
X142528318Y-98193891D01*
X142522288Y-98191206D01*
X142428888Y-98171353D01*
X142341944Y-98152872D01*
X142341939Y-98152872D01*
X142335487Y-98151500D01*
X142144513Y-98151500D01*
X142138061Y-98152872D01*
X142138056Y-98152872D01*
X142051112Y-98171353D01*
X141957712Y-98191206D01*
X141951682Y-98193891D01*
X141951681Y-98193891D01*
X141789278Y-98266197D01*
X141789276Y-98266198D01*
X141783248Y-98268882D01*
X141777907Y-98272762D01*
X141777906Y-98272763D01*
X141764042Y-98282836D01*
X141628747Y-98381134D01*
X141624326Y-98386044D01*
X141624325Y-98386045D01*
X141573496Y-98442497D01*
X141500960Y-98523056D01*
X141467516Y-98580983D01*
X141408833Y-98682625D01*
X141405473Y-98688444D01*
X141346458Y-98870072D01*
X141345768Y-98876633D01*
X141345768Y-98876635D01*
X141329093Y-99035292D01*
X141302080Y-99100949D01*
X141292878Y-99111217D01*
X135897000Y-104507095D01*
X135834688Y-104541121D01*
X135807905Y-104544000D01*
X128879046Y-104544000D01*
X128810925Y-104523998D01*
X128771902Y-104484303D01*
X128702332Y-104371880D01*
X128698478Y-104365652D01*
X128573303Y-104240695D01*
X128569084Y-104238094D01*
X128528583Y-104180970D01*
X128525351Y-104110047D01*
X128560976Y-104048635D01*
X128568530Y-104042078D01*
X128574348Y-104038478D01*
X128699305Y-103913303D01*
X128703146Y-103907072D01*
X128788275Y-103768968D01*
X128788276Y-103768966D01*
X128792115Y-103762738D01*
X128847797Y-103594861D01*
X128858500Y-103490400D01*
X128858500Y-102817094D01*
X128878502Y-102748973D01*
X128895405Y-102727999D01*
X132407247Y-99216157D01*
X132415537Y-99208613D01*
X132422018Y-99204500D01*
X132468659Y-99154832D01*
X132471413Y-99151991D01*
X132491135Y-99132269D01*
X132493612Y-99129076D01*
X132501317Y-99120055D01*
X132526159Y-99093600D01*
X132531586Y-99087821D01*
X132538126Y-99075925D01*
X132541346Y-99070068D01*
X132552202Y-99053541D01*
X132559757Y-99043802D01*
X132559758Y-99043800D01*
X132564614Y-99037540D01*
X132582174Y-98996960D01*
X132587391Y-98986312D01*
X132604875Y-98954509D01*
X132604876Y-98954507D01*
X132608695Y-98947560D01*
X132613733Y-98927937D01*
X132620137Y-98909234D01*
X132625033Y-98897920D01*
X132625033Y-98897919D01*
X132628181Y-98890645D01*
X132629420Y-98882822D01*
X132629423Y-98882812D01*
X132635099Y-98846976D01*
X132637505Y-98835356D01*
X132646528Y-98800211D01*
X132646528Y-98800210D01*
X132648500Y-98792530D01*
X132648500Y-98772276D01*
X132650051Y-98752565D01*
X132651980Y-98740386D01*
X132653220Y-98732557D01*
X132649059Y-98688538D01*
X132648500Y-98676681D01*
X132648500Y-96819500D01*
X132668502Y-96751379D01*
X132722158Y-96704886D01*
X132774500Y-96693500D01*
X132906502Y-96693500D01*
X132908950Y-96693307D01*
X132908958Y-96693307D01*
X132937421Y-96691067D01*
X132937426Y-96691066D01*
X132943831Y-96690562D01*
X133043769Y-96661528D01*
X133095988Y-96646357D01*
X133095990Y-96646356D01*
X133103601Y-96644145D01*
X133148327Y-96617694D01*
X133239980Y-96563491D01*
X133239983Y-96563489D01*
X133246807Y-96559453D01*
X133364453Y-96441807D01*
X133368489Y-96434983D01*
X133368491Y-96434980D01*
X133445108Y-96305427D01*
X133449145Y-96298601D01*
X133451357Y-96290988D01*
X133480160Y-96191847D01*
X133518373Y-96132012D01*
X133582869Y-96102334D01*
X133601157Y-96101000D01*
X143321633Y-96101000D01*
X143389754Y-96121002D01*
X143436247Y-96174658D01*
X143441156Y-96187123D01*
X143460730Y-96245791D01*
X143463450Y-96253945D01*
X143556522Y-96404348D01*
X143681697Y-96529305D01*
X143687927Y-96533145D01*
X143687928Y-96533146D01*
X143825090Y-96617694D01*
X143832262Y-96622115D01*
X143885123Y-96639648D01*
X143993611Y-96675632D01*
X143993613Y-96675632D01*
X144000139Y-96677797D01*
X144006975Y-96678497D01*
X144006978Y-96678498D01*
X144050031Y-96682909D01*
X144104600Y-96688500D01*
X145455400Y-96688500D01*
X145458646Y-96688163D01*
X145458650Y-96688163D01*
X145554307Y-96678238D01*
X145554311Y-96678237D01*
X145561165Y-96677526D01*
X145567701Y-96675345D01*
X145567703Y-96675345D01*
X145699805Y-96631272D01*
X145728945Y-96621550D01*
X145879348Y-96528478D01*
X146004305Y-96403303D01*
X146045400Y-96336635D01*
X146093275Y-96258968D01*
X146093276Y-96258966D01*
X146097115Y-96252738D01*
X146132847Y-96145008D01*
X146150632Y-96091389D01*
X146150632Y-96091387D01*
X146152797Y-96084861D01*
X146163500Y-95980400D01*
X146163500Y-94954600D01*
X146160915Y-94929688D01*
X146153238Y-94855693D01*
X146153237Y-94855689D01*
X146152526Y-94848835D01*
X146140904Y-94813998D01*
X146098868Y-94688003D01*
X146096550Y-94681055D01*
X146003478Y-94530652D01*
X145878303Y-94405695D01*
X145872072Y-94401854D01*
X145733968Y-94316725D01*
X145733966Y-94316724D01*
X145727738Y-94312885D01*
X145647995Y-94286436D01*
X145566389Y-94259368D01*
X145566387Y-94259368D01*
X145559861Y-94257203D01*
X145553025Y-94256503D01*
X145553022Y-94256502D01*
X145509969Y-94252091D01*
X145455400Y-94246500D01*
X144507095Y-94246500D01*
X144438974Y-94226498D01*
X144417999Y-94209595D01*
X144137000Y-93928595D01*
X144102975Y-93866283D01*
X144108040Y-93795467D01*
X144150587Y-93738632D01*
X144217107Y-93713821D01*
X144226096Y-93713500D01*
X145455400Y-93713500D01*
X145458646Y-93713163D01*
X145458650Y-93713163D01*
X145554307Y-93703238D01*
X145554311Y-93703237D01*
X145561165Y-93702526D01*
X145567701Y-93700345D01*
X145567703Y-93700345D01*
X145721997Y-93648868D01*
X145728945Y-93646550D01*
X145879348Y-93553478D01*
X146004305Y-93428303D01*
X146008146Y-93422072D01*
X146093275Y-93283968D01*
X146093276Y-93283966D01*
X146097115Y-93277738D01*
X146152797Y-93109861D01*
X146156728Y-93071500D01*
X146163172Y-93008598D01*
X146163500Y-93005400D01*
X146163500Y-91979600D01*
X146161925Y-91964419D01*
X146153238Y-91880693D01*
X146153237Y-91880689D01*
X146152526Y-91873835D01*
X146149290Y-91864134D01*
X146098868Y-91713003D01*
X146096550Y-91706055D01*
X146003478Y-91555652D01*
X145878303Y-91430695D01*
X145857744Y-91418022D01*
X145733968Y-91341725D01*
X145733966Y-91341724D01*
X145727738Y-91337885D01*
X145647995Y-91311436D01*
X145566389Y-91284368D01*
X145566387Y-91284368D01*
X145559861Y-91282203D01*
X145553025Y-91281503D01*
X145553022Y-91281502D01*
X145497553Y-91275819D01*
X145455400Y-91271500D01*
X144104600Y-91271500D01*
X144101354Y-91271837D01*
X144101350Y-91271837D01*
X144005693Y-91281762D01*
X144005689Y-91281763D01*
X143998835Y-91282474D01*
X143992299Y-91284655D01*
X143992297Y-91284655D01*
X143894800Y-91317183D01*
X143831055Y-91338450D01*
X143680652Y-91431522D01*
X143555695Y-91556697D01*
X143551855Y-91562927D01*
X143551854Y-91562928D01*
X143523754Y-91608515D01*
X143470982Y-91656008D01*
X143400910Y-91667432D01*
X143335786Y-91639158D01*
X143327398Y-91631494D01*
X143142470Y-91446565D01*
X142910404Y-91214499D01*
X142876379Y-91152187D01*
X142873500Y-91125404D01*
X142873500Y-89659500D01*
X142893502Y-89591379D01*
X142947158Y-89544886D01*
X142999500Y-89533500D01*
X143445500Y-89533500D01*
X143513621Y-89553502D01*
X143560114Y-89607158D01*
X143571500Y-89659500D01*
X143571500Y-90300400D01*
X143582474Y-90406166D01*
X143638450Y-90573946D01*
X143731522Y-90724348D01*
X143856697Y-90849305D01*
X143862927Y-90853145D01*
X143862928Y-90853146D01*
X143989912Y-90931420D01*
X144007262Y-90942115D01*
X144051515Y-90956793D01*
X144168611Y-90995632D01*
X144168613Y-90995632D01*
X144175139Y-90997797D01*
X144181975Y-90998497D01*
X144181978Y-90998498D01*
X144225031Y-91002909D01*
X144279600Y-91008500D01*
X145280400Y-91008500D01*
X145283646Y-91008163D01*
X145283650Y-91008163D01*
X145379308Y-90998238D01*
X145379312Y-90998237D01*
X145386166Y-90997526D01*
X145392702Y-90995345D01*
X145392704Y-90995345D01*
X145529281Y-90949779D01*
X145553946Y-90941550D01*
X145698715Y-90851964D01*
X145767163Y-90833127D01*
X145834933Y-90854288D01*
X145854110Y-90870014D01*
X148912878Y-93928782D01*
X148946904Y-93991094D01*
X148949092Y-94004703D01*
X148966458Y-94169928D01*
X149025473Y-94351556D01*
X149120960Y-94516944D01*
X149248747Y-94658866D01*
X149403248Y-94771118D01*
X149409276Y-94773802D01*
X149409278Y-94773803D01*
X149544484Y-94834000D01*
X149577712Y-94848794D01*
X149641822Y-94862421D01*
X149758056Y-94887128D01*
X149758061Y-94887128D01*
X149764513Y-94888500D01*
X149955487Y-94888500D01*
X149961939Y-94887128D01*
X149961944Y-94887128D01*
X150078178Y-94862421D01*
X150142288Y-94848794D01*
X150175516Y-94834000D01*
X150310722Y-94773803D01*
X150310724Y-94773802D01*
X150316752Y-94771118D01*
X150471253Y-94658866D01*
X150599040Y-94516944D01*
X150694527Y-94351556D01*
X150753542Y-94169928D01*
X150773504Y-93980000D01*
X150753542Y-93790072D01*
X150694527Y-93608444D01*
X150599040Y-93443056D01*
X150590421Y-93433483D01*
X150475675Y-93306045D01*
X150475674Y-93306044D01*
X150471253Y-93301134D01*
X150316752Y-93188882D01*
X150310724Y-93186198D01*
X150310722Y-93186197D01*
X150148319Y-93113891D01*
X150148318Y-93113891D01*
X150142288Y-93111206D01*
X150048887Y-93091353D01*
X149961944Y-93072872D01*
X149961939Y-93072872D01*
X149955487Y-93071500D01*
X149899595Y-93071500D01*
X149831474Y-93051498D01*
X149810500Y-93034595D01*
X147035000Y-90259095D01*
X147000974Y-90196783D01*
X147006039Y-90125968D01*
X147035000Y-90080905D01*
X147712253Y-89403652D01*
X147720538Y-89396112D01*
X147727018Y-89392000D01*
X147773659Y-89342332D01*
X147776413Y-89339491D01*
X147796135Y-89319769D01*
X147798612Y-89316576D01*
X147806317Y-89307555D01*
X147819336Y-89293691D01*
X147836586Y-89275321D01*
X147840407Y-89268371D01*
X147846346Y-89257568D01*
X147857202Y-89241041D01*
X147864757Y-89231302D01*
X147864758Y-89231300D01*
X147869614Y-89225040D01*
X147887174Y-89184460D01*
X147892391Y-89173812D01*
X147909875Y-89142009D01*
X147909876Y-89142007D01*
X147913695Y-89135060D01*
X147915860Y-89126630D01*
X147918733Y-89115438D01*
X147925137Y-89096734D01*
X147930033Y-89085420D01*
X147930033Y-89085419D01*
X147933181Y-89078145D01*
X147934420Y-89070322D01*
X147934423Y-89070312D01*
X147940099Y-89034476D01*
X147942505Y-89022856D01*
X147951528Y-88987711D01*
X147951528Y-88987710D01*
X147953500Y-88980030D01*
X147953500Y-88959776D01*
X147955051Y-88940065D01*
X147956980Y-88927886D01*
X147958220Y-88920057D01*
X147954059Y-88876038D01*
X147953500Y-88864181D01*
X147953500Y-85438763D01*
X147954027Y-85427579D01*
X147955701Y-85420091D01*
X147953562Y-85352032D01*
X147953500Y-85348075D01*
X147953500Y-85320144D01*
X147952994Y-85316138D01*
X147952061Y-85304292D01*
X147950922Y-85268037D01*
X147950673Y-85260110D01*
X147945022Y-85240658D01*
X147941014Y-85221306D01*
X147939468Y-85209068D01*
X147939467Y-85209066D01*
X147938474Y-85201203D01*
X147922194Y-85160086D01*
X147918359Y-85148885D01*
X147906018Y-85106406D01*
X147901985Y-85099587D01*
X147901983Y-85099582D01*
X147895707Y-85088971D01*
X147887010Y-85071221D01*
X147879552Y-85052383D01*
X147853571Y-85016623D01*
X147847053Y-85006701D01*
X147828578Y-84975460D01*
X147828574Y-84975455D01*
X147824542Y-84968637D01*
X147810218Y-84954313D01*
X147797376Y-84939278D01*
X147785472Y-84922893D01*
X147751406Y-84894711D01*
X147742627Y-84886722D01*
X146025405Y-83169500D01*
X145991379Y-83107188D01*
X145988500Y-83080405D01*
X145988500Y-82559595D01*
X146008502Y-82491474D01*
X146025405Y-82470500D01*
X146545500Y-81950405D01*
X146607812Y-81916379D01*
X146634595Y-81913500D01*
X149151800Y-81913500D01*
X149219921Y-81933502D01*
X149239147Y-81949843D01*
X149239420Y-81949540D01*
X149244332Y-81953963D01*
X149248747Y-81958866D01*
X149270329Y-81974546D01*
X149341149Y-82026000D01*
X149403248Y-82071118D01*
X149409276Y-82073802D01*
X149409278Y-82073803D01*
X149571681Y-82146109D01*
X149577712Y-82148794D01*
X149671112Y-82168647D01*
X149758056Y-82187128D01*
X149758061Y-82187128D01*
X149764513Y-82188500D01*
X149955487Y-82188500D01*
X149961939Y-82187128D01*
X149961944Y-82187128D01*
X150048888Y-82168647D01*
X150142288Y-82148794D01*
X150148319Y-82146109D01*
X150310722Y-82073803D01*
X150310724Y-82073802D01*
X150316752Y-82071118D01*
X150471253Y-81958866D01*
X150494091Y-81933502D01*
X150594621Y-81821852D01*
X150594622Y-81821851D01*
X150599040Y-81816944D01*
X150661580Y-81708621D01*
X150691223Y-81657279D01*
X150691224Y-81657278D01*
X150694527Y-81651556D01*
X150753542Y-81469928D01*
X150773504Y-81280000D01*
X150764164Y-81191138D01*
X150754232Y-81096635D01*
X150754232Y-81096633D01*
X150753542Y-81090072D01*
X150694527Y-80908444D01*
X150599040Y-80743056D01*
X150572629Y-80713723D01*
X150475675Y-80606045D01*
X150475674Y-80606044D01*
X150471253Y-80601134D01*
X150316752Y-80488882D01*
X150310724Y-80486198D01*
X150310722Y-80486197D01*
X150148319Y-80413891D01*
X150148318Y-80413891D01*
X150142288Y-80411206D01*
X150048888Y-80391353D01*
X149961944Y-80372872D01*
X149961939Y-80372872D01*
X149955487Y-80371500D01*
X149764513Y-80371500D01*
X149758061Y-80372872D01*
X149758056Y-80372872D01*
X149671112Y-80391353D01*
X149577712Y-80411206D01*
X149571682Y-80413891D01*
X149571681Y-80413891D01*
X149409278Y-80486197D01*
X149409276Y-80486198D01*
X149403248Y-80488882D01*
X149248747Y-80601134D01*
X149244332Y-80606037D01*
X149239420Y-80610460D01*
X149238295Y-80609211D01*
X149184986Y-80642051D01*
X149151800Y-80646500D01*
X146398767Y-80646500D01*
X146387584Y-80645973D01*
X146380091Y-80644298D01*
X146372165Y-80644547D01*
X146372164Y-80644547D01*
X146312001Y-80646438D01*
X146308043Y-80646500D01*
X146289500Y-80646500D01*
X146221379Y-80626498D01*
X146174886Y-80572842D01*
X146163500Y-80520500D01*
X146163500Y-79792094D01*
X146183502Y-79723973D01*
X146200405Y-79702999D01*
X146492999Y-79410405D01*
X146555311Y-79376379D01*
X146582094Y-79373500D01*
X149151800Y-79373500D01*
X149219921Y-79393502D01*
X149239147Y-79409843D01*
X149239420Y-79409540D01*
X149244332Y-79413963D01*
X149248747Y-79418866D01*
X149403248Y-79531118D01*
X149409276Y-79533802D01*
X149409278Y-79533803D01*
X149571681Y-79606109D01*
X149577712Y-79608794D01*
X149671113Y-79628647D01*
X149758056Y-79647128D01*
X149758061Y-79647128D01*
X149764513Y-79648500D01*
X149955487Y-79648500D01*
X149961939Y-79647128D01*
X149961944Y-79647128D01*
X150048887Y-79628647D01*
X150142288Y-79608794D01*
X150148319Y-79606109D01*
X150310722Y-79533803D01*
X150310724Y-79533802D01*
X150316752Y-79531118D01*
X150471253Y-79418866D01*
X150494091Y-79393502D01*
X150594621Y-79281852D01*
X150594622Y-79281851D01*
X150599040Y-79276944D01*
X150694527Y-79111556D01*
X150753542Y-78929928D01*
X150773504Y-78740000D01*
X150753542Y-78550072D01*
X150694527Y-78368444D01*
X150599040Y-78203056D01*
X150527030Y-78123080D01*
X150475675Y-78066045D01*
X150475674Y-78066044D01*
X150471253Y-78061134D01*
X150316752Y-77948882D01*
X150310724Y-77946198D01*
X150310722Y-77946197D01*
X150148319Y-77873891D01*
X150148318Y-77873891D01*
X150142288Y-77871206D01*
X150048888Y-77851353D01*
X149961944Y-77832872D01*
X149961939Y-77832872D01*
X149955487Y-77831500D01*
X149764513Y-77831500D01*
X149758061Y-77832872D01*
X149758056Y-77832872D01*
X149671112Y-77851353D01*
X149577712Y-77871206D01*
X149571682Y-77873891D01*
X149571681Y-77873891D01*
X149409278Y-77946197D01*
X149409276Y-77946198D01*
X149403248Y-77948882D01*
X149248747Y-78061134D01*
X149244332Y-78066037D01*
X149239420Y-78070460D01*
X149238295Y-78069211D01*
X149184986Y-78102051D01*
X149151800Y-78106500D01*
X146346268Y-78106500D01*
X146335085Y-78105973D01*
X146327592Y-78104298D01*
X146319666Y-78104547D01*
X146319665Y-78104547D01*
X146259502Y-78106438D01*
X146255544Y-78106500D01*
X146248322Y-78106500D01*
X146180201Y-78086498D01*
X146133708Y-78032842D01*
X146123604Y-77962568D01*
X146128729Y-77940832D01*
X146150140Y-77876281D01*
X146153005Y-77862919D01*
X146162672Y-77768561D01*
X146163000Y-77762145D01*
X146163000Y-77524615D01*
X146158525Y-77509376D01*
X146157135Y-77508171D01*
X146149452Y-77506500D01*
X145052115Y-77506500D01*
X145036876Y-77510975D01*
X145035671Y-77512365D01*
X145034000Y-77520048D01*
X145034000Y-78454885D01*
X145038475Y-78470124D01*
X145039865Y-78471329D01*
X145047548Y-78473000D01*
X145334406Y-78473000D01*
X145402527Y-78493002D01*
X145449020Y-78546658D01*
X145459124Y-78616932D01*
X145429630Y-78681512D01*
X145423501Y-78688095D01*
X145142001Y-78969595D01*
X145079689Y-79003621D01*
X145052906Y-79006500D01*
X144104600Y-79006500D01*
X144101354Y-79006837D01*
X144101350Y-79006837D01*
X144005693Y-79016762D01*
X144005689Y-79016763D01*
X143998835Y-79017474D01*
X143992299Y-79019655D01*
X143992297Y-79019655D01*
X143946606Y-79034899D01*
X143831055Y-79073450D01*
X143680652Y-79166522D01*
X143555695Y-79291697D01*
X143551855Y-79297927D01*
X143551854Y-79297928D01*
X143474916Y-79422745D01*
X143462885Y-79442262D01*
X143407203Y-79610139D01*
X143406503Y-79616975D01*
X143406502Y-79616978D01*
X143403213Y-79649077D01*
X143396500Y-79714600D01*
X143396500Y-80662905D01*
X143376498Y-80731026D01*
X143359595Y-80752000D01*
X141847747Y-82263848D01*
X141839461Y-82271388D01*
X141832982Y-82275500D01*
X141827557Y-82281277D01*
X141786357Y-82325151D01*
X141783602Y-82327993D01*
X141763865Y-82347730D01*
X141761385Y-82350927D01*
X141753682Y-82359947D01*
X141723414Y-82392179D01*
X141719595Y-82399125D01*
X141719593Y-82399128D01*
X141713652Y-82409934D01*
X141702801Y-82426453D01*
X141690386Y-82442459D01*
X141687241Y-82449728D01*
X141687238Y-82449732D01*
X141672826Y-82483037D01*
X141667609Y-82493687D01*
X141646305Y-82532440D01*
X141644334Y-82540115D01*
X141644334Y-82540116D01*
X141641267Y-82552062D01*
X141634863Y-82570766D01*
X141626819Y-82589355D01*
X141625580Y-82597178D01*
X141625577Y-82597188D01*
X141619901Y-82633024D01*
X141617495Y-82644644D01*
X141606500Y-82687470D01*
X141606500Y-82707724D01*
X141604949Y-82727434D01*
X141601780Y-82747443D01*
X141602526Y-82755335D01*
X141605941Y-82791461D01*
X141606500Y-82803319D01*
X141606500Y-83741233D01*
X141605973Y-83752416D01*
X141604298Y-83759909D01*
X141604547Y-83767835D01*
X141604547Y-83767836D01*
X141606438Y-83827986D01*
X141606500Y-83831945D01*
X141606500Y-83859856D01*
X141606997Y-83863790D01*
X141606997Y-83863791D01*
X141607005Y-83863856D01*
X141607938Y-83875693D01*
X141609327Y-83919889D01*
X141614978Y-83939339D01*
X141618987Y-83958700D01*
X141621526Y-83978797D01*
X141624445Y-83986168D01*
X141624445Y-83986170D01*
X141637804Y-84019912D01*
X141641649Y-84031142D01*
X141653982Y-84073593D01*
X141658015Y-84080412D01*
X141658017Y-84080417D01*
X141664293Y-84091028D01*
X141672988Y-84108776D01*
X141680448Y-84127617D01*
X141685110Y-84134033D01*
X141685110Y-84134034D01*
X141706436Y-84163387D01*
X141712952Y-84173307D01*
X141735458Y-84211362D01*
X141749779Y-84225683D01*
X141762619Y-84240716D01*
X141774528Y-84257107D01*
X141780634Y-84262158D01*
X141808605Y-84285298D01*
X141817384Y-84293288D01*
X142736343Y-85212247D01*
X142743887Y-85220537D01*
X142748000Y-85227018D01*
X142753777Y-85232443D01*
X142797667Y-85273658D01*
X142800509Y-85276413D01*
X142820231Y-85296135D01*
X142823355Y-85298558D01*
X142823359Y-85298562D01*
X142823424Y-85298612D01*
X142832445Y-85306317D01*
X142864679Y-85336586D01*
X142871627Y-85340405D01*
X142871629Y-85340407D01*
X142882432Y-85346346D01*
X142898959Y-85357202D01*
X142908698Y-85364757D01*
X142908700Y-85364758D01*
X142914960Y-85369614D01*
X142955540Y-85387174D01*
X142966188Y-85392391D01*
X143004940Y-85413695D01*
X143018122Y-85417080D01*
X143079126Y-85453394D01*
X143110814Y-85516927D01*
X143103123Y-85587506D01*
X143075879Y-85628215D01*
X143014499Y-85689595D01*
X142952187Y-85723621D01*
X142925404Y-85726500D01*
X140408200Y-85726500D01*
X140340079Y-85706498D01*
X140320853Y-85690157D01*
X140320580Y-85690460D01*
X140315668Y-85686037D01*
X140311253Y-85681134D01*
X140238417Y-85628215D01*
X140162094Y-85572763D01*
X140162093Y-85572762D01*
X140156752Y-85568882D01*
X140150724Y-85566198D01*
X140150722Y-85566197D01*
X139988319Y-85493891D01*
X139988318Y-85493891D01*
X139982288Y-85491206D01*
X139888887Y-85471353D01*
X139801944Y-85452872D01*
X139801939Y-85452872D01*
X139795487Y-85451500D01*
X139604513Y-85451500D01*
X139598061Y-85452872D01*
X139598056Y-85452872D01*
X139511112Y-85471353D01*
X139417712Y-85491206D01*
X139411682Y-85493891D01*
X139411681Y-85493891D01*
X139249278Y-85566197D01*
X139249276Y-85566198D01*
X139243248Y-85568882D01*
X139237907Y-85572762D01*
X139237906Y-85572763D01*
X139187843Y-85609136D01*
X139088747Y-85681134D01*
X139084326Y-85686044D01*
X139084325Y-85686045D01*
X139050492Y-85723621D01*
X138960960Y-85823056D01*
X138865473Y-85988444D01*
X138806458Y-86170072D01*
X138786496Y-86360000D01*
X138806458Y-86549928D01*
X138865473Y-86731556D01*
X138868776Y-86737278D01*
X138868777Y-86737279D01*
X138881195Y-86758787D01*
X138960960Y-86896944D01*
X138965375Y-86901847D01*
X138965379Y-86901852D01*
X139051905Y-86997949D01*
X139088747Y-87038866D01*
X139243248Y-87151118D01*
X139249276Y-87153802D01*
X139249278Y-87153803D01*
X139411681Y-87226109D01*
X139417712Y-87228794D01*
X139511113Y-87248647D01*
X139598056Y-87267128D01*
X139598061Y-87267128D01*
X139604513Y-87268500D01*
X139795487Y-87268500D01*
X139801939Y-87267128D01*
X139801944Y-87267128D01*
X139888888Y-87248647D01*
X139982288Y-87228794D01*
X139988319Y-87226109D01*
X140150722Y-87153803D01*
X140150724Y-87153802D01*
X140156752Y-87151118D01*
X140311253Y-87038866D01*
X140315668Y-87033963D01*
X140320580Y-87029540D01*
X140321705Y-87030789D01*
X140375014Y-86997949D01*
X140408200Y-86993500D01*
X143161233Y-86993500D01*
X143172416Y-86994027D01*
X143179909Y-86995702D01*
X143187835Y-86995453D01*
X143187836Y-86995453D01*
X143247986Y-86993562D01*
X143251945Y-86993500D01*
X143279856Y-86993500D01*
X143283791Y-86993003D01*
X143283856Y-86992995D01*
X143295693Y-86992062D01*
X143327951Y-86991048D01*
X143331970Y-86990922D01*
X143339889Y-86990673D01*
X143359343Y-86985021D01*
X143378700Y-86981013D01*
X143390930Y-86979468D01*
X143390931Y-86979468D01*
X143398797Y-86978474D01*
X143406168Y-86975555D01*
X143406170Y-86975555D01*
X143439912Y-86962196D01*
X143451142Y-86958351D01*
X143485983Y-86948229D01*
X143485984Y-86948229D01*
X143493593Y-86946018D01*
X143500412Y-86941985D01*
X143500417Y-86941983D01*
X143511028Y-86935707D01*
X143528776Y-86927012D01*
X143547617Y-86919552D01*
X143553665Y-86915158D01*
X143622800Y-86899914D01*
X143689390Y-86924537D01*
X143732097Y-86981253D01*
X143737362Y-87052054D01*
X143721426Y-87091734D01*
X143637885Y-87227262D01*
X143582203Y-87395139D01*
X143571500Y-87499600D01*
X143571500Y-88140500D01*
X143551498Y-88208621D01*
X143497842Y-88255114D01*
X143445500Y-88266500D01*
X142311793Y-88266500D01*
X142288184Y-88264268D01*
X142287881Y-88264210D01*
X142287877Y-88264210D01*
X142280094Y-88262725D01*
X142224049Y-88266251D01*
X142216138Y-88266500D01*
X142200144Y-88266500D01*
X142184270Y-88268506D01*
X142176410Y-88269248D01*
X142148951Y-88270976D01*
X142128263Y-88272277D01*
X142128262Y-88272277D01*
X142120350Y-88272775D01*
X142112809Y-88275225D01*
X142112513Y-88275321D01*
X142089369Y-88280494D01*
X142089065Y-88280532D01*
X142089060Y-88280533D01*
X142081203Y-88281526D01*
X142073838Y-88284442D01*
X142073834Y-88284443D01*
X142028989Y-88302199D01*
X142021570Y-88304871D01*
X141968125Y-88322236D01*
X141961429Y-88326486D01*
X141961428Y-88326486D01*
X141961169Y-88326650D01*
X141940042Y-88337415D01*
X141939754Y-88337529D01*
X141939749Y-88337532D01*
X141932383Y-88340448D01*
X141925975Y-88345104D01*
X141925969Y-88345107D01*
X141886948Y-88373458D01*
X141880411Y-88377901D01*
X141832982Y-88408000D01*
X141827556Y-88413778D01*
X141827555Y-88413779D01*
X141827341Y-88414007D01*
X141809554Y-88429688D01*
X141809309Y-88429866D01*
X141809307Y-88429868D01*
X141802893Y-88434528D01*
X141797839Y-88440637D01*
X141797838Y-88440638D01*
X141767097Y-88477796D01*
X141761866Y-88483730D01*
X141728842Y-88518898D01*
X141728840Y-88518901D01*
X141723414Y-88524679D01*
X141719445Y-88531899D01*
X141706119Y-88551506D01*
X141705920Y-88551746D01*
X141705916Y-88551753D01*
X141700867Y-88557856D01*
X141697493Y-88565027D01*
X141676953Y-88608676D01*
X141673371Y-88615708D01*
X141646305Y-88664940D01*
X141644335Y-88672615D01*
X141644332Y-88672621D01*
X141644256Y-88672919D01*
X141636224Y-88695228D01*
X141636094Y-88695503D01*
X141636091Y-88695511D01*
X141632717Y-88702682D01*
X141622195Y-88757843D01*
X141620471Y-88765558D01*
X141606500Y-88819970D01*
X141606500Y-88828207D01*
X141604268Y-88851816D01*
X141602725Y-88859906D01*
X141606013Y-88912165D01*
X141606251Y-88915951D01*
X141606500Y-88923862D01*
X141606500Y-91093905D01*
X141586498Y-91162026D01*
X141532842Y-91208519D01*
X141462568Y-91218623D01*
X141397988Y-91189129D01*
X141391405Y-91183000D01*
X135290405Y-85082000D01*
X135256379Y-85019688D01*
X135253500Y-84992905D01*
X135253500Y-77762096D01*
X143397000Y-77762096D01*
X143397337Y-77768611D01*
X143407256Y-77864203D01*
X143410150Y-77877602D01*
X143461588Y-78031783D01*
X143467762Y-78044962D01*
X143553063Y-78182807D01*
X143562099Y-78194208D01*
X143676830Y-78308739D01*
X143688241Y-78317751D01*
X143826245Y-78402818D01*
X143839423Y-78408962D01*
X143993716Y-78460139D01*
X144007081Y-78463005D01*
X144101439Y-78472672D01*
X144107855Y-78473000D01*
X144507885Y-78473000D01*
X144523124Y-78468525D01*
X144524329Y-78467135D01*
X144526000Y-78459452D01*
X144526000Y-77524615D01*
X144521525Y-77509376D01*
X144520135Y-77508171D01*
X144512452Y-77506500D01*
X143415115Y-77506500D01*
X143399876Y-77510975D01*
X143398671Y-77512365D01*
X143397000Y-77520048D01*
X143397000Y-77762096D01*
X135253500Y-77762096D01*
X135253500Y-77353043D01*
X135255732Y-77329434D01*
X135255790Y-77329131D01*
X135255790Y-77329127D01*
X135257275Y-77321344D01*
X135253749Y-77265299D01*
X135253500Y-77257388D01*
X135253500Y-77241394D01*
X135251494Y-77225520D01*
X135250751Y-77217652D01*
X135247723Y-77169513D01*
X135247723Y-77169512D01*
X135247225Y-77161600D01*
X135244679Y-77153763D01*
X135239506Y-77130619D01*
X135239468Y-77130315D01*
X135239467Y-77130310D01*
X135238474Y-77122453D01*
X135235558Y-77115088D01*
X135235557Y-77115084D01*
X135217801Y-77070239D01*
X135215129Y-77062820D01*
X135197764Y-77009375D01*
X135193514Y-77002678D01*
X135193350Y-77002419D01*
X135182585Y-76981292D01*
X135182471Y-76981004D01*
X135182468Y-76980999D01*
X135182225Y-76980385D01*
X143397000Y-76980385D01*
X143401475Y-76995624D01*
X143402865Y-76996829D01*
X143410548Y-76998500D01*
X144507885Y-76998500D01*
X144523124Y-76994025D01*
X144524329Y-76992635D01*
X144526000Y-76984952D01*
X144526000Y-76980385D01*
X145034000Y-76980385D01*
X145038475Y-76995624D01*
X145039865Y-76996829D01*
X145047548Y-76998500D01*
X146144885Y-76998500D01*
X146160124Y-76994025D01*
X146161329Y-76992635D01*
X146163000Y-76984952D01*
X146163000Y-76742904D01*
X146162663Y-76736389D01*
X146152744Y-76640797D01*
X146149850Y-76627398D01*
X146098412Y-76473217D01*
X146092238Y-76460038D01*
X146006937Y-76322193D01*
X145997901Y-76310792D01*
X145883170Y-76196261D01*
X145871759Y-76187249D01*
X145733755Y-76102182D01*
X145720577Y-76096038D01*
X145566284Y-76044861D01*
X145552919Y-76041995D01*
X145458561Y-76032328D01*
X145452144Y-76032000D01*
X145052115Y-76032000D01*
X145036876Y-76036475D01*
X145035671Y-76037865D01*
X145034000Y-76045548D01*
X145034000Y-76980385D01*
X144526000Y-76980385D01*
X144526000Y-76050115D01*
X144521525Y-76034876D01*
X144520135Y-76033671D01*
X144512452Y-76032000D01*
X144107904Y-76032000D01*
X144101389Y-76032337D01*
X144005797Y-76042256D01*
X143992398Y-76045150D01*
X143838217Y-76096588D01*
X143825038Y-76102762D01*
X143687193Y-76188063D01*
X143675792Y-76197099D01*
X143561261Y-76311830D01*
X143552249Y-76323241D01*
X143467182Y-76461245D01*
X143461038Y-76474423D01*
X143409861Y-76628716D01*
X143406995Y-76642081D01*
X143397328Y-76736439D01*
X143397000Y-76742856D01*
X143397000Y-76980385D01*
X135182225Y-76980385D01*
X135179552Y-76973633D01*
X135174896Y-76967225D01*
X135174893Y-76967219D01*
X135146542Y-76928198D01*
X135142092Y-76921651D01*
X135112000Y-76874232D01*
X135105993Y-76868591D01*
X135090312Y-76850804D01*
X135090134Y-76850559D01*
X135090132Y-76850557D01*
X135085472Y-76844143D01*
X135079362Y-76839088D01*
X135042204Y-76808347D01*
X135036270Y-76803116D01*
X135001102Y-76770092D01*
X135001099Y-76770090D01*
X134995321Y-76764664D01*
X134988097Y-76760692D01*
X134968494Y-76747369D01*
X134968254Y-76747170D01*
X134968247Y-76747166D01*
X134962144Y-76742117D01*
X134911324Y-76718203D01*
X134904292Y-76714621D01*
X134855060Y-76687555D01*
X134847385Y-76685585D01*
X134847379Y-76685582D01*
X134847081Y-76685506D01*
X134824772Y-76677474D01*
X134824497Y-76677344D01*
X134824489Y-76677341D01*
X134817318Y-76673967D01*
X134762151Y-76663444D01*
X134754442Y-76661721D01*
X134720449Y-76652993D01*
X134707707Y-76649721D01*
X134707706Y-76649721D01*
X134700030Y-76647750D01*
X134691793Y-76647750D01*
X134668184Y-76645518D01*
X134667881Y-76645460D01*
X134667877Y-76645460D01*
X134660094Y-76643975D01*
X134604049Y-76647501D01*
X134596138Y-76647750D01*
X132587961Y-76647750D01*
X132519840Y-76627748D01*
X132473347Y-76574092D01*
X132469188Y-76563809D01*
X132441550Y-76485760D01*
X132441547Y-76485752D01*
X132440117Y-76481715D01*
X132314513Y-76238362D01*
X132304540Y-76224171D01*
X132179001Y-76045548D01*
X132157045Y-76014307D01*
X131970625Y-75813695D01*
X131967310Y-75810981D01*
X131967306Y-75810978D01*
X131762023Y-75642956D01*
X131758705Y-75640240D01*
X131525204Y-75497151D01*
X131521268Y-75495423D01*
X131278373Y-75388799D01*
X131278369Y-75388798D01*
X131274445Y-75387075D01*
X131011066Y-75312050D01*
X131006824Y-75311446D01*
X131006818Y-75311445D01*
X130779866Y-75279145D01*
X130739943Y-75273463D01*
X130596089Y-75272710D01*
X130470377Y-75272052D01*
X130470371Y-75272052D01*
X130466091Y-75272030D01*
X130461847Y-75272589D01*
X130461843Y-75272589D01*
X130353916Y-75286798D01*
X130194578Y-75307775D01*
X130190438Y-75308908D01*
X130190436Y-75308908D01*
X130120918Y-75327926D01*
X129930428Y-75380038D01*
X129926480Y-75381722D01*
X129682482Y-75485796D01*
X129682478Y-75485798D01*
X129678530Y-75487482D01*
X129658625Y-75499395D01*
X129447225Y-75625914D01*
X129447221Y-75625917D01*
X129443543Y-75628118D01*
X129229818Y-75799344D01*
X129041308Y-75997992D01*
X128881502Y-76220386D01*
X128753357Y-76462411D01*
X128751885Y-76466434D01*
X128751883Y-76466438D01*
X128671715Y-76685506D01*
X128659243Y-76719587D01*
X128600904Y-76987157D01*
X128579417Y-77260168D01*
X128595182Y-77533570D01*
X128596007Y-77537775D01*
X128596008Y-77537783D01*
X128626417Y-77692776D01*
X128647905Y-77802303D01*
X128649292Y-77806353D01*
X128649293Y-77806358D01*
X128735195Y-78057255D01*
X128736612Y-78061394D01*
X128859660Y-78306049D01*
X128862086Y-78309578D01*
X128862089Y-78309584D01*
X128967533Y-78463005D01*
X129014774Y-78531740D01*
X129017661Y-78534913D01*
X129017662Y-78534914D01*
X129056165Y-78577228D01*
X129199082Y-78734293D01*
X129202377Y-78737048D01*
X129202378Y-78737049D01*
X129213759Y-78746565D01*
X129409175Y-78909957D01*
X129412816Y-78912241D01*
X129637524Y-79053201D01*
X129637528Y-79053203D01*
X129641164Y-79055484D01*
X129884852Y-79165514D01*
X129938705Y-79211776D01*
X129959000Y-79280350D01*
X129959000Y-79912906D01*
X129938998Y-79981027D01*
X129922095Y-80002001D01*
X124554481Y-85369614D01*
X119187747Y-90736348D01*
X119179461Y-90743888D01*
X119172982Y-90748000D01*
X119167557Y-90753777D01*
X119126357Y-90797651D01*
X119123602Y-90800493D01*
X119103865Y-90820230D01*
X119101385Y-90823427D01*
X119093682Y-90832447D01*
X119063414Y-90864679D01*
X119059595Y-90871625D01*
X119059593Y-90871628D01*
X119053652Y-90882434D01*
X119042801Y-90898953D01*
X119030386Y-90914959D01*
X119027241Y-90922228D01*
X119027238Y-90922232D01*
X119012826Y-90955537D01*
X119007609Y-90966187D01*
X118986305Y-91004940D01*
X118984334Y-91012615D01*
X118984334Y-91012616D01*
X118981267Y-91024562D01*
X118974863Y-91043266D01*
X118966819Y-91061855D01*
X118965580Y-91069678D01*
X118965577Y-91069688D01*
X118959901Y-91105524D01*
X118957495Y-91117144D01*
X118954861Y-91127405D01*
X118946500Y-91159970D01*
X118946500Y-91180224D01*
X118944949Y-91199934D01*
X118941780Y-91219943D01*
X118942526Y-91227835D01*
X118945941Y-91263961D01*
X118946500Y-91275819D01*
X118946500Y-101344143D01*
X118926498Y-101412264D01*
X118872842Y-101458757D01*
X118860378Y-101463666D01*
X118838005Y-101471130D01*
X118837998Y-101471133D01*
X118831054Y-101473450D01*
X118680652Y-101566522D01*
X118555695Y-101691697D01*
X118462885Y-101842262D01*
X118407203Y-102010139D01*
X118406503Y-102016975D01*
X118406502Y-102016978D01*
X118402091Y-102060031D01*
X118396500Y-102114600D01*
X118396500Y-103193905D01*
X118376498Y-103262026D01*
X118322842Y-103308519D01*
X118252568Y-103318623D01*
X118187988Y-103289129D01*
X118181405Y-103283000D01*
X109890405Y-94992000D01*
X109856379Y-94929688D01*
X109853500Y-94902905D01*
X109853500Y-94682524D01*
X109873502Y-94614403D01*
X109885858Y-94598221D01*
X109959040Y-94516944D01*
X110054527Y-94351556D01*
X110113542Y-94169928D01*
X110133504Y-93980000D01*
X110113542Y-93790072D01*
X110054527Y-93608444D01*
X109959040Y-93443056D01*
X109950421Y-93433483D01*
X109835675Y-93306045D01*
X109835674Y-93306044D01*
X109831253Y-93301134D01*
X109676752Y-93188882D01*
X109670724Y-93186198D01*
X109670722Y-93186197D01*
X109508319Y-93113891D01*
X109508318Y-93113891D01*
X109502288Y-93111206D01*
X109408887Y-93091353D01*
X109321944Y-93072872D01*
X109321939Y-93072872D01*
X109315487Y-93071500D01*
X109124513Y-93071500D01*
X109118061Y-93072872D01*
X109118056Y-93072872D01*
X109031113Y-93091353D01*
X108937712Y-93111206D01*
X108931682Y-93113891D01*
X108931681Y-93113891D01*
X108769278Y-93186197D01*
X108769276Y-93186198D01*
X108763248Y-93188882D01*
X108608747Y-93301134D01*
X108604326Y-93306044D01*
X108604325Y-93306045D01*
X108489580Y-93433483D01*
X108480960Y-93443056D01*
X108385473Y-93608444D01*
X108326458Y-93790072D01*
X108306496Y-93980000D01*
X102108500Y-93980000D01*
X102108500Y-81259943D01*
X106041780Y-81259943D01*
X106042526Y-81267835D01*
X106045941Y-81303961D01*
X106046500Y-81315819D01*
X106046500Y-86281233D01*
X106045973Y-86292416D01*
X106044298Y-86299909D01*
X106044547Y-86307835D01*
X106044547Y-86307836D01*
X106046438Y-86367986D01*
X106046500Y-86371945D01*
X106046500Y-86399856D01*
X106046997Y-86403790D01*
X106046997Y-86403791D01*
X106047005Y-86403856D01*
X106047938Y-86415693D01*
X106049327Y-86459889D01*
X106054978Y-86479339D01*
X106058987Y-86498700D01*
X106061526Y-86518797D01*
X106064445Y-86526168D01*
X106064445Y-86526170D01*
X106077804Y-86559912D01*
X106081649Y-86571142D01*
X106093982Y-86613593D01*
X106098015Y-86620412D01*
X106098017Y-86620417D01*
X106104293Y-86631028D01*
X106112988Y-86648776D01*
X106120448Y-86667617D01*
X106125110Y-86674033D01*
X106125110Y-86674034D01*
X106146436Y-86703387D01*
X106152952Y-86713307D01*
X106163745Y-86731556D01*
X106175458Y-86751362D01*
X106189779Y-86765683D01*
X106202619Y-86780716D01*
X106214528Y-86797107D01*
X106220634Y-86802158D01*
X106248605Y-86825298D01*
X106257384Y-86833288D01*
X110514595Y-91090500D01*
X110548621Y-91152812D01*
X110551500Y-91179595D01*
X110551500Y-91320400D01*
X110551837Y-91323646D01*
X110551837Y-91323650D01*
X110560439Y-91406551D01*
X110562474Y-91426166D01*
X110564655Y-91432702D01*
X110564655Y-91432704D01*
X110605321Y-91554594D01*
X110618450Y-91593946D01*
X110711522Y-91744348D01*
X110836697Y-91869305D01*
X110842927Y-91873145D01*
X110842928Y-91873146D01*
X110935065Y-91929940D01*
X110987262Y-91962115D01*
X111035923Y-91978255D01*
X111148611Y-92015632D01*
X111148613Y-92015632D01*
X111155139Y-92017797D01*
X111161975Y-92018497D01*
X111161978Y-92018498D01*
X111205031Y-92022909D01*
X111259600Y-92028500D01*
X111400406Y-92028500D01*
X111468527Y-92048502D01*
X111489501Y-92065405D01*
X115892878Y-96468783D01*
X115926904Y-96531095D01*
X115929093Y-96544708D01*
X115944659Y-96692807D01*
X115946458Y-96709928D01*
X116005473Y-96891556D01*
X116100960Y-97056944D01*
X116228747Y-97198866D01*
X116383248Y-97311118D01*
X116389276Y-97313802D01*
X116389278Y-97313803D01*
X116551681Y-97386109D01*
X116557712Y-97388794D01*
X116651112Y-97408647D01*
X116738056Y-97427128D01*
X116738061Y-97427128D01*
X116744513Y-97428500D01*
X116935487Y-97428500D01*
X116941939Y-97427128D01*
X116941944Y-97427128D01*
X117028888Y-97408647D01*
X117122288Y-97388794D01*
X117128319Y-97386109D01*
X117290722Y-97313803D01*
X117290724Y-97313802D01*
X117296752Y-97311118D01*
X117451253Y-97198866D01*
X117579040Y-97056944D01*
X117674527Y-96891556D01*
X117733542Y-96709928D01*
X117735342Y-96692807D01*
X117752814Y-96526565D01*
X117753504Y-96520000D01*
X117733542Y-96330072D01*
X117674527Y-96148444D01*
X117669075Y-96139000D01*
X117593731Y-96008502D01*
X117579040Y-95983056D01*
X117451253Y-95841134D01*
X117296752Y-95728882D01*
X117290724Y-95726198D01*
X117290722Y-95726197D01*
X117128319Y-95653891D01*
X117128318Y-95653891D01*
X117122288Y-95651206D01*
X117011730Y-95627706D01*
X116941944Y-95612872D01*
X116941939Y-95612872D01*
X116935487Y-95611500D01*
X116879594Y-95611500D01*
X116811473Y-95591498D01*
X116790499Y-95574595D01*
X112933807Y-91717902D01*
X112899781Y-91655590D01*
X112903309Y-91589140D01*
X112955632Y-91431389D01*
X112955632Y-91431387D01*
X112957797Y-91424861D01*
X112968500Y-91320400D01*
X112968500Y-90519600D01*
X112957526Y-90413834D01*
X112929724Y-90330500D01*
X112903868Y-90253002D01*
X112901550Y-90246054D01*
X112808478Y-90095652D01*
X112721891Y-90009216D01*
X112687812Y-89946934D01*
X112692815Y-89876114D01*
X112721736Y-89831025D01*
X112804134Y-89748483D01*
X112809305Y-89743303D01*
X112815988Y-89732462D01*
X112889389Y-89613384D01*
X112942162Y-89565890D01*
X112996649Y-89553500D01*
X113613240Y-89553500D01*
X113681361Y-89573502D01*
X113688618Y-89579043D01*
X113688747Y-89578866D01*
X113843248Y-89691118D01*
X113849276Y-89693802D01*
X113849278Y-89693803D01*
X113974518Y-89749563D01*
X114017712Y-89768794D01*
X114111112Y-89788647D01*
X114198056Y-89807128D01*
X114198061Y-89807128D01*
X114204513Y-89808500D01*
X114395487Y-89808500D01*
X114401939Y-89807128D01*
X114401944Y-89807128D01*
X114488887Y-89788647D01*
X114582288Y-89768794D01*
X114625482Y-89749563D01*
X114750722Y-89693803D01*
X114750724Y-89693802D01*
X114756752Y-89691118D01*
X114911253Y-89578866D01*
X114922937Y-89565890D01*
X115034621Y-89441852D01*
X115034622Y-89441851D01*
X115039040Y-89436944D01*
X115134527Y-89271556D01*
X115193542Y-89089928D01*
X115194781Y-89078145D01*
X115212814Y-88906565D01*
X115213504Y-88900000D01*
X115210364Y-88870125D01*
X115194232Y-88716635D01*
X115194232Y-88716633D01*
X115193542Y-88710072D01*
X115134527Y-88528444D01*
X115039040Y-88363056D01*
X115016056Y-88337529D01*
X114915675Y-88226045D01*
X114915674Y-88226044D01*
X114911253Y-88221134D01*
X114756752Y-88108882D01*
X114750724Y-88106198D01*
X114750722Y-88106197D01*
X114588319Y-88033891D01*
X114588318Y-88033891D01*
X114582288Y-88031206D01*
X114461921Y-88005621D01*
X114401944Y-87992872D01*
X114401939Y-87992872D01*
X114395487Y-87991500D01*
X114204513Y-87991500D01*
X114198061Y-87992872D01*
X114198056Y-87992872D01*
X114138079Y-88005621D01*
X114017712Y-88031206D01*
X114011682Y-88033891D01*
X114011681Y-88033891D01*
X113849278Y-88106197D01*
X113849276Y-88106198D01*
X113843248Y-88108882D01*
X113688747Y-88221134D01*
X113684334Y-88226036D01*
X113684332Y-88226037D01*
X113667428Y-88244811D01*
X113606982Y-88282050D01*
X113573792Y-88286500D01*
X112996781Y-88286500D01*
X112928660Y-88266498D01*
X112889637Y-88226803D01*
X112883729Y-88217255D01*
X112808478Y-88095652D01*
X112683303Y-87970695D01*
X112532738Y-87877885D01*
X112479832Y-87860337D01*
X112421473Y-87819906D01*
X112394236Y-87754342D01*
X112393500Y-87740744D01*
X112393500Y-87062524D01*
X112413502Y-86994403D01*
X112425858Y-86978221D01*
X112499040Y-86896944D01*
X112578805Y-86758787D01*
X112591223Y-86737279D01*
X112591224Y-86737278D01*
X112594527Y-86731556D01*
X112653542Y-86549928D01*
X112673504Y-86360000D01*
X112653542Y-86170072D01*
X112594527Y-85988444D01*
X112499040Y-85823056D01*
X112409509Y-85723621D01*
X112375675Y-85686045D01*
X112375674Y-85686044D01*
X112371253Y-85681134D01*
X112272157Y-85609136D01*
X112222094Y-85572763D01*
X112222093Y-85572762D01*
X112216752Y-85568882D01*
X112210724Y-85566198D01*
X112210722Y-85566197D01*
X112048319Y-85493891D01*
X112048318Y-85493891D01*
X112042288Y-85491206D01*
X111948887Y-85471353D01*
X111861944Y-85452872D01*
X111861939Y-85452872D01*
X111855487Y-85451500D01*
X111664513Y-85451500D01*
X111658061Y-85452872D01*
X111658056Y-85452872D01*
X111571113Y-85471353D01*
X111477712Y-85491206D01*
X111471682Y-85493891D01*
X111471681Y-85493891D01*
X111309278Y-85566197D01*
X111309276Y-85566198D01*
X111303248Y-85568882D01*
X111297907Y-85572762D01*
X111297906Y-85572763D01*
X111247843Y-85609136D01*
X111148747Y-85681134D01*
X111144326Y-85686044D01*
X111144325Y-85686045D01*
X111110492Y-85723621D01*
X111020960Y-85823056D01*
X110925473Y-85988444D01*
X110866458Y-86170072D01*
X110846496Y-86360000D01*
X110866458Y-86549928D01*
X110925473Y-86731556D01*
X110928776Y-86737278D01*
X110928777Y-86737279D01*
X110941195Y-86758787D01*
X111020960Y-86896944D01*
X111094137Y-86978215D01*
X111124853Y-87042221D01*
X111126500Y-87062524D01*
X111126500Y-87740803D01*
X111106498Y-87808924D01*
X111052842Y-87855417D01*
X111040377Y-87860326D01*
X110992998Y-87876133D01*
X110992996Y-87876134D01*
X110986054Y-87878450D01*
X110835652Y-87971522D01*
X110710695Y-88096697D01*
X110706855Y-88102927D01*
X110706854Y-88102928D01*
X110633991Y-88221134D01*
X110617885Y-88247262D01*
X110562203Y-88415139D01*
X110561503Y-88421975D01*
X110561502Y-88421978D01*
X110560712Y-88429688D01*
X110551500Y-88519600D01*
X110551500Y-89031406D01*
X110531498Y-89099527D01*
X110477842Y-89146020D01*
X110407568Y-89156124D01*
X110342988Y-89126630D01*
X110336405Y-89120501D01*
X107350405Y-86134500D01*
X107316379Y-86072188D01*
X107313500Y-86045405D01*
X107313500Y-82677095D01*
X110552001Y-82677095D01*
X110552338Y-82683614D01*
X110562257Y-82779206D01*
X110565149Y-82792600D01*
X110616588Y-82946784D01*
X110622761Y-82959962D01*
X110708063Y-83097807D01*
X110717099Y-83109208D01*
X110831829Y-83223739D01*
X110843240Y-83232751D01*
X110981243Y-83317816D01*
X110994424Y-83323963D01*
X111148710Y-83375138D01*
X111162086Y-83378005D01*
X111256438Y-83387672D01*
X111262854Y-83388000D01*
X111487885Y-83388000D01*
X111503124Y-83383525D01*
X111504329Y-83382135D01*
X111506000Y-83374452D01*
X111506000Y-83369884D01*
X112014000Y-83369884D01*
X112018475Y-83385123D01*
X112019865Y-83386328D01*
X112027548Y-83387999D01*
X112257095Y-83387999D01*
X112263614Y-83387662D01*
X112359206Y-83377743D01*
X112372600Y-83374851D01*
X112526784Y-83323412D01*
X112539962Y-83317239D01*
X112677807Y-83231937D01*
X112689208Y-83222901D01*
X112803739Y-83108171D01*
X112812751Y-83096760D01*
X112897816Y-82958757D01*
X112903963Y-82945576D01*
X112955138Y-82791290D01*
X112958005Y-82777914D01*
X112967672Y-82683562D01*
X112968000Y-82677146D01*
X112968000Y-82552115D01*
X112963525Y-82536876D01*
X112962135Y-82535671D01*
X112954452Y-82534000D01*
X112032115Y-82534000D01*
X112016876Y-82538475D01*
X112015671Y-82539865D01*
X112014000Y-82547548D01*
X112014000Y-83369884D01*
X111506000Y-83369884D01*
X111506000Y-82552115D01*
X111501525Y-82536876D01*
X111500135Y-82535671D01*
X111492452Y-82534000D01*
X110570116Y-82534000D01*
X110554877Y-82538475D01*
X110553672Y-82539865D01*
X110552001Y-82547548D01*
X110552001Y-82677095D01*
X107313500Y-82677095D01*
X107313500Y-81594594D01*
X107333502Y-81526473D01*
X107350405Y-81505499D01*
X107905499Y-80950405D01*
X107967811Y-80916379D01*
X107994594Y-80913500D01*
X110523219Y-80913500D01*
X110591340Y-80933502D01*
X110630363Y-80973197D01*
X110711522Y-81104348D01*
X110716704Y-81109521D01*
X110798463Y-81191138D01*
X110832542Y-81253421D01*
X110827539Y-81324241D01*
X110798618Y-81369329D01*
X110716261Y-81451829D01*
X110707249Y-81463240D01*
X110622184Y-81601243D01*
X110616037Y-81614424D01*
X110564862Y-81768710D01*
X110561995Y-81782086D01*
X110552328Y-81876438D01*
X110552000Y-81882855D01*
X110552000Y-82007885D01*
X110556475Y-82023124D01*
X110557865Y-82024329D01*
X110565548Y-82026000D01*
X112949884Y-82026000D01*
X112965123Y-82021525D01*
X112966328Y-82020135D01*
X112967999Y-82012452D01*
X112967999Y-81882905D01*
X112967662Y-81876386D01*
X112957743Y-81780794D01*
X112954851Y-81767400D01*
X112903412Y-81613216D01*
X112897239Y-81600038D01*
X112811937Y-81462193D01*
X112802901Y-81450792D01*
X112721538Y-81369570D01*
X112687459Y-81307287D01*
X112692462Y-81236467D01*
X112721383Y-81191380D01*
X112804130Y-81108488D01*
X112804134Y-81108483D01*
X112809305Y-81103303D01*
X112821656Y-81083266D01*
X112898275Y-80958968D01*
X112898276Y-80958966D01*
X112902115Y-80952738D01*
X112939814Y-80839079D01*
X112955632Y-80791389D01*
X112955632Y-80791387D01*
X112957797Y-80784861D01*
X112961495Y-80748774D01*
X112963940Y-80724907D01*
X112968500Y-80680400D01*
X112968500Y-79879600D01*
X112968163Y-79876350D01*
X112958238Y-79780692D01*
X112958237Y-79780688D01*
X112957526Y-79773834D01*
X112937228Y-79712992D01*
X112903868Y-79613002D01*
X112901550Y-79606054D01*
X112808478Y-79455652D01*
X112683303Y-79330695D01*
X112677072Y-79326854D01*
X112628731Y-79297056D01*
X112581237Y-79244283D01*
X112569814Y-79174212D01*
X112585727Y-79126798D01*
X112594527Y-79111556D01*
X112653542Y-78929928D01*
X112664474Y-78825919D01*
X123504501Y-78825919D01*
X123504871Y-78832740D01*
X123510395Y-78883602D01*
X123514021Y-78898854D01*
X123559176Y-79019304D01*
X123567714Y-79034899D01*
X123644215Y-79136974D01*
X123656776Y-79149535D01*
X123758851Y-79226036D01*
X123774446Y-79234574D01*
X123894894Y-79279728D01*
X123910149Y-79283355D01*
X123961014Y-79288881D01*
X123967828Y-79289250D01*
X125240385Y-79289250D01*
X125255624Y-79284775D01*
X125256829Y-79283385D01*
X125258500Y-79275702D01*
X125258500Y-79271134D01*
X125766500Y-79271134D01*
X125770975Y-79286373D01*
X125772365Y-79287578D01*
X125780048Y-79289249D01*
X127057169Y-79289249D01*
X127063990Y-79288879D01*
X127114852Y-79283355D01*
X127130104Y-79279729D01*
X127250554Y-79234574D01*
X127266149Y-79226036D01*
X127368224Y-79149535D01*
X127380785Y-79136974D01*
X127457286Y-79034899D01*
X127465824Y-79019304D01*
X127510978Y-78898856D01*
X127514605Y-78883601D01*
X127520131Y-78832736D01*
X127520500Y-78825922D01*
X127520500Y-77553365D01*
X127516025Y-77538126D01*
X127514635Y-77536921D01*
X127506952Y-77535250D01*
X125784615Y-77535250D01*
X125769376Y-77539725D01*
X125768171Y-77541115D01*
X125766500Y-77548798D01*
X125766500Y-79271134D01*
X125258500Y-79271134D01*
X125258500Y-77553365D01*
X125254025Y-77538126D01*
X125252635Y-77536921D01*
X125244952Y-77535250D01*
X123522616Y-77535250D01*
X123507377Y-77539725D01*
X123506172Y-77541115D01*
X123504501Y-77548798D01*
X123504501Y-78825919D01*
X112664474Y-78825919D01*
X112673504Y-78740000D01*
X112653542Y-78550072D01*
X112594527Y-78368444D01*
X112499040Y-78203056D01*
X112427030Y-78123080D01*
X112375675Y-78066045D01*
X112375674Y-78066044D01*
X112371253Y-78061134D01*
X112216752Y-77948882D01*
X112210724Y-77946198D01*
X112210722Y-77946197D01*
X112048319Y-77873891D01*
X112048318Y-77873891D01*
X112042288Y-77871206D01*
X111948888Y-77851353D01*
X111861944Y-77832872D01*
X111861939Y-77832872D01*
X111855487Y-77831500D01*
X111664513Y-77831500D01*
X111658061Y-77832872D01*
X111658056Y-77832872D01*
X111571112Y-77851353D01*
X111477712Y-77871206D01*
X111471682Y-77873891D01*
X111471681Y-77873891D01*
X111309278Y-77946197D01*
X111309276Y-77946198D01*
X111303248Y-77948882D01*
X111148747Y-78061134D01*
X111144326Y-78066044D01*
X111144325Y-78066045D01*
X111092971Y-78123080D01*
X111020960Y-78203056D01*
X110925473Y-78368444D01*
X110866458Y-78550072D01*
X110846496Y-78740000D01*
X110866458Y-78929928D01*
X110925473Y-79111556D01*
X110934292Y-79126832D01*
X110951031Y-79195825D01*
X110927812Y-79262917D01*
X110891479Y-79296975D01*
X110835652Y-79331522D01*
X110710695Y-79456697D01*
X110706855Y-79462927D01*
X110706854Y-79462928D01*
X110630611Y-79586616D01*
X110577838Y-79634110D01*
X110523351Y-79646500D01*
X107758768Y-79646500D01*
X107747585Y-79645973D01*
X107740092Y-79644298D01*
X107732166Y-79644547D01*
X107732165Y-79644547D01*
X107672002Y-79646438D01*
X107668044Y-79646500D01*
X107640144Y-79646500D01*
X107636154Y-79647004D01*
X107624320Y-79647936D01*
X107580111Y-79649326D01*
X107572495Y-79651539D01*
X107572493Y-79651539D01*
X107560652Y-79654979D01*
X107541293Y-79658988D01*
X107539983Y-79659154D01*
X107521203Y-79661526D01*
X107513837Y-79664442D01*
X107513831Y-79664444D01*
X107480098Y-79677800D01*
X107468868Y-79681645D01*
X107434017Y-79691770D01*
X107426407Y-79693981D01*
X107419584Y-79698016D01*
X107408966Y-79704295D01*
X107391213Y-79712992D01*
X107383568Y-79716019D01*
X107372383Y-79720448D01*
X107365968Y-79725109D01*
X107336612Y-79746437D01*
X107326695Y-79752951D01*
X107288638Y-79775458D01*
X107274317Y-79789779D01*
X107259284Y-79802619D01*
X107242893Y-79814528D01*
X107237843Y-79820632D01*
X107237838Y-79820637D01*
X107214707Y-79848598D01*
X107206717Y-79857379D01*
X106287742Y-80776353D01*
X106279463Y-80783887D01*
X106272982Y-80788000D01*
X106226357Y-80837651D01*
X106223602Y-80840493D01*
X106203865Y-80860230D01*
X106201385Y-80863427D01*
X106193682Y-80872447D01*
X106163414Y-80904679D01*
X106159595Y-80911625D01*
X106159593Y-80911628D01*
X106153652Y-80922434D01*
X106142801Y-80938953D01*
X106130386Y-80954959D01*
X106127241Y-80962228D01*
X106127238Y-80962232D01*
X106112826Y-80995537D01*
X106107609Y-81006187D01*
X106086305Y-81044940D01*
X106084334Y-81052615D01*
X106084334Y-81052616D01*
X106081267Y-81064562D01*
X106074863Y-81083266D01*
X106066819Y-81101855D01*
X106065580Y-81109678D01*
X106065577Y-81109688D01*
X106059901Y-81145524D01*
X106057495Y-81157144D01*
X106046500Y-81199970D01*
X106046500Y-81220224D01*
X106044949Y-81239934D01*
X106041780Y-81259943D01*
X102108500Y-81259943D01*
X102108500Y-77009135D01*
X123504500Y-77009135D01*
X123508975Y-77024374D01*
X123510365Y-77025579D01*
X123518048Y-77027250D01*
X125240385Y-77027250D01*
X125255624Y-77022775D01*
X125256829Y-77021385D01*
X125258500Y-77013702D01*
X125258500Y-77009135D01*
X125766500Y-77009135D01*
X125770975Y-77024374D01*
X125772365Y-77025579D01*
X125780048Y-77027250D01*
X127502384Y-77027250D01*
X127517623Y-77022775D01*
X127518828Y-77021385D01*
X127520499Y-77013702D01*
X127520499Y-75736581D01*
X127520129Y-75729760D01*
X127514605Y-75678898D01*
X127510979Y-75663646D01*
X127465824Y-75543196D01*
X127457286Y-75527601D01*
X127380785Y-75425526D01*
X127368224Y-75412965D01*
X127266149Y-75336464D01*
X127250554Y-75327926D01*
X127130106Y-75282772D01*
X127114851Y-75279145D01*
X127063986Y-75273619D01*
X127057172Y-75273250D01*
X125784615Y-75273250D01*
X125769376Y-75277725D01*
X125768171Y-75279115D01*
X125766500Y-75286798D01*
X125766500Y-77009135D01*
X125258500Y-77009135D01*
X125258500Y-75291366D01*
X125254025Y-75276127D01*
X125252635Y-75274922D01*
X125244952Y-75273251D01*
X123967831Y-75273251D01*
X123961010Y-75273621D01*
X123910148Y-75279145D01*
X123894896Y-75282771D01*
X123774446Y-75327926D01*
X123758851Y-75336464D01*
X123656776Y-75412965D01*
X123644215Y-75425526D01*
X123567714Y-75527601D01*
X123559176Y-75543196D01*
X123514022Y-75663644D01*
X123510395Y-75678899D01*
X123504869Y-75729764D01*
X123504500Y-75736578D01*
X123504500Y-77009135D01*
X102108500Y-77009135D01*
X102108500Y-71754500D01*
X102128502Y-71686379D01*
X102182158Y-71639886D01*
X102234500Y-71628500D01*
X151765500Y-71628500D01*
X151833621Y-71648502D01*
G37*
%TD.AperFunction*%
%TA.AperFunction,Conductor*%
G36*
X121964032Y-89856038D02*
G01*
X122009095Y-89884999D01*
X122715501Y-90591405D01*
X122749527Y-90653717D01*
X122744462Y-90724532D01*
X122701915Y-90781368D01*
X122635395Y-90806179D01*
X122626406Y-90806500D01*
X121998767Y-90806500D01*
X121987584Y-90805973D01*
X121980091Y-90804298D01*
X121972165Y-90804547D01*
X121972164Y-90804547D01*
X121912001Y-90806438D01*
X121908043Y-90806500D01*
X121880144Y-90806500D01*
X121876154Y-90807004D01*
X121864320Y-90807936D01*
X121820111Y-90809326D01*
X121812497Y-90811538D01*
X121812492Y-90811539D01*
X121800659Y-90814977D01*
X121781296Y-90818988D01*
X121761203Y-90821526D01*
X121753836Y-90824443D01*
X121753831Y-90824444D01*
X121720092Y-90837802D01*
X121708865Y-90841646D01*
X121666407Y-90853982D01*
X121659581Y-90858019D01*
X121648972Y-90864293D01*
X121631224Y-90872988D01*
X121612383Y-90880448D01*
X121605967Y-90885110D01*
X121605966Y-90885110D01*
X121576613Y-90906436D01*
X121566693Y-90912952D01*
X121535465Y-90931420D01*
X121535462Y-90931422D01*
X121528638Y-90935458D01*
X121514317Y-90949779D01*
X121499284Y-90962619D01*
X121482893Y-90974528D01*
X121457734Y-91004940D01*
X121454712Y-91008593D01*
X121446722Y-91017374D01*
X120802742Y-91661353D01*
X120794463Y-91668887D01*
X120787982Y-91673000D01*
X120762793Y-91699824D01*
X120741357Y-91722651D01*
X120738602Y-91725493D01*
X120718865Y-91745230D01*
X120716385Y-91748427D01*
X120708682Y-91757447D01*
X120678414Y-91789679D01*
X120674595Y-91796625D01*
X120674593Y-91796628D01*
X120668652Y-91807434D01*
X120657801Y-91823953D01*
X120645386Y-91839959D01*
X120642241Y-91847228D01*
X120642238Y-91847232D01*
X120627826Y-91880537D01*
X120622609Y-91891187D01*
X120601305Y-91929940D01*
X120599334Y-91937615D01*
X120599334Y-91937616D01*
X120596267Y-91949562D01*
X120589863Y-91968266D01*
X120585541Y-91978255D01*
X120581819Y-91986855D01*
X120580580Y-91994678D01*
X120580577Y-91994688D01*
X120574901Y-92030524D01*
X120572495Y-92042144D01*
X120561500Y-92084970D01*
X120561500Y-92105224D01*
X120559949Y-92124934D01*
X120556780Y-92144943D01*
X120557526Y-92152835D01*
X120560941Y-92188961D01*
X120561500Y-92200819D01*
X120561500Y-98256233D01*
X120560973Y-98267416D01*
X120559298Y-98274909D01*
X120559547Y-98282835D01*
X120559547Y-98282836D01*
X120561438Y-98342986D01*
X120561500Y-98346945D01*
X120561500Y-98374856D01*
X120561997Y-98378790D01*
X120561997Y-98378791D01*
X120562005Y-98378856D01*
X120562938Y-98390693D01*
X120564327Y-98434889D01*
X120568745Y-98450096D01*
X120569978Y-98454339D01*
X120573987Y-98473700D01*
X120576526Y-98493797D01*
X120579445Y-98501168D01*
X120579445Y-98501170D01*
X120592804Y-98534912D01*
X120596649Y-98546142D01*
X120608982Y-98588593D01*
X120613015Y-98595412D01*
X120613017Y-98595417D01*
X120619293Y-98606028D01*
X120627988Y-98623776D01*
X120635448Y-98642617D01*
X120640110Y-98649033D01*
X120640110Y-98649034D01*
X120661436Y-98678387D01*
X120667952Y-98688307D01*
X120690458Y-98726362D01*
X120704779Y-98740683D01*
X120717619Y-98755716D01*
X120729528Y-98772107D01*
X120761413Y-98798484D01*
X120763593Y-98800288D01*
X120772374Y-98808278D01*
X121416353Y-99452258D01*
X121423887Y-99460537D01*
X121428000Y-99467018D01*
X121477651Y-99513643D01*
X121480493Y-99516398D01*
X121500230Y-99536135D01*
X121503427Y-99538615D01*
X121512447Y-99546318D01*
X121544679Y-99576586D01*
X121551625Y-99580405D01*
X121551628Y-99580407D01*
X121562434Y-99586348D01*
X121578953Y-99597199D01*
X121594959Y-99609614D01*
X121602228Y-99612759D01*
X121602232Y-99612762D01*
X121635537Y-99627174D01*
X121646187Y-99632391D01*
X121684940Y-99653695D01*
X121692615Y-99655666D01*
X121692616Y-99655666D01*
X121704562Y-99658733D01*
X121723267Y-99665137D01*
X121741855Y-99673181D01*
X121749678Y-99674420D01*
X121749688Y-99674423D01*
X121785524Y-99680099D01*
X121797144Y-99682505D01*
X121832289Y-99691528D01*
X121839970Y-99693500D01*
X121860224Y-99693500D01*
X121879934Y-99695051D01*
X121899943Y-99698220D01*
X121907835Y-99697474D01*
X121943961Y-99694059D01*
X121955819Y-99693500D01*
X123751800Y-99693500D01*
X123819921Y-99713502D01*
X123839147Y-99729843D01*
X123839420Y-99729540D01*
X123844332Y-99733963D01*
X123848747Y-99738866D01*
X124003248Y-99851118D01*
X124009276Y-99853802D01*
X124009278Y-99853803D01*
X124171681Y-99926109D01*
X124177712Y-99928794D01*
X124271112Y-99948647D01*
X124358056Y-99967128D01*
X124358061Y-99967128D01*
X124364513Y-99968500D01*
X124555487Y-99968500D01*
X124561939Y-99967128D01*
X124561944Y-99967128D01*
X124648888Y-99948647D01*
X124742288Y-99928794D01*
X124748319Y-99926109D01*
X124910722Y-99853803D01*
X124910724Y-99853802D01*
X124916752Y-99851118D01*
X125071253Y-99738866D01*
X125107851Y-99698220D01*
X125194621Y-99601852D01*
X125194622Y-99601851D01*
X125199040Y-99596944D01*
X125294527Y-99431556D01*
X125353542Y-99249928D01*
X125357092Y-99216157D01*
X125372814Y-99066565D01*
X125373504Y-99060000D01*
X125359624Y-98927938D01*
X125354232Y-98876635D01*
X125354232Y-98876633D01*
X125353542Y-98870072D01*
X125294527Y-98688444D01*
X125291168Y-98682625D01*
X125232484Y-98580983D01*
X125199040Y-98523056D01*
X125126505Y-98442497D01*
X125075675Y-98386045D01*
X125075674Y-98386044D01*
X125071253Y-98381134D01*
X124935958Y-98282836D01*
X124922094Y-98272763D01*
X124922093Y-98272762D01*
X124916752Y-98268882D01*
X124910724Y-98266198D01*
X124910722Y-98266197D01*
X124748319Y-98193891D01*
X124748318Y-98193891D01*
X124742288Y-98191206D01*
X124648888Y-98171353D01*
X124561944Y-98152872D01*
X124561939Y-98152872D01*
X124555487Y-98151500D01*
X124364513Y-98151500D01*
X124358061Y-98152872D01*
X124358056Y-98152872D01*
X124271112Y-98171353D01*
X124177712Y-98191206D01*
X124171682Y-98193891D01*
X124171681Y-98193891D01*
X124009278Y-98266197D01*
X124009276Y-98266198D01*
X124003248Y-98268882D01*
X123997907Y-98272762D01*
X123997906Y-98272763D01*
X123984042Y-98282836D01*
X123848747Y-98381134D01*
X123844332Y-98386037D01*
X123839420Y-98390460D01*
X123838295Y-98389211D01*
X123784986Y-98422051D01*
X123751800Y-98426500D01*
X122234595Y-98426500D01*
X122166474Y-98406498D01*
X122145499Y-98389595D01*
X121865404Y-98109499D01*
X121831379Y-98047187D01*
X121828500Y-98020404D01*
X121828500Y-96150871D01*
X125588456Y-96150871D01*
X125629107Y-96290790D01*
X125635352Y-96305221D01*
X125711911Y-96434678D01*
X125721551Y-96447104D01*
X125827896Y-96553449D01*
X125840322Y-96563089D01*
X125969779Y-96639648D01*
X125984210Y-96645893D01*
X126130065Y-96688269D01*
X126142667Y-96690570D01*
X126171084Y-96692807D01*
X126176014Y-96693000D01*
X126792885Y-96693000D01*
X126808124Y-96688525D01*
X126809329Y-96687135D01*
X126811000Y-96679452D01*
X126811000Y-96157115D01*
X126806525Y-96141876D01*
X126805135Y-96140671D01*
X126797452Y-96139000D01*
X125603122Y-96139000D01*
X125589591Y-96142973D01*
X125588456Y-96150871D01*
X121828500Y-96150871D01*
X121828500Y-95014500D01*
X121848502Y-94946379D01*
X121902158Y-94899886D01*
X121954500Y-94888500D01*
X122015487Y-94888500D01*
X122021939Y-94887128D01*
X122021944Y-94887128D01*
X122138178Y-94862421D01*
X122202288Y-94848794D01*
X122235516Y-94834000D01*
X122370722Y-94773803D01*
X122370724Y-94773802D01*
X122376752Y-94771118D01*
X122531253Y-94658866D01*
X122535668Y-94653963D01*
X122540580Y-94649540D01*
X122541705Y-94650789D01*
X122595014Y-94617949D01*
X122628200Y-94613500D01*
X123751800Y-94613500D01*
X123819921Y-94633502D01*
X123839147Y-94649843D01*
X123839420Y-94649540D01*
X123844332Y-94653963D01*
X123848747Y-94658866D01*
X124003248Y-94771118D01*
X124009276Y-94773802D01*
X124009278Y-94773803D01*
X124144484Y-94834000D01*
X124177712Y-94848794D01*
X124241822Y-94862421D01*
X124358056Y-94887128D01*
X124358061Y-94887128D01*
X124364513Y-94888500D01*
X124555487Y-94888500D01*
X124561939Y-94887128D01*
X124561944Y-94887128D01*
X124678178Y-94862421D01*
X124742288Y-94848794D01*
X124775516Y-94834000D01*
X124910722Y-94773803D01*
X124910724Y-94773802D01*
X124916752Y-94771118D01*
X125071253Y-94658866D01*
X125075668Y-94653963D01*
X125080580Y-94649540D01*
X125081705Y-94650789D01*
X125135014Y-94617949D01*
X125168200Y-94613500D01*
X125455500Y-94613500D01*
X125523621Y-94633502D01*
X125570114Y-94687158D01*
X125581500Y-94739500D01*
X125581500Y-94831502D01*
X125581693Y-94833950D01*
X125581693Y-94833958D01*
X125582650Y-94846109D01*
X125584438Y-94868831D01*
X125606968Y-94946379D01*
X125620222Y-94992000D01*
X125630855Y-95028601D01*
X125715547Y-95171807D01*
X125718487Y-95174747D01*
X125743820Y-95239266D01*
X125729921Y-95308889D01*
X125717874Y-95327636D01*
X125711910Y-95335324D01*
X125635352Y-95464779D01*
X125629107Y-95479210D01*
X125590061Y-95613605D01*
X125590101Y-95627706D01*
X125597370Y-95631000D01*
X127193000Y-95631000D01*
X127261121Y-95651002D01*
X127307614Y-95704658D01*
X127319000Y-95757000D01*
X127319000Y-96674884D01*
X127323475Y-96690123D01*
X127324865Y-96691328D01*
X127332548Y-96692999D01*
X127953984Y-96692999D01*
X127958920Y-96692805D01*
X127987336Y-96690570D01*
X127999931Y-96688270D01*
X128145790Y-96645893D01*
X128160221Y-96639648D01*
X128289678Y-96563089D01*
X128302104Y-96553449D01*
X128408449Y-96447104D01*
X128418089Y-96434678D01*
X128494648Y-96305221D01*
X128500893Y-96290790D01*
X128543269Y-96144935D01*
X128545570Y-96132333D01*
X128547751Y-96104616D01*
X128573035Y-96038275D01*
X128630172Y-95996134D01*
X128673363Y-95988500D01*
X130406133Y-95988500D01*
X130474254Y-96008502D01*
X130520747Y-96062158D01*
X130531745Y-96104614D01*
X130533927Y-96132333D01*
X130534438Y-96138831D01*
X130563472Y-96238769D01*
X130578586Y-96290790D01*
X130580855Y-96298601D01*
X130584892Y-96305427D01*
X130661509Y-96434980D01*
X130661511Y-96434983D01*
X130665547Y-96441807D01*
X130783193Y-96559453D01*
X130790017Y-96563489D01*
X130790020Y-96563491D01*
X130881673Y-96617694D01*
X130926399Y-96644145D01*
X130934010Y-96646356D01*
X130934012Y-96646357D01*
X130986231Y-96661528D01*
X131086169Y-96690562D01*
X131092574Y-96691066D01*
X131092579Y-96691067D01*
X131121042Y-96693307D01*
X131121050Y-96693307D01*
X131123498Y-96693500D01*
X131255500Y-96693500D01*
X131323621Y-96713502D01*
X131370114Y-96767158D01*
X131381500Y-96819500D01*
X131381500Y-98397906D01*
X131361498Y-98466027D01*
X131344595Y-98487001D01*
X127862000Y-101969595D01*
X127799688Y-102003621D01*
X127772905Y-102006500D01*
X127099600Y-102006500D01*
X127096354Y-102006837D01*
X127096350Y-102006837D01*
X127000692Y-102016762D01*
X127000688Y-102016763D01*
X126993834Y-102017474D01*
X126987298Y-102019655D01*
X126987296Y-102019655D01*
X126858803Y-102062524D01*
X126818927Y-102069000D01*
X120863390Y-102069000D01*
X120795269Y-102048998D01*
X120748776Y-101995342D01*
X120743867Y-101982877D01*
X120698870Y-101848007D01*
X120698869Y-101848005D01*
X120696550Y-101841054D01*
X120603478Y-101690652D01*
X120478303Y-101565695D01*
X120472072Y-101561854D01*
X120333968Y-101476725D01*
X120333966Y-101476724D01*
X120327738Y-101472885D01*
X120299830Y-101463628D01*
X120241472Y-101423197D01*
X120214236Y-101357633D01*
X120213500Y-101344036D01*
X120213500Y-91554594D01*
X120233502Y-91486473D01*
X120250405Y-91465499D01*
X121830905Y-89884999D01*
X121893217Y-89850973D01*
X121964032Y-89856038D01*
G37*
%TD.AperFunction*%
%TA.AperFunction,Conductor*%
G36*
X133928621Y-77934752D02*
G01*
X133975114Y-77988408D01*
X133986500Y-78040750D01*
X133986500Y-85228733D01*
X133985973Y-85239916D01*
X133984298Y-85247409D01*
X133984547Y-85255335D01*
X133984547Y-85255336D01*
X133986438Y-85315486D01*
X133986500Y-85319445D01*
X133986500Y-85347356D01*
X133986997Y-85351290D01*
X133986997Y-85351291D01*
X133987005Y-85351356D01*
X133987938Y-85363193D01*
X133989327Y-85407389D01*
X133994978Y-85426839D01*
X133998987Y-85446200D01*
X134000506Y-85458220D01*
X134001526Y-85466297D01*
X134004445Y-85473668D01*
X134004445Y-85473670D01*
X134017804Y-85507412D01*
X134021649Y-85518642D01*
X134033982Y-85561093D01*
X134038015Y-85567912D01*
X134038017Y-85567917D01*
X134044293Y-85578528D01*
X134052988Y-85596276D01*
X134060448Y-85615117D01*
X134065110Y-85621533D01*
X134065110Y-85621534D01*
X134086436Y-85650887D01*
X134092952Y-85660807D01*
X134110310Y-85690157D01*
X134115458Y-85698862D01*
X134129779Y-85713183D01*
X134142619Y-85728216D01*
X134154528Y-85744607D01*
X134160634Y-85749658D01*
X134188605Y-85772798D01*
X134197384Y-85780788D01*
X139008001Y-90591405D01*
X139042027Y-90653717D01*
X139036962Y-90724532D01*
X138994415Y-90781368D01*
X138927895Y-90806179D01*
X138918906Y-90806500D01*
X137868200Y-90806500D01*
X137800079Y-90786498D01*
X137780853Y-90770157D01*
X137780580Y-90770460D01*
X137775668Y-90766037D01*
X137771253Y-90761134D01*
X137616752Y-90648882D01*
X137610724Y-90646198D01*
X137610722Y-90646197D01*
X137448319Y-90573891D01*
X137448318Y-90573891D01*
X137442288Y-90571206D01*
X137348887Y-90551353D01*
X137261944Y-90532872D01*
X137261939Y-90532872D01*
X137255487Y-90531500D01*
X137064513Y-90531500D01*
X137058061Y-90532872D01*
X137058056Y-90532872D01*
X136971113Y-90551353D01*
X136877712Y-90571206D01*
X136871682Y-90573891D01*
X136871681Y-90573891D01*
X136709278Y-90646197D01*
X136709276Y-90646198D01*
X136703248Y-90648882D01*
X136548747Y-90761134D01*
X136544326Y-90766044D01*
X136544325Y-90766045D01*
X136437119Y-90885110D01*
X136420960Y-90903056D01*
X136373640Y-90985016D01*
X136340010Y-91043266D01*
X136325473Y-91068444D01*
X136266458Y-91250072D01*
X136265768Y-91256633D01*
X136265768Y-91256635D01*
X136257169Y-91338450D01*
X136246496Y-91440000D01*
X136266458Y-91629928D01*
X136325473Y-91811556D01*
X136328776Y-91817278D01*
X136328777Y-91817279D01*
X136346071Y-91847232D01*
X136420960Y-91976944D01*
X136425378Y-91981851D01*
X136425379Y-91981852D01*
X136540350Y-92109540D01*
X136548747Y-92118866D01*
X136645224Y-92188961D01*
X136689453Y-92221095D01*
X136703248Y-92231118D01*
X136709276Y-92233802D01*
X136709278Y-92233803D01*
X136757656Y-92255342D01*
X136877712Y-92308794D01*
X136971112Y-92328647D01*
X137058056Y-92347128D01*
X137058061Y-92347128D01*
X137064513Y-92348500D01*
X137255487Y-92348500D01*
X137261939Y-92347128D01*
X137261944Y-92347128D01*
X137348888Y-92328647D01*
X137442288Y-92308794D01*
X137562344Y-92255342D01*
X137610722Y-92233803D01*
X137610724Y-92233802D01*
X137616752Y-92231118D01*
X137630548Y-92221095D01*
X137762900Y-92124935D01*
X137771253Y-92118866D01*
X137775668Y-92113963D01*
X137780580Y-92109540D01*
X137781705Y-92110789D01*
X137835014Y-92077949D01*
X137868200Y-92073500D01*
X138891711Y-92073500D01*
X138959832Y-92093502D01*
X139006325Y-92147158D01*
X139016429Y-92217432D01*
X138986935Y-92282012D01*
X138980806Y-92288595D01*
X137242997Y-94026403D01*
X137180685Y-94060429D01*
X137109869Y-94055364D01*
X137064807Y-94026403D01*
X136487179Y-93448774D01*
X135901152Y-92862747D01*
X135893612Y-92854461D01*
X135889500Y-92847982D01*
X135839848Y-92801356D01*
X135837007Y-92798602D01*
X135817270Y-92778865D01*
X135814073Y-92776385D01*
X135805051Y-92768680D01*
X135778600Y-92743841D01*
X135772821Y-92738414D01*
X135765875Y-92734595D01*
X135765872Y-92734593D01*
X135755066Y-92728652D01*
X135738547Y-92717801D01*
X135738083Y-92717441D01*
X135722541Y-92705386D01*
X135715272Y-92702241D01*
X135715268Y-92702238D01*
X135681963Y-92687826D01*
X135671313Y-92682609D01*
X135632560Y-92661305D01*
X135612937Y-92656267D01*
X135594234Y-92649863D01*
X135582920Y-92644967D01*
X135582919Y-92644967D01*
X135575645Y-92641819D01*
X135567822Y-92640580D01*
X135567812Y-92640577D01*
X135531976Y-92634901D01*
X135520356Y-92632495D01*
X135485211Y-92623472D01*
X135485210Y-92623472D01*
X135477530Y-92621500D01*
X135457276Y-92621500D01*
X135437565Y-92619949D01*
X135425386Y-92618020D01*
X135417557Y-92616780D01*
X135409665Y-92617526D01*
X135373539Y-92620941D01*
X135361681Y-92621500D01*
X133577830Y-92621500D01*
X133509709Y-92601498D01*
X133463216Y-92547842D01*
X133453112Y-92477568D01*
X133456833Y-92460347D01*
X133489939Y-92346396D01*
X133489899Y-92332294D01*
X133482630Y-92329000D01*
X131887000Y-92329000D01*
X131818879Y-92308998D01*
X131772386Y-92255342D01*
X131761000Y-92203000D01*
X131761000Y-91802885D01*
X132269000Y-91802885D01*
X132273475Y-91818124D01*
X132274865Y-91819329D01*
X132282548Y-91821000D01*
X133476878Y-91821000D01*
X133490409Y-91817027D01*
X133491544Y-91809129D01*
X133450893Y-91669210D01*
X133444648Y-91654779D01*
X133368089Y-91525322D01*
X133358449Y-91512896D01*
X133252104Y-91406551D01*
X133239678Y-91396911D01*
X133110221Y-91320352D01*
X133095790Y-91314107D01*
X132949935Y-91271731D01*
X132937333Y-91269430D01*
X132908916Y-91267193D01*
X132903986Y-91267000D01*
X132287115Y-91267000D01*
X132271876Y-91271475D01*
X132270671Y-91272865D01*
X132269000Y-91280548D01*
X132269000Y-91802885D01*
X131761000Y-91802885D01*
X131761000Y-91285116D01*
X131756525Y-91269877D01*
X131755135Y-91268672D01*
X131747452Y-91267001D01*
X131126017Y-91267001D01*
X131121080Y-91267195D01*
X131092664Y-91269430D01*
X131080069Y-91271730D01*
X130934210Y-91314107D01*
X130919779Y-91320352D01*
X130790322Y-91396911D01*
X130777896Y-91406551D01*
X130671551Y-91512896D01*
X130661911Y-91525322D01*
X130585352Y-91654779D01*
X130579107Y-91669210D01*
X130536731Y-91815065D01*
X130534430Y-91827667D01*
X130532249Y-91855384D01*
X130506965Y-91921725D01*
X130449828Y-91963866D01*
X130406637Y-91971500D01*
X128673867Y-91971500D01*
X128605746Y-91951498D01*
X128559253Y-91897842D01*
X128548255Y-91855386D01*
X128546067Y-91827579D01*
X128546066Y-91827574D01*
X128545562Y-91821169D01*
X128504195Y-91678781D01*
X128501357Y-91669012D01*
X128501356Y-91669010D01*
X128499145Y-91661399D01*
X128476652Y-91623365D01*
X128418491Y-91525020D01*
X128418489Y-91525017D01*
X128414453Y-91518193D01*
X128296807Y-91400547D01*
X128289983Y-91396511D01*
X128289980Y-91396509D01*
X128182411Y-91332893D01*
X128153601Y-91315855D01*
X128145990Y-91313644D01*
X128145988Y-91313643D01*
X128093769Y-91298472D01*
X127993831Y-91269438D01*
X127987426Y-91268934D01*
X127987421Y-91268933D01*
X127958958Y-91266693D01*
X127958950Y-91266693D01*
X127956502Y-91266500D01*
X127824500Y-91266500D01*
X127756379Y-91246498D01*
X127709886Y-91192842D01*
X127698500Y-91140500D01*
X127698500Y-89530335D01*
X127718502Y-89462214D01*
X127730865Y-89446023D01*
X127739040Y-89436944D01*
X127762874Y-89395663D01*
X127831223Y-89277279D01*
X127831224Y-89277278D01*
X127834527Y-89271556D01*
X127893542Y-89089928D01*
X127894781Y-89078145D01*
X127912814Y-88906565D01*
X127913504Y-88900000D01*
X127910364Y-88870125D01*
X127894232Y-88716635D01*
X127894232Y-88716633D01*
X127893542Y-88710072D01*
X127834527Y-88528444D01*
X127739040Y-88363056D01*
X127716056Y-88337529D01*
X127615675Y-88226045D01*
X127615674Y-88226044D01*
X127611253Y-88221134D01*
X127456752Y-88108882D01*
X127450724Y-88106198D01*
X127450722Y-88106197D01*
X127288319Y-88033891D01*
X127288318Y-88033891D01*
X127282288Y-88031206D01*
X127161921Y-88005621D01*
X127101944Y-87992872D01*
X127101939Y-87992872D01*
X127095487Y-87991500D01*
X126904513Y-87991500D01*
X126898061Y-87992872D01*
X126898056Y-87992872D01*
X126838079Y-88005621D01*
X126717712Y-88031206D01*
X126711682Y-88033891D01*
X126711681Y-88033891D01*
X126549278Y-88106197D01*
X126549276Y-88106198D01*
X126543248Y-88108882D01*
X126388747Y-88221134D01*
X126384326Y-88226044D01*
X126384325Y-88226045D01*
X126283945Y-88337529D01*
X126260960Y-88363056D01*
X126165473Y-88528444D01*
X126106458Y-88710072D01*
X126105768Y-88716633D01*
X126105768Y-88716635D01*
X126089636Y-88870125D01*
X126086496Y-88900000D01*
X126087186Y-88906565D01*
X126105220Y-89078145D01*
X126106458Y-89089928D01*
X126165473Y-89271556D01*
X126260960Y-89436944D01*
X126388747Y-89578866D01*
X126390643Y-89580243D01*
X126427051Y-89639345D01*
X126431500Y-89672531D01*
X126431500Y-90241405D01*
X126411498Y-90309526D01*
X126357842Y-90356019D01*
X126287568Y-90366123D01*
X126222988Y-90336629D01*
X126216405Y-90330500D01*
X125312723Y-89426818D01*
X125278697Y-89364506D01*
X125283762Y-89293691D01*
X125288633Y-89283352D01*
X125288539Y-89283310D01*
X125291228Y-89277271D01*
X125294527Y-89271556D01*
X125353542Y-89089928D01*
X125354781Y-89078145D01*
X125372814Y-88906565D01*
X125373504Y-88900000D01*
X125370364Y-88870125D01*
X125354232Y-88716635D01*
X125354232Y-88716633D01*
X125353542Y-88710072D01*
X125294527Y-88528444D01*
X125199040Y-88363056D01*
X125176056Y-88337529D01*
X125075675Y-88226045D01*
X125075674Y-88226044D01*
X125071253Y-88221134D01*
X124916752Y-88108882D01*
X124910724Y-88106198D01*
X124910722Y-88106197D01*
X124748319Y-88033891D01*
X124748318Y-88033891D01*
X124742288Y-88031206D01*
X124621918Y-88005620D01*
X124559446Y-87971893D01*
X124525124Y-87909743D01*
X124529852Y-87838904D01*
X124559021Y-87793279D01*
X125321895Y-87030405D01*
X125384207Y-86996379D01*
X125410990Y-86993500D01*
X128831800Y-86993500D01*
X128899921Y-87013502D01*
X128919147Y-87029843D01*
X128919420Y-87029540D01*
X128924332Y-87033963D01*
X128928747Y-87038866D01*
X129083248Y-87151118D01*
X129089276Y-87153802D01*
X129089278Y-87153803D01*
X129251681Y-87226109D01*
X129257712Y-87228794D01*
X129351113Y-87248647D01*
X129438056Y-87267128D01*
X129438061Y-87267128D01*
X129444513Y-87268500D01*
X129635487Y-87268500D01*
X129641939Y-87267128D01*
X129641944Y-87267128D01*
X129728888Y-87248647D01*
X129822288Y-87228794D01*
X129828319Y-87226109D01*
X129990722Y-87153803D01*
X129990724Y-87153802D01*
X129996752Y-87151118D01*
X130151253Y-87038866D01*
X130188095Y-86997949D01*
X130274621Y-86901852D01*
X130274625Y-86901847D01*
X130279040Y-86896944D01*
X130358805Y-86758787D01*
X130371223Y-86737279D01*
X130371224Y-86737278D01*
X130374527Y-86731556D01*
X130433542Y-86549928D01*
X130453504Y-86360000D01*
X130433542Y-86170072D01*
X130374527Y-85988444D01*
X130279040Y-85823056D01*
X130189509Y-85723621D01*
X130155675Y-85686045D01*
X130155674Y-85686044D01*
X130151253Y-85681134D01*
X130052157Y-85609136D01*
X130002094Y-85572763D01*
X130002093Y-85572762D01*
X129996752Y-85568882D01*
X129990724Y-85566198D01*
X129990722Y-85566197D01*
X129828319Y-85493891D01*
X129828318Y-85493891D01*
X129822288Y-85491206D01*
X129728887Y-85471353D01*
X129641944Y-85452872D01*
X129641939Y-85452872D01*
X129635487Y-85451500D01*
X129444513Y-85451500D01*
X129438061Y-85452872D01*
X129438056Y-85452872D01*
X129351113Y-85471353D01*
X129257712Y-85491206D01*
X129251682Y-85493891D01*
X129251681Y-85493891D01*
X129089278Y-85566197D01*
X129089276Y-85566198D01*
X129083248Y-85568882D01*
X129077907Y-85572762D01*
X129077906Y-85572763D01*
X129001583Y-85628215D01*
X128928747Y-85681134D01*
X128924332Y-85686037D01*
X128919420Y-85690460D01*
X128918295Y-85689211D01*
X128864986Y-85722051D01*
X128831800Y-85726500D01*
X126293595Y-85726500D01*
X126225474Y-85706498D01*
X126178981Y-85652842D01*
X126168877Y-85582568D01*
X126198371Y-85517988D01*
X126204500Y-85511405D01*
X130984753Y-80731152D01*
X130993039Y-80723612D01*
X130999518Y-80719500D01*
X131046144Y-80669848D01*
X131048898Y-80667007D01*
X131068635Y-80647270D01*
X131071115Y-80644073D01*
X131078820Y-80635051D01*
X131086852Y-80626498D01*
X131109086Y-80602821D01*
X131112905Y-80595875D01*
X131112907Y-80595872D01*
X131118848Y-80585066D01*
X131129699Y-80568547D01*
X131137258Y-80558801D01*
X131142114Y-80552541D01*
X131145259Y-80545272D01*
X131145262Y-80545268D01*
X131159674Y-80511963D01*
X131164891Y-80501313D01*
X131186195Y-80462560D01*
X131191233Y-80442937D01*
X131197637Y-80424234D01*
X131202533Y-80412920D01*
X131202533Y-80412919D01*
X131205681Y-80405645D01*
X131206920Y-80397822D01*
X131206923Y-80397812D01*
X131212599Y-80361976D01*
X131215005Y-80350356D01*
X131224028Y-80315211D01*
X131224028Y-80315210D01*
X131226000Y-80307530D01*
X131226000Y-80287276D01*
X131227551Y-80267565D01*
X131229480Y-80255386D01*
X131230720Y-80247557D01*
X131226559Y-80203538D01*
X131226000Y-80191681D01*
X131226000Y-79277055D01*
X131246002Y-79208934D01*
X131303782Y-79160646D01*
X131360931Y-79136974D01*
X131487636Y-79084491D01*
X131620525Y-79006837D01*
X131720379Y-78948487D01*
X131720380Y-78948486D01*
X131724082Y-78946323D01*
X131939589Y-78777344D01*
X131981309Y-78734293D01*
X132127186Y-78583759D01*
X132130169Y-78580681D01*
X132132702Y-78577233D01*
X132132706Y-78577228D01*
X132289757Y-78363428D01*
X132292295Y-78359973D01*
X132315220Y-78317751D01*
X132420918Y-78123080D01*
X132420919Y-78123078D01*
X132422968Y-78119304D01*
X132469480Y-77996213D01*
X132512269Y-77939560D01*
X132578895Y-77915034D01*
X132587346Y-77914750D01*
X133860500Y-77914750D01*
X133928621Y-77934752D01*
G37*
%TD.AperFunction*%
%TD*%
M02*
