%TF.GenerationSoftware,KiCad,Pcbnew,(6.0.10)*%
%TF.CreationDate,2023-02-17T13:08:42-08:00*%
%TF.ProjectId,Lab 6b,4c616220-3662-42e6-9b69-6361645f7063,rev?*%
%TF.SameCoordinates,Original*%
%TF.FileFunction,Legend,Top*%
%TF.FilePolarity,Positive*%
%FSLAX46Y46*%
G04 Gerber Fmt 4.6, Leading zero omitted, Abs format (unit mm)*
G04 Created by KiCad (PCBNEW (6.0.10)) date 2023-02-17 13:08:42*
%MOMM*%
%LPD*%
G01*
G04 APERTURE LIST*
%ADD10C,0.150000*%
%ADD11C,0.120000*%
G04 APERTURE END LIST*
D10*
%TO.C,R3*%
X143582380Y-83986666D02*
X143106190Y-84320000D01*
X143582380Y-84558095D02*
X142582380Y-84558095D01*
X142582380Y-84177142D01*
X142630000Y-84081904D01*
X142677619Y-84034285D01*
X142772857Y-83986666D01*
X142915714Y-83986666D01*
X143010952Y-84034285D01*
X143058571Y-84081904D01*
X143106190Y-84177142D01*
X143106190Y-84558095D01*
X142582380Y-83653333D02*
X142582380Y-83034285D01*
X142963333Y-83367619D01*
X142963333Y-83224761D01*
X143010952Y-83129523D01*
X143058571Y-83081904D01*
X143153809Y-83034285D01*
X143391904Y-83034285D01*
X143487142Y-83081904D01*
X143534761Y-83129523D01*
X143582380Y-83224761D01*
X143582380Y-83510476D01*
X143534761Y-83605714D01*
X143487142Y-83653333D01*
%TO.C,R4*%
X143582380Y-89066666D02*
X143106190Y-89400000D01*
X143582380Y-89638095D02*
X142582380Y-89638095D01*
X142582380Y-89257142D01*
X142630000Y-89161904D01*
X142677619Y-89114285D01*
X142772857Y-89066666D01*
X142915714Y-89066666D01*
X143010952Y-89114285D01*
X143058571Y-89161904D01*
X143106190Y-89257142D01*
X143106190Y-89638095D01*
X142915714Y-88209523D02*
X143582380Y-88209523D01*
X142534761Y-88447619D02*
X143249047Y-88685714D01*
X143249047Y-88066666D01*
%TO.C,R1*%
X110562380Y-81446666D02*
X110086190Y-81780000D01*
X110562380Y-82018095D02*
X109562380Y-82018095D01*
X109562380Y-81637142D01*
X109610000Y-81541904D01*
X109657619Y-81494285D01*
X109752857Y-81446666D01*
X109895714Y-81446666D01*
X109990952Y-81494285D01*
X110038571Y-81541904D01*
X110086190Y-81637142D01*
X110086190Y-82018095D01*
X110562380Y-80494285D02*
X110562380Y-81065714D01*
X110562380Y-80780000D02*
X109562380Y-80780000D01*
X109705238Y-80875238D01*
X109800476Y-80970476D01*
X109848095Y-81065714D01*
%TO.C,D1*%
X143412380Y-79478095D02*
X142412380Y-79478095D01*
X142412380Y-79240000D01*
X142460000Y-79097142D01*
X142555238Y-79001904D01*
X142650476Y-78954285D01*
X142840952Y-78906666D01*
X142983809Y-78906666D01*
X143174285Y-78954285D01*
X143269523Y-79001904D01*
X143364761Y-79097142D01*
X143412380Y-79240000D01*
X143412380Y-79478095D01*
X143412380Y-77954285D02*
X143412380Y-78525714D01*
X143412380Y-78240000D02*
X142412380Y-78240000D01*
X142555238Y-78335238D01*
X142650476Y-78430476D01*
X142698095Y-78525714D01*
%TO.C,J1*%
X127719166Y-71653630D02*
X127719166Y-72367916D01*
X127671547Y-72510773D01*
X127576309Y-72606011D01*
X127433452Y-72653630D01*
X127338214Y-72653630D01*
X128719166Y-72653630D02*
X128147738Y-72653630D01*
X128433452Y-72653630D02*
X128433452Y-71653630D01*
X128338214Y-71796488D01*
X128242976Y-71891726D01*
X128147738Y-71939345D01*
%TO.C,R2*%
X110562380Y-90086666D02*
X110086190Y-90420000D01*
X110562380Y-90658095D02*
X109562380Y-90658095D01*
X109562380Y-90277142D01*
X109610000Y-90181904D01*
X109657619Y-90134285D01*
X109752857Y-90086666D01*
X109895714Y-90086666D01*
X109990952Y-90134285D01*
X110038571Y-90181904D01*
X110086190Y-90277142D01*
X110086190Y-90658095D01*
X109657619Y-89705714D02*
X109610000Y-89658095D01*
X109562380Y-89562857D01*
X109562380Y-89324761D01*
X109610000Y-89229523D01*
X109657619Y-89181904D01*
X109752857Y-89134285D01*
X109848095Y-89134285D01*
X109990952Y-89181904D01*
X110562380Y-89753333D01*
X110562380Y-89134285D01*
%TO.C,C1*%
X118187142Y-104306666D02*
X118234761Y-104354285D01*
X118282380Y-104497142D01*
X118282380Y-104592380D01*
X118234761Y-104735238D01*
X118139523Y-104830476D01*
X118044285Y-104878095D01*
X117853809Y-104925714D01*
X117710952Y-104925714D01*
X117520476Y-104878095D01*
X117425238Y-104830476D01*
X117330000Y-104735238D01*
X117282380Y-104592380D01*
X117282380Y-104497142D01*
X117330000Y-104354285D01*
X117377619Y-104306666D01*
X118282380Y-103354285D02*
X118282380Y-103925714D01*
X118282380Y-103640000D02*
X117282380Y-103640000D01*
X117425238Y-103735238D01*
X117520476Y-103830476D01*
X117568095Y-103925714D01*
%TO.C,U1*%
X128778095Y-96832380D02*
X128778095Y-97641904D01*
X128825714Y-97737142D01*
X128873333Y-97784761D01*
X128968571Y-97832380D01*
X129159047Y-97832380D01*
X129254285Y-97784761D01*
X129301904Y-97737142D01*
X129349523Y-97641904D01*
X129349523Y-96832380D01*
X130349523Y-97832380D02*
X129778095Y-97832380D01*
X130063809Y-97832380D02*
X130063809Y-96832380D01*
X129968571Y-96975238D01*
X129873333Y-97070476D01*
X129778095Y-97118095D01*
%TO.C,C2*%
X126302142Y-104306666D02*
X126349761Y-104354285D01*
X126397380Y-104497142D01*
X126397380Y-104592380D01*
X126349761Y-104735238D01*
X126254523Y-104830476D01*
X126159285Y-104878095D01*
X125968809Y-104925714D01*
X125825952Y-104925714D01*
X125635476Y-104878095D01*
X125540238Y-104830476D01*
X125445000Y-104735238D01*
X125397380Y-104592380D01*
X125397380Y-104497142D01*
X125445000Y-104354285D01*
X125492619Y-104306666D01*
X125492619Y-103925714D02*
X125445000Y-103878095D01*
X125397380Y-103782857D01*
X125397380Y-103544761D01*
X125445000Y-103449523D01*
X125492619Y-103401904D01*
X125587857Y-103354285D01*
X125683095Y-103354285D01*
X125825952Y-103401904D01*
X126397380Y-103973333D01*
X126397380Y-103354285D01*
%TO.C,D2*%
X143412380Y-94718095D02*
X142412380Y-94718095D01*
X142412380Y-94480000D01*
X142460000Y-94337142D01*
X142555238Y-94241904D01*
X142650476Y-94194285D01*
X142840952Y-94146666D01*
X142983809Y-94146666D01*
X143174285Y-94194285D01*
X143269523Y-94241904D01*
X143364761Y-94337142D01*
X143412380Y-94480000D01*
X143412380Y-94718095D01*
X142507619Y-93765714D02*
X142460000Y-93718095D01*
X142412380Y-93622857D01*
X142412380Y-93384761D01*
X142460000Y-93289523D01*
X142507619Y-93241904D01*
X142602857Y-93194285D01*
X142698095Y-93194285D01*
X142840952Y-93241904D01*
X143412380Y-93813333D01*
X143412380Y-93194285D01*
D11*
%TO.C,R3*%
X145515000Y-84047064D02*
X145515000Y-83592936D01*
X144045000Y-84047064D02*
X144045000Y-83592936D01*
%TO.C,R4*%
X145515000Y-89127064D02*
X145515000Y-88672936D01*
X144045000Y-89127064D02*
X144045000Y-88672936D01*
%TO.C,R1*%
X112495000Y-81507064D02*
X112495000Y-81052936D01*
X111025000Y-81507064D02*
X111025000Y-81052936D01*
%TO.C,D1*%
X143645000Y-77140000D02*
X143645000Y-81200000D01*
X143645000Y-81200000D02*
X145915000Y-81200000D01*
X145915000Y-81200000D02*
X145915000Y-77140000D01*
%TO.C,J1*%
X133132500Y-79821250D02*
X122972500Y-79821250D01*
X133132500Y-81091250D02*
X133132500Y-73471250D01*
X122972500Y-81091250D02*
X133132500Y-81091250D01*
X133132500Y-73471250D02*
X122972500Y-73471250D01*
X122972500Y-73471250D02*
X122972500Y-81091250D01*
%TO.C,R2*%
X112495000Y-90147064D02*
X112495000Y-89692936D01*
X111025000Y-90147064D02*
X111025000Y-89692936D01*
%TO.C,C1*%
X118645000Y-106625000D02*
X120515000Y-106625000D01*
X118645000Y-102540000D02*
X118645000Y-106625000D01*
X120515000Y-106625000D02*
X120515000Y-102540000D01*
%TO.C,U1*%
X129540000Y-91420000D02*
X131490000Y-91420000D01*
X129540000Y-91420000D02*
X127590000Y-91420000D01*
X129540000Y-96540000D02*
X132990000Y-96540000D01*
X129540000Y-96540000D02*
X127590000Y-96540000D01*
%TO.C,C2*%
X128360000Y-104401252D02*
X128360000Y-103878748D01*
X126890000Y-104401252D02*
X126890000Y-103878748D01*
%TO.C,D2*%
X143645000Y-96440000D02*
X145915000Y-96440000D01*
X145915000Y-96440000D02*
X145915000Y-92380000D01*
X143645000Y-92380000D02*
X143645000Y-96440000D01*
%TD*%
M02*
