M48
; DRILL file {KiCad (6.0.10)} date Fri Feb 17 13:08:45 2023
; FORMAT={-:-/ absolute / inch / decimal}
; #@! TF.CreationDate,2023-02-17T13:08:45-08:00
; #@! TF.GenerationSoftware,Kicad,Pcbnew,(6.0.10)
; #@! TF.FileFunction,Plated,1,2,PTH
FMAT,2
INCH
; #@! TA.AperFunction,Plated,PTH,ViaDrill
T1C0.0157
; #@! TA.AperFunction,Plated,PTH,ComponentDrill
T2C0.0598
%
G90
G05
T1
X4.3Y-3.7
X4.4Y-3.1
X4.4Y-3.4
X4.5Y-3.5
X4.6Y-3.7
X4.6Y-3.8
X4.6Y-3.8
X4.8Y-3.7
X4.8Y-3.7
X4.8Y-3.8
X4.9Y-3.5
X4.9Y-3.7
X4.9Y-3.9
X4.9Y-4.1
X5.0Y-3.5
X5.1Y-3.4
X5.1Y-3.9
X5.3Y-3.5
X5.3Y-3.7
X5.4Y-3.4
X5.4Y-3.6
X5.4Y-3.7
X5.4Y-4.2
X5.5Y-3.4
X5.5Y-3.4
X5.5Y-3.7
X5.6Y-3.9
X5.9Y-3.1
X5.9Y-3.2
X5.9Y-3.7
T2
X4.9414Y-3.0426
X5.1414Y-3.0426
T0
M30
