%TF.GenerationSoftware,KiCad,Pcbnew,(6.0.10)*%
%TF.CreationDate,2023-02-17T13:08:41-08:00*%
%TF.ProjectId,Lab 6b,4c616220-3662-42e6-9b69-6361645f7063,rev?*%
%TF.SameCoordinates,Original*%
%TF.FileFunction,Copper,L2,Bot*%
%TF.FilePolarity,Positive*%
%FSLAX46Y46*%
G04 Gerber Fmt 4.6, Leading zero omitted, Abs format (unit mm)*
G04 Created by KiCad (PCBNEW (6.0.10)) date 2023-02-17 13:08:41*
%MOMM*%
%LPD*%
G01*
G04 APERTURE LIST*
%TA.AperFunction,ComponentPad*%
%ADD10R,3.000000X3.000000*%
%TD*%
%TA.AperFunction,ComponentPad*%
%ADD11C,3.000000*%
%TD*%
%TA.AperFunction,ViaPad*%
%ADD12C,0.800000*%
%TD*%
%TA.AperFunction,Conductor*%
%ADD13C,0.250000*%
%TD*%
G04 APERTURE END LIST*
D10*
%TO.P,J1,1,Pin_1*%
%TO.N,+9V*%
X125512500Y-77281250D03*
D11*
%TO.P,J1,2,Pin_2*%
%TO.N,GND*%
X130592500Y-77281250D03*
%TD*%
D12*
%TO.N,/pin_2*%
X114300000Y-88900000D03*
X129540000Y-86360000D03*
X134620000Y-93980000D03*
X137160000Y-106680000D03*
X109220000Y-93980000D03*
X111760000Y-86360000D03*
X124460000Y-99060000D03*
%TO.N,Net-(C2-Pad1)*%
X142240000Y-99060000D03*
X127000000Y-88900000D03*
X124460000Y-104140000D03*
X124460000Y-88900000D03*
%TO.N,Net-(D1-Pad1)*%
X149860000Y-78740000D03*
X139700000Y-86360000D03*
X139700000Y-86360000D03*
%TO.N,+9V*%
X121920000Y-96520000D03*
X129540000Y-99060000D03*
X137160000Y-86360000D03*
X134620000Y-88900000D03*
X116840000Y-93980000D03*
X137160000Y-93980000D03*
%TO.N,/pin_7*%
X111760000Y-78740000D03*
X116840000Y-96520000D03*
X124460000Y-93980000D03*
X121920000Y-93980000D03*
X116840000Y-96520000D03*
X121920000Y-93980000D03*
%TO.N,/pin_3*%
X139700000Y-93980000D03*
X149860000Y-81280000D03*
X137160000Y-91440000D03*
X149860000Y-93980000D03*
%TD*%
D13*
%TO.N,/pin_2*%
X137460305Y-93255000D02*
X137885000Y-93679695D01*
X134620000Y-93980000D02*
X135345000Y-93255000D01*
X134620000Y-91440000D02*
X134620000Y-93980000D01*
X135345000Y-93255000D02*
X137460305Y-93255000D01*
X116840000Y-99060000D02*
X114300000Y-96520000D01*
X109220000Y-93980000D02*
X109220000Y-88900000D01*
X137885000Y-105955000D02*
X137160000Y-106680000D01*
X124460000Y-99060000D02*
X116840000Y-99060000D01*
X114300000Y-96520000D02*
X114300000Y-88900000D01*
X109220000Y-88900000D02*
X111760000Y-86360000D01*
X129540000Y-86360000D02*
X134620000Y-91440000D01*
X137885000Y-93679695D02*
X137885000Y-105955000D01*
%TO.N,GND*%
X130592500Y-77281250D02*
X130998750Y-77281250D01*
%TO.N,Net-(C2-Pad1)*%
X124460000Y-88900000D02*
X124460000Y-91440000D01*
X136859695Y-107405000D02*
X137460305Y-107405000D01*
X142240000Y-102625305D02*
X142240000Y-99060000D01*
X137460305Y-107405000D02*
X142240000Y-102625305D01*
X127000000Y-97545305D02*
X136859695Y-107405000D01*
X127000000Y-93980000D02*
X127000000Y-101600000D01*
X124460000Y-91440000D02*
X127000000Y-93980000D01*
X127000000Y-88900000D02*
X127000000Y-97545305D01*
X127000000Y-101600000D02*
X124460000Y-104140000D01*
%TO.N,Net-(D1-Pad1)*%
X149860000Y-78740000D02*
X142240000Y-86360000D01*
X142240000Y-86360000D02*
X139700000Y-86360000D01*
%TO.N,+9V*%
X119380000Y-93980000D02*
X121920000Y-96520000D01*
X134620000Y-88900000D02*
X137160000Y-86360000D01*
X116840000Y-93980000D02*
X119380000Y-93980000D01*
X129540000Y-99060000D02*
X132080000Y-99060000D01*
X132080000Y-99060000D02*
X137160000Y-93980000D01*
%TO.N,/pin_7*%
X111760000Y-81280000D02*
X111760000Y-78740000D01*
X124460000Y-93980000D02*
X111760000Y-81280000D01*
X122645000Y-94705000D02*
X121920000Y-93980000D01*
X122220305Y-97245000D02*
X122645000Y-96820305D01*
X122645000Y-96820305D02*
X122645000Y-94705000D01*
X117565000Y-97245000D02*
X122220305Y-97245000D01*
X116840000Y-96520000D02*
X117565000Y-97245000D01*
%TO.N,/pin_3*%
X139700000Y-91440000D02*
X137160000Y-91440000D01*
X149860000Y-81280000D02*
X139700000Y-91440000D01*
X149860000Y-93980000D02*
X139700000Y-93980000D01*
%TD*%
%TA.AperFunction,Conductor*%
%TO.N,+9V*%
G36*
X151833621Y-71648502D02*
G01*
X151880114Y-71702158D01*
X151891500Y-71754500D01*
X151891500Y-108585500D01*
X151871498Y-108653621D01*
X151817842Y-108700114D01*
X151765500Y-108711500D01*
X102234500Y-108711500D01*
X102166379Y-108691498D01*
X102119886Y-108637842D01*
X102108500Y-108585500D01*
X102108500Y-104140000D01*
X123546496Y-104140000D01*
X123566458Y-104329928D01*
X123625473Y-104511556D01*
X123720960Y-104676944D01*
X123848747Y-104818866D01*
X124003248Y-104931118D01*
X124009276Y-104933802D01*
X124009278Y-104933803D01*
X124171681Y-105006109D01*
X124177712Y-105008794D01*
X124271113Y-105028647D01*
X124358056Y-105047128D01*
X124358061Y-105047128D01*
X124364513Y-105048500D01*
X124555487Y-105048500D01*
X124561939Y-105047128D01*
X124561944Y-105047128D01*
X124648888Y-105028647D01*
X124742288Y-105008794D01*
X124748319Y-105006109D01*
X124910722Y-104933803D01*
X124910724Y-104933802D01*
X124916752Y-104931118D01*
X125071253Y-104818866D01*
X125199040Y-104676944D01*
X125294527Y-104511556D01*
X125353542Y-104329928D01*
X125370907Y-104164706D01*
X125397920Y-104099050D01*
X125407122Y-104088782D01*
X127392247Y-102103657D01*
X127400537Y-102096113D01*
X127407018Y-102092000D01*
X127453659Y-102042332D01*
X127456413Y-102039491D01*
X127476134Y-102019770D01*
X127478612Y-102016575D01*
X127486318Y-102007553D01*
X127511158Y-101981101D01*
X127516586Y-101975321D01*
X127526346Y-101957568D01*
X127537199Y-101941045D01*
X127544753Y-101931306D01*
X127549613Y-101925041D01*
X127567176Y-101884457D01*
X127572383Y-101873827D01*
X127593695Y-101835060D01*
X127595666Y-101827383D01*
X127595668Y-101827378D01*
X127598732Y-101815442D01*
X127605138Y-101796730D01*
X127610034Y-101785417D01*
X127613181Y-101778145D01*
X127620097Y-101734481D01*
X127622504Y-101722860D01*
X127631528Y-101687711D01*
X127631528Y-101687710D01*
X127633500Y-101680030D01*
X127633500Y-101659769D01*
X127635051Y-101640058D01*
X127636979Y-101627885D01*
X127638219Y-101620057D01*
X127634059Y-101576046D01*
X127633500Y-101564189D01*
X127633500Y-99378899D01*
X127653502Y-99310778D01*
X127707158Y-99264285D01*
X127777432Y-99254181D01*
X127842012Y-99283675D01*
X127848595Y-99289804D01*
X136356038Y-107797247D01*
X136363582Y-107805537D01*
X136367695Y-107812018D01*
X136373472Y-107817443D01*
X136417362Y-107858658D01*
X136420204Y-107861413D01*
X136439925Y-107881134D01*
X136443120Y-107883612D01*
X136452142Y-107891318D01*
X136484374Y-107921586D01*
X136491323Y-107925406D01*
X136502127Y-107931346D01*
X136518651Y-107942199D01*
X136534654Y-107954613D01*
X136575238Y-107972176D01*
X136585868Y-107977383D01*
X136624635Y-107998695D01*
X136632312Y-108000666D01*
X136632317Y-108000668D01*
X136644253Y-108003732D01*
X136662961Y-108010137D01*
X136681550Y-108018181D01*
X136689375Y-108019420D01*
X136689377Y-108019421D01*
X136725214Y-108025097D01*
X136736835Y-108027504D01*
X136768654Y-108035673D01*
X136779665Y-108038500D01*
X136799926Y-108038500D01*
X136819635Y-108040051D01*
X136839638Y-108043219D01*
X136847530Y-108042473D01*
X136852757Y-108041979D01*
X136883649Y-108039059D01*
X136895506Y-108038500D01*
X137381538Y-108038500D01*
X137392721Y-108039027D01*
X137400214Y-108040702D01*
X137408140Y-108040453D01*
X137408141Y-108040453D01*
X137468291Y-108038562D01*
X137472250Y-108038500D01*
X137500161Y-108038500D01*
X137504096Y-108038003D01*
X137504161Y-108037995D01*
X137515998Y-108037062D01*
X137548256Y-108036048D01*
X137552275Y-108035922D01*
X137560194Y-108035673D01*
X137579648Y-108030021D01*
X137599005Y-108026013D01*
X137611235Y-108024468D01*
X137611236Y-108024468D01*
X137619102Y-108023474D01*
X137626473Y-108020555D01*
X137626475Y-108020555D01*
X137660217Y-108007196D01*
X137671447Y-108003351D01*
X137706288Y-107993229D01*
X137706289Y-107993229D01*
X137713898Y-107991018D01*
X137720717Y-107986985D01*
X137720722Y-107986983D01*
X137731333Y-107980707D01*
X137749081Y-107972012D01*
X137767922Y-107964552D01*
X137788292Y-107949753D01*
X137803692Y-107938564D01*
X137813612Y-107932048D01*
X137844840Y-107913580D01*
X137844843Y-107913578D01*
X137851667Y-107909542D01*
X137865988Y-107895221D01*
X137881022Y-107882380D01*
X137882737Y-107881134D01*
X137897412Y-107870472D01*
X137925603Y-107836395D01*
X137933593Y-107827616D01*
X142632247Y-103128962D01*
X142640537Y-103121418D01*
X142647018Y-103117305D01*
X142693659Y-103067637D01*
X142696413Y-103064796D01*
X142716134Y-103045075D01*
X142718612Y-103041880D01*
X142726318Y-103032858D01*
X142751158Y-103006406D01*
X142756586Y-103000626D01*
X142766346Y-102982873D01*
X142777199Y-102966350D01*
X142784753Y-102956611D01*
X142789613Y-102950346D01*
X142807176Y-102909762D01*
X142812383Y-102899132D01*
X142833695Y-102860365D01*
X142835666Y-102852688D01*
X142835668Y-102852683D01*
X142838732Y-102840747D01*
X142845138Y-102822035D01*
X142850034Y-102810722D01*
X142853181Y-102803450D01*
X142860097Y-102759786D01*
X142862504Y-102748165D01*
X142871528Y-102713016D01*
X142871528Y-102713015D01*
X142873500Y-102705335D01*
X142873500Y-102685074D01*
X142875051Y-102665363D01*
X142876979Y-102653190D01*
X142878219Y-102645362D01*
X142874059Y-102601351D01*
X142873500Y-102589494D01*
X142873500Y-99762524D01*
X142893502Y-99694403D01*
X142905858Y-99678221D01*
X142979040Y-99596944D01*
X143054053Y-99467018D01*
X143071223Y-99437279D01*
X143071224Y-99437278D01*
X143074527Y-99431556D01*
X143133542Y-99249928D01*
X143153504Y-99060000D01*
X143133542Y-98870072D01*
X143074527Y-98688444D01*
X142979040Y-98523056D01*
X142851253Y-98381134D01*
X142696752Y-98268882D01*
X142690724Y-98266198D01*
X142690722Y-98266197D01*
X142528319Y-98193891D01*
X142528318Y-98193891D01*
X142522288Y-98191206D01*
X142428888Y-98171353D01*
X142341944Y-98152872D01*
X142341939Y-98152872D01*
X142335487Y-98151500D01*
X142144513Y-98151500D01*
X142138061Y-98152872D01*
X142138056Y-98152872D01*
X142051112Y-98171353D01*
X141957712Y-98191206D01*
X141951682Y-98193891D01*
X141951681Y-98193891D01*
X141789278Y-98266197D01*
X141789276Y-98266198D01*
X141783248Y-98268882D01*
X141628747Y-98381134D01*
X141500960Y-98523056D01*
X141405473Y-98688444D01*
X141346458Y-98870072D01*
X141326496Y-99060000D01*
X141346458Y-99249928D01*
X141405473Y-99431556D01*
X141408776Y-99437278D01*
X141408777Y-99437279D01*
X141425947Y-99467018D01*
X141500960Y-99596944D01*
X141574137Y-99678215D01*
X141604853Y-99742221D01*
X141606500Y-99762524D01*
X141606500Y-102310710D01*
X141586498Y-102378831D01*
X141569595Y-102399805D01*
X138733595Y-105235805D01*
X138671283Y-105269831D01*
X138600468Y-105264766D01*
X138543632Y-105222219D01*
X138518821Y-105155699D01*
X138518500Y-105146710D01*
X138518500Y-93980000D01*
X138786496Y-93980000D01*
X138806458Y-94169928D01*
X138865473Y-94351556D01*
X138960960Y-94516944D01*
X138965378Y-94521851D01*
X138965379Y-94521852D01*
X139047899Y-94613500D01*
X139088747Y-94658866D01*
X139138520Y-94695028D01*
X139234953Y-94765091D01*
X139243248Y-94771118D01*
X139249276Y-94773802D01*
X139249278Y-94773803D01*
X139271658Y-94783767D01*
X139417712Y-94848794D01*
X139511113Y-94868647D01*
X139598056Y-94887128D01*
X139598061Y-94887128D01*
X139604513Y-94888500D01*
X139795487Y-94888500D01*
X139801939Y-94887128D01*
X139801944Y-94887128D01*
X139888888Y-94868647D01*
X139982288Y-94848794D01*
X140128342Y-94783767D01*
X140150722Y-94773803D01*
X140150724Y-94773802D01*
X140156752Y-94771118D01*
X140165048Y-94765091D01*
X140302612Y-94665144D01*
X140311253Y-94658866D01*
X140315668Y-94653963D01*
X140320580Y-94649540D01*
X140321705Y-94650789D01*
X140375014Y-94617949D01*
X140408200Y-94613500D01*
X149151800Y-94613500D01*
X149219921Y-94633502D01*
X149239147Y-94649843D01*
X149239420Y-94649540D01*
X149244332Y-94653963D01*
X149248747Y-94658866D01*
X149257388Y-94665144D01*
X149394953Y-94765091D01*
X149403248Y-94771118D01*
X149409276Y-94773802D01*
X149409278Y-94773803D01*
X149431658Y-94783767D01*
X149577712Y-94848794D01*
X149671113Y-94868647D01*
X149758056Y-94887128D01*
X149758061Y-94887128D01*
X149764513Y-94888500D01*
X149955487Y-94888500D01*
X149961939Y-94887128D01*
X149961944Y-94887128D01*
X150048888Y-94868647D01*
X150142288Y-94848794D01*
X150288342Y-94783767D01*
X150310722Y-94773803D01*
X150310724Y-94773802D01*
X150316752Y-94771118D01*
X150325048Y-94765091D01*
X150421480Y-94695028D01*
X150471253Y-94658866D01*
X150512101Y-94613500D01*
X150594621Y-94521852D01*
X150594622Y-94521851D01*
X150599040Y-94516944D01*
X150694527Y-94351556D01*
X150753542Y-94169928D01*
X150773504Y-93980000D01*
X150770907Y-93955293D01*
X150754232Y-93796635D01*
X150754232Y-93796633D01*
X150753542Y-93790072D01*
X150694527Y-93608444D01*
X150599040Y-93443056D01*
X150560389Y-93400129D01*
X150475675Y-93306045D01*
X150475674Y-93306044D01*
X150471253Y-93301134D01*
X150316752Y-93188882D01*
X150310724Y-93186198D01*
X150310722Y-93186197D01*
X150148319Y-93113891D01*
X150148318Y-93113891D01*
X150142288Y-93111206D01*
X150048887Y-93091353D01*
X149961944Y-93072872D01*
X149961939Y-93072872D01*
X149955487Y-93071500D01*
X149764513Y-93071500D01*
X149758061Y-93072872D01*
X149758056Y-93072872D01*
X149671113Y-93091353D01*
X149577712Y-93111206D01*
X149571682Y-93113891D01*
X149571681Y-93113891D01*
X149409278Y-93186197D01*
X149409276Y-93186198D01*
X149403248Y-93188882D01*
X149248747Y-93301134D01*
X149244332Y-93306037D01*
X149239420Y-93310460D01*
X149238295Y-93309211D01*
X149184986Y-93342051D01*
X149151800Y-93346500D01*
X140408200Y-93346500D01*
X140340079Y-93326498D01*
X140320853Y-93310157D01*
X140320580Y-93310460D01*
X140315668Y-93306037D01*
X140311253Y-93301134D01*
X140156752Y-93188882D01*
X140150724Y-93186198D01*
X140150722Y-93186197D01*
X139988319Y-93113891D01*
X139988318Y-93113891D01*
X139982288Y-93111206D01*
X139888887Y-93091353D01*
X139801944Y-93072872D01*
X139801939Y-93072872D01*
X139795487Y-93071500D01*
X139604513Y-93071500D01*
X139598061Y-93072872D01*
X139598056Y-93072872D01*
X139511113Y-93091353D01*
X139417712Y-93111206D01*
X139411682Y-93113891D01*
X139411681Y-93113891D01*
X139249278Y-93186197D01*
X139249276Y-93186198D01*
X139243248Y-93188882D01*
X139088747Y-93301134D01*
X139084326Y-93306044D01*
X139084325Y-93306045D01*
X138999612Y-93400129D01*
X138960960Y-93443056D01*
X138865473Y-93608444D01*
X138806458Y-93790072D01*
X138805768Y-93796633D01*
X138805768Y-93796635D01*
X138789093Y-93955293D01*
X138786496Y-93980000D01*
X138518500Y-93980000D01*
X138518500Y-93758458D01*
X138519027Y-93747274D01*
X138520701Y-93739786D01*
X138518562Y-93671727D01*
X138518500Y-93667770D01*
X138518500Y-93639839D01*
X138517994Y-93635833D01*
X138517061Y-93623987D01*
X138515922Y-93587732D01*
X138515673Y-93579805D01*
X138510022Y-93560353D01*
X138506014Y-93541001D01*
X138504468Y-93528763D01*
X138504467Y-93528761D01*
X138503474Y-93520898D01*
X138487194Y-93479781D01*
X138483359Y-93468580D01*
X138471018Y-93426101D01*
X138466985Y-93419282D01*
X138466983Y-93419277D01*
X138460707Y-93408666D01*
X138452010Y-93390916D01*
X138444552Y-93372078D01*
X138418571Y-93336318D01*
X138412053Y-93326396D01*
X138393578Y-93295155D01*
X138393574Y-93295150D01*
X138389542Y-93288332D01*
X138375218Y-93274008D01*
X138362376Y-93258973D01*
X138350472Y-93242588D01*
X138316406Y-93214406D01*
X138307627Y-93206417D01*
X137963957Y-92862747D01*
X137956417Y-92854461D01*
X137952305Y-92847982D01*
X137902653Y-92801356D01*
X137899812Y-92798602D01*
X137880075Y-92778865D01*
X137876878Y-92776385D01*
X137867856Y-92768680D01*
X137841405Y-92743841D01*
X137835626Y-92738414D01*
X137828680Y-92734595D01*
X137828677Y-92734593D01*
X137817871Y-92728652D01*
X137801352Y-92717801D01*
X137800888Y-92717441D01*
X137785346Y-92705386D01*
X137778077Y-92702241D01*
X137778073Y-92702238D01*
X137744768Y-92687826D01*
X137734118Y-92682609D01*
X137695365Y-92661305D01*
X137675742Y-92656267D01*
X137657039Y-92649863D01*
X137645725Y-92644967D01*
X137645724Y-92644967D01*
X137638450Y-92641819D01*
X137630627Y-92640580D01*
X137630617Y-92640577D01*
X137594781Y-92634901D01*
X137583161Y-92632495D01*
X137548016Y-92623472D01*
X137548015Y-92623472D01*
X137540335Y-92621500D01*
X137520081Y-92621500D01*
X137500370Y-92619949D01*
X137488191Y-92618020D01*
X137480362Y-92616780D01*
X137451091Y-92619547D01*
X137436344Y-92620941D01*
X137424486Y-92621500D01*
X135423767Y-92621500D01*
X135412584Y-92620973D01*
X135405091Y-92619298D01*
X135397166Y-92619547D01*
X135397165Y-92619547D01*
X135391062Y-92619739D01*
X135383459Y-92619978D01*
X135314743Y-92602126D01*
X135266587Y-92549957D01*
X135253500Y-92494040D01*
X135253500Y-91518767D01*
X135254027Y-91507584D01*
X135255702Y-91500091D01*
X135254942Y-91475892D01*
X135253814Y-91440000D01*
X136246496Y-91440000D01*
X136266458Y-91629928D01*
X136325473Y-91811556D01*
X136328776Y-91817278D01*
X136328777Y-91817279D01*
X136345176Y-91845683D01*
X136420960Y-91976944D01*
X136425378Y-91981851D01*
X136425379Y-91981852D01*
X136507452Y-92073003D01*
X136548747Y-92118866D01*
X136703248Y-92231118D01*
X136709276Y-92233802D01*
X136709278Y-92233803D01*
X136713090Y-92235500D01*
X136877712Y-92308794D01*
X136971112Y-92328647D01*
X137058056Y-92347128D01*
X137058061Y-92347128D01*
X137064513Y-92348500D01*
X137255487Y-92348500D01*
X137261939Y-92347128D01*
X137261944Y-92347128D01*
X137348888Y-92328647D01*
X137442288Y-92308794D01*
X137606910Y-92235500D01*
X137610722Y-92233803D01*
X137610724Y-92233802D01*
X137616752Y-92231118D01*
X137771253Y-92118866D01*
X137775668Y-92113963D01*
X137780580Y-92109540D01*
X137781705Y-92110789D01*
X137835014Y-92077949D01*
X137868200Y-92073500D01*
X139621233Y-92073500D01*
X139632416Y-92074027D01*
X139639909Y-92075702D01*
X139647835Y-92075453D01*
X139647836Y-92075453D01*
X139707986Y-92073562D01*
X139711945Y-92073500D01*
X139739856Y-92073500D01*
X139743791Y-92073003D01*
X139743856Y-92072995D01*
X139755693Y-92072062D01*
X139787951Y-92071048D01*
X139791970Y-92070922D01*
X139799889Y-92070673D01*
X139819343Y-92065021D01*
X139838700Y-92061013D01*
X139850930Y-92059468D01*
X139850931Y-92059468D01*
X139858797Y-92058474D01*
X139866168Y-92055555D01*
X139866170Y-92055555D01*
X139899912Y-92042196D01*
X139911142Y-92038351D01*
X139945983Y-92028229D01*
X139945984Y-92028229D01*
X139953593Y-92026018D01*
X139960412Y-92021985D01*
X139960417Y-92021983D01*
X139971028Y-92015707D01*
X139988776Y-92007012D01*
X140007617Y-91999552D01*
X140043387Y-91973564D01*
X140053307Y-91967048D01*
X140084535Y-91948580D01*
X140084538Y-91948578D01*
X140091362Y-91944542D01*
X140105683Y-91930221D01*
X140120717Y-91917380D01*
X140130694Y-91910131D01*
X140137107Y-91905472D01*
X140165298Y-91871395D01*
X140173288Y-91862616D01*
X149810500Y-82225405D01*
X149872812Y-82191379D01*
X149899595Y-82188500D01*
X149955487Y-82188500D01*
X149961939Y-82187128D01*
X149961944Y-82187128D01*
X150048888Y-82168647D01*
X150142288Y-82148794D01*
X150148319Y-82146109D01*
X150310722Y-82073803D01*
X150310724Y-82073802D01*
X150316752Y-82071118D01*
X150471253Y-81958866D01*
X150599040Y-81816944D01*
X150674824Y-81685683D01*
X150691223Y-81657279D01*
X150691224Y-81657278D01*
X150694527Y-81651556D01*
X150753542Y-81469928D01*
X150773504Y-81280000D01*
X150753542Y-81090072D01*
X150694527Y-80908444D01*
X150599040Y-80743056D01*
X150471253Y-80601134D01*
X150316752Y-80488882D01*
X150310724Y-80486198D01*
X150310722Y-80486197D01*
X150148319Y-80413891D01*
X150148318Y-80413891D01*
X150142288Y-80411206D01*
X150048888Y-80391353D01*
X149961944Y-80372872D01*
X149961939Y-80372872D01*
X149955487Y-80371500D01*
X149764513Y-80371500D01*
X149758061Y-80372872D01*
X149758056Y-80372872D01*
X149671112Y-80391353D01*
X149577712Y-80411206D01*
X149571682Y-80413891D01*
X149571681Y-80413891D01*
X149409278Y-80486197D01*
X149409276Y-80486198D01*
X149403248Y-80488882D01*
X149397907Y-80492762D01*
X149397906Y-80492763D01*
X149249515Y-80600576D01*
X149243450Y-80602740D01*
X149229229Y-80622811D01*
X149120960Y-80743056D01*
X149025473Y-80908444D01*
X148966458Y-81090072D01*
X148965768Y-81096633D01*
X148965768Y-81096635D01*
X148949093Y-81255293D01*
X148922080Y-81320950D01*
X148912878Y-81331218D01*
X139474500Y-90769595D01*
X139412188Y-90803621D01*
X139385405Y-90806500D01*
X137868200Y-90806500D01*
X137800079Y-90786498D01*
X137780853Y-90770157D01*
X137780580Y-90770460D01*
X137775668Y-90766037D01*
X137771253Y-90761134D01*
X137616752Y-90648882D01*
X137610724Y-90646198D01*
X137610722Y-90646197D01*
X137448319Y-90573891D01*
X137448318Y-90573891D01*
X137442288Y-90571206D01*
X137348887Y-90551353D01*
X137261944Y-90532872D01*
X137261939Y-90532872D01*
X137255487Y-90531500D01*
X137064513Y-90531500D01*
X137058061Y-90532872D01*
X137058056Y-90532872D01*
X136971113Y-90551353D01*
X136877712Y-90571206D01*
X136871682Y-90573891D01*
X136871681Y-90573891D01*
X136709278Y-90646197D01*
X136709276Y-90646198D01*
X136703248Y-90648882D01*
X136548747Y-90761134D01*
X136544326Y-90766044D01*
X136544325Y-90766045D01*
X136510492Y-90803621D01*
X136420960Y-90903056D01*
X136417659Y-90908774D01*
X136340148Y-91043027D01*
X136325473Y-91068444D01*
X136266458Y-91250072D01*
X136246496Y-91440000D01*
X135253814Y-91440000D01*
X135253562Y-91432001D01*
X135253500Y-91428043D01*
X135253500Y-91400144D01*
X135252996Y-91396153D01*
X135252063Y-91384311D01*
X135251711Y-91373093D01*
X135250674Y-91340111D01*
X135248462Y-91332497D01*
X135248461Y-91332492D01*
X135245023Y-91320659D01*
X135241012Y-91301295D01*
X135239467Y-91289064D01*
X135238474Y-91281203D01*
X135235557Y-91273836D01*
X135235556Y-91273831D01*
X135222198Y-91240092D01*
X135218354Y-91228865D01*
X135208230Y-91194022D01*
X135206018Y-91186407D01*
X135201697Y-91179100D01*
X135195707Y-91168972D01*
X135187012Y-91151224D01*
X135179552Y-91132383D01*
X135153564Y-91096613D01*
X135147048Y-91086693D01*
X135128580Y-91055465D01*
X135128578Y-91055462D01*
X135124542Y-91048638D01*
X135110221Y-91034317D01*
X135097380Y-91019283D01*
X135090131Y-91009306D01*
X135085472Y-91002893D01*
X135051395Y-90974702D01*
X135042616Y-90966712D01*
X130487122Y-86411217D01*
X130459155Y-86360000D01*
X138786496Y-86360000D01*
X138806458Y-86549928D01*
X138865473Y-86731556D01*
X138960960Y-86896944D01*
X138965378Y-86901851D01*
X138965379Y-86901852D01*
X139047452Y-86993003D01*
X139088747Y-87038866D01*
X139243248Y-87151118D01*
X139249276Y-87153802D01*
X139249278Y-87153803D01*
X139411681Y-87226109D01*
X139417712Y-87228794D01*
X139511113Y-87248647D01*
X139598056Y-87267128D01*
X139598061Y-87267128D01*
X139604513Y-87268500D01*
X139795487Y-87268500D01*
X139801939Y-87267128D01*
X139801944Y-87267128D01*
X139888888Y-87248647D01*
X139982288Y-87228794D01*
X139988319Y-87226109D01*
X140150722Y-87153803D01*
X140150724Y-87153802D01*
X140156752Y-87151118D01*
X140311253Y-87038866D01*
X140315668Y-87033963D01*
X140320580Y-87029540D01*
X140321705Y-87030789D01*
X140375014Y-86997949D01*
X140408200Y-86993500D01*
X142161233Y-86993500D01*
X142172416Y-86994027D01*
X142179909Y-86995702D01*
X142187835Y-86995453D01*
X142187836Y-86995453D01*
X142247986Y-86993562D01*
X142251945Y-86993500D01*
X142279856Y-86993500D01*
X142283791Y-86993003D01*
X142283856Y-86992995D01*
X142295693Y-86992062D01*
X142327951Y-86991048D01*
X142331970Y-86990922D01*
X142339889Y-86990673D01*
X142359343Y-86985021D01*
X142378700Y-86981013D01*
X142390930Y-86979468D01*
X142390931Y-86979468D01*
X142398797Y-86978474D01*
X142406168Y-86975555D01*
X142406170Y-86975555D01*
X142439912Y-86962196D01*
X142451142Y-86958351D01*
X142485983Y-86948229D01*
X142485984Y-86948229D01*
X142493593Y-86946018D01*
X142500412Y-86941985D01*
X142500417Y-86941983D01*
X142511028Y-86935707D01*
X142528776Y-86927012D01*
X142547617Y-86919552D01*
X142583387Y-86893564D01*
X142593307Y-86887048D01*
X142624535Y-86868580D01*
X142624538Y-86868578D01*
X142631362Y-86864542D01*
X142645683Y-86850221D01*
X142660717Y-86837380D01*
X142670694Y-86830131D01*
X142677107Y-86825472D01*
X142705298Y-86791395D01*
X142713288Y-86782616D01*
X149046498Y-80449406D01*
X149069852Y-80436654D01*
X149075674Y-80421699D01*
X149086359Y-80409545D01*
X149810499Y-79685405D01*
X149872811Y-79651379D01*
X149899594Y-79648500D01*
X149955487Y-79648500D01*
X149961939Y-79647128D01*
X149961944Y-79647128D01*
X150048887Y-79628647D01*
X150142288Y-79608794D01*
X150148319Y-79606109D01*
X150310722Y-79533803D01*
X150310724Y-79533802D01*
X150316752Y-79531118D01*
X150471253Y-79418866D01*
X150585768Y-79291684D01*
X150594621Y-79281852D01*
X150594625Y-79281847D01*
X150599040Y-79276944D01*
X150694527Y-79111556D01*
X150753542Y-78929928D01*
X150773504Y-78740000D01*
X150753542Y-78550072D01*
X150694527Y-78368444D01*
X150599040Y-78203056D01*
X150527030Y-78123080D01*
X150475675Y-78066045D01*
X150475674Y-78066044D01*
X150471253Y-78061134D01*
X150316752Y-77948882D01*
X150310724Y-77946198D01*
X150310722Y-77946197D01*
X150148319Y-77873891D01*
X150148318Y-77873891D01*
X150142288Y-77871206D01*
X150048888Y-77851353D01*
X149961944Y-77832872D01*
X149961939Y-77832872D01*
X149955487Y-77831500D01*
X149764513Y-77831500D01*
X149758061Y-77832872D01*
X149758056Y-77832872D01*
X149671112Y-77851353D01*
X149577712Y-77871206D01*
X149571682Y-77873891D01*
X149571681Y-77873891D01*
X149409278Y-77946197D01*
X149409276Y-77946198D01*
X149403248Y-77948882D01*
X149248747Y-78061134D01*
X149244326Y-78066044D01*
X149244325Y-78066045D01*
X149192971Y-78123080D01*
X149120960Y-78203056D01*
X149025473Y-78368444D01*
X148966458Y-78550072D01*
X148965768Y-78556633D01*
X148965768Y-78556635D01*
X148949093Y-78715292D01*
X148922080Y-78780949D01*
X148912878Y-78791217D01*
X142014500Y-85689595D01*
X141952188Y-85723621D01*
X141925405Y-85726500D01*
X140408200Y-85726500D01*
X140340079Y-85706498D01*
X140320853Y-85690157D01*
X140320580Y-85690460D01*
X140315668Y-85686037D01*
X140311253Y-85681134D01*
X140156752Y-85568882D01*
X140150724Y-85566198D01*
X140150722Y-85566197D01*
X139988319Y-85493891D01*
X139988318Y-85493891D01*
X139982288Y-85491206D01*
X139888887Y-85471353D01*
X139801944Y-85452872D01*
X139801939Y-85452872D01*
X139795487Y-85451500D01*
X139604513Y-85451500D01*
X139598061Y-85452872D01*
X139598056Y-85452872D01*
X139511112Y-85471353D01*
X139417712Y-85491206D01*
X139411682Y-85493891D01*
X139411681Y-85493891D01*
X139249278Y-85566197D01*
X139249276Y-85566198D01*
X139243248Y-85568882D01*
X139088747Y-85681134D01*
X139084326Y-85686044D01*
X139084325Y-85686045D01*
X139050492Y-85723621D01*
X138960960Y-85823056D01*
X138865473Y-85988444D01*
X138806458Y-86170072D01*
X138786496Y-86360000D01*
X130459155Y-86360000D01*
X130453096Y-86348905D01*
X130450907Y-86335292D01*
X130434232Y-86176635D01*
X130434232Y-86176633D01*
X130433542Y-86170072D01*
X130374527Y-85988444D01*
X130279040Y-85823056D01*
X130189509Y-85723621D01*
X130155675Y-85686045D01*
X130155674Y-85686044D01*
X130151253Y-85681134D01*
X129996752Y-85568882D01*
X129990724Y-85566198D01*
X129990722Y-85566197D01*
X129828319Y-85493891D01*
X129828318Y-85493891D01*
X129822288Y-85491206D01*
X129728887Y-85471353D01*
X129641944Y-85452872D01*
X129641939Y-85452872D01*
X129635487Y-85451500D01*
X129444513Y-85451500D01*
X129438061Y-85452872D01*
X129438056Y-85452872D01*
X129351113Y-85471353D01*
X129257712Y-85491206D01*
X129251682Y-85493891D01*
X129251681Y-85493891D01*
X129089278Y-85566197D01*
X129089276Y-85566198D01*
X129083248Y-85568882D01*
X128928747Y-85681134D01*
X128924326Y-85686044D01*
X128924325Y-85686045D01*
X128890492Y-85723621D01*
X128800960Y-85823056D01*
X128705473Y-85988444D01*
X128646458Y-86170072D01*
X128626496Y-86360000D01*
X128646458Y-86549928D01*
X128705473Y-86731556D01*
X128800960Y-86896944D01*
X128805378Y-86901851D01*
X128805379Y-86901852D01*
X128887452Y-86993003D01*
X128928747Y-87038866D01*
X129083248Y-87151118D01*
X129089276Y-87153802D01*
X129089278Y-87153803D01*
X129251681Y-87226109D01*
X129257712Y-87228794D01*
X129351113Y-87248647D01*
X129438056Y-87267128D01*
X129438061Y-87267128D01*
X129444513Y-87268500D01*
X129500406Y-87268500D01*
X129568527Y-87288502D01*
X129589501Y-87305405D01*
X133949595Y-91665500D01*
X133983621Y-91727812D01*
X133986500Y-91754595D01*
X133986500Y-93277476D01*
X133966498Y-93345597D01*
X133954142Y-93361779D01*
X133880960Y-93443056D01*
X133785473Y-93608444D01*
X133726458Y-93790072D01*
X133725768Y-93796633D01*
X133725768Y-93796635D01*
X133709093Y-93955293D01*
X133706496Y-93980000D01*
X133726458Y-94169928D01*
X133785473Y-94351556D01*
X133880960Y-94516944D01*
X133885378Y-94521851D01*
X133885379Y-94521852D01*
X133967899Y-94613500D01*
X134008747Y-94658866D01*
X134058520Y-94695028D01*
X134154953Y-94765091D01*
X134163248Y-94771118D01*
X134169276Y-94773802D01*
X134169278Y-94773803D01*
X134191658Y-94783767D01*
X134337712Y-94848794D01*
X134431113Y-94868647D01*
X134518056Y-94887128D01*
X134518061Y-94887128D01*
X134524513Y-94888500D01*
X134715487Y-94888500D01*
X134721939Y-94887128D01*
X134721944Y-94887128D01*
X134808888Y-94868647D01*
X134902288Y-94848794D01*
X135048342Y-94783767D01*
X135070722Y-94773803D01*
X135070724Y-94773802D01*
X135076752Y-94771118D01*
X135085048Y-94765091D01*
X135181480Y-94695028D01*
X135231253Y-94658866D01*
X135272101Y-94613500D01*
X135354621Y-94521852D01*
X135354622Y-94521851D01*
X135359040Y-94516944D01*
X135454527Y-94351556D01*
X135513542Y-94169928D01*
X135530907Y-94004707D01*
X135557920Y-93939051D01*
X135567135Y-93928769D01*
X135570514Y-93925391D01*
X135632831Y-93891376D01*
X135659596Y-93888500D01*
X137125500Y-93888500D01*
X137193621Y-93908502D01*
X137240114Y-93962158D01*
X137251500Y-94014500D01*
X137251500Y-105640406D01*
X137231498Y-105708527D01*
X137214595Y-105729501D01*
X137209501Y-105734595D01*
X137147189Y-105768621D01*
X137120406Y-105771500D01*
X137064513Y-105771500D01*
X137058061Y-105772872D01*
X137058056Y-105772872D01*
X136971113Y-105791353D01*
X136877712Y-105811206D01*
X136871682Y-105813891D01*
X136871681Y-105813891D01*
X136709278Y-105886197D01*
X136709276Y-105886198D01*
X136703248Y-105888882D01*
X136548747Y-106001134D01*
X136544240Y-106006140D01*
X136544177Y-106006179D01*
X136539423Y-106010459D01*
X136538640Y-106009589D01*
X136483792Y-106043374D01*
X136412808Y-106042017D01*
X136361516Y-106010916D01*
X127670405Y-97319805D01*
X127636379Y-97257493D01*
X127633500Y-97230710D01*
X127633500Y-94058763D01*
X127634027Y-94047579D01*
X127635701Y-94040091D01*
X127633562Y-93972032D01*
X127633500Y-93968075D01*
X127633500Y-89602524D01*
X127653502Y-89534403D01*
X127665858Y-89518221D01*
X127739040Y-89436944D01*
X127834527Y-89271556D01*
X127893542Y-89089928D01*
X127913504Y-88900000D01*
X127904285Y-88812289D01*
X127894232Y-88716635D01*
X127894232Y-88716633D01*
X127893542Y-88710072D01*
X127834527Y-88528444D01*
X127739040Y-88363056D01*
X127611253Y-88221134D01*
X127456752Y-88108882D01*
X127450724Y-88106198D01*
X127450722Y-88106197D01*
X127288319Y-88033891D01*
X127288318Y-88033891D01*
X127282288Y-88031206D01*
X127188887Y-88011353D01*
X127101944Y-87992872D01*
X127101939Y-87992872D01*
X127095487Y-87991500D01*
X126904513Y-87991500D01*
X126898061Y-87992872D01*
X126898056Y-87992872D01*
X126811112Y-88011353D01*
X126717712Y-88031206D01*
X126711682Y-88033891D01*
X126711681Y-88033891D01*
X126549278Y-88106197D01*
X126549276Y-88106198D01*
X126543248Y-88108882D01*
X126388747Y-88221134D01*
X126260960Y-88363056D01*
X126165473Y-88528444D01*
X126106458Y-88710072D01*
X126105768Y-88716633D01*
X126105768Y-88716635D01*
X126095715Y-88812289D01*
X126086496Y-88900000D01*
X126106458Y-89089928D01*
X126165473Y-89271556D01*
X126260960Y-89436944D01*
X126334137Y-89518215D01*
X126364853Y-89582221D01*
X126366500Y-89602524D01*
X126366500Y-92146405D01*
X126346498Y-92214526D01*
X126292842Y-92261019D01*
X126222568Y-92271123D01*
X126157988Y-92241629D01*
X126151405Y-92235500D01*
X125130405Y-91214500D01*
X125096379Y-91152188D01*
X125093500Y-91125405D01*
X125093500Y-89602524D01*
X125113502Y-89534403D01*
X125125858Y-89518221D01*
X125199040Y-89436944D01*
X125294527Y-89271556D01*
X125353542Y-89089928D01*
X125373504Y-88900000D01*
X125364285Y-88812289D01*
X125354232Y-88716635D01*
X125354232Y-88716633D01*
X125353542Y-88710072D01*
X125294527Y-88528444D01*
X125199040Y-88363056D01*
X125071253Y-88221134D01*
X124916752Y-88108882D01*
X124910724Y-88106198D01*
X124910722Y-88106197D01*
X124748319Y-88033891D01*
X124748318Y-88033891D01*
X124742288Y-88031206D01*
X124648887Y-88011353D01*
X124561944Y-87992872D01*
X124561939Y-87992872D01*
X124555487Y-87991500D01*
X124364513Y-87991500D01*
X124358061Y-87992872D01*
X124358056Y-87992872D01*
X124271112Y-88011353D01*
X124177712Y-88031206D01*
X124171682Y-88033891D01*
X124171681Y-88033891D01*
X124009278Y-88106197D01*
X124009276Y-88106198D01*
X124003248Y-88108882D01*
X123848747Y-88221134D01*
X123720960Y-88363056D01*
X123625473Y-88528444D01*
X123566458Y-88710072D01*
X123565768Y-88716633D01*
X123565768Y-88716635D01*
X123555715Y-88812289D01*
X123546496Y-88900000D01*
X123566458Y-89089928D01*
X123625473Y-89271556D01*
X123720960Y-89436944D01*
X123794137Y-89518215D01*
X123824853Y-89582221D01*
X123826500Y-89602524D01*
X123826500Y-91361233D01*
X123825973Y-91372416D01*
X123824298Y-91379909D01*
X123824547Y-91387835D01*
X123824547Y-91387836D01*
X123826438Y-91447986D01*
X123826500Y-91451945D01*
X123826500Y-91479856D01*
X123826997Y-91483790D01*
X123826997Y-91483791D01*
X123827005Y-91483856D01*
X123827938Y-91495693D01*
X123829327Y-91539889D01*
X123834978Y-91559339D01*
X123838987Y-91578700D01*
X123841526Y-91598797D01*
X123844445Y-91606168D01*
X123844445Y-91606170D01*
X123857804Y-91639912D01*
X123861649Y-91651142D01*
X123873982Y-91693593D01*
X123878015Y-91700412D01*
X123878017Y-91700417D01*
X123884293Y-91711028D01*
X123892988Y-91728776D01*
X123900448Y-91747617D01*
X123905110Y-91754033D01*
X123905110Y-91754034D01*
X123926436Y-91783387D01*
X123932952Y-91793307D01*
X123943745Y-91811556D01*
X123955458Y-91831362D01*
X123969779Y-91845683D01*
X123982619Y-91860716D01*
X123994528Y-91877107D01*
X124028605Y-91905298D01*
X124037384Y-91913288D01*
X125233641Y-93109545D01*
X125244600Y-93129615D01*
X125250497Y-93131225D01*
X125273502Y-93149406D01*
X126329595Y-94205499D01*
X126363621Y-94267811D01*
X126366500Y-94294594D01*
X126366500Y-97466538D01*
X126365973Y-97477721D01*
X126364298Y-97485214D01*
X126364547Y-97493140D01*
X126364547Y-97493141D01*
X126366438Y-97553291D01*
X126366500Y-97557250D01*
X126366500Y-101285405D01*
X126346498Y-101353526D01*
X126329595Y-101374500D01*
X124509500Y-103194595D01*
X124447188Y-103228621D01*
X124420405Y-103231500D01*
X124364513Y-103231500D01*
X124358061Y-103232872D01*
X124358056Y-103232872D01*
X124271113Y-103251353D01*
X124177712Y-103271206D01*
X124171682Y-103273891D01*
X124171681Y-103273891D01*
X124009278Y-103346197D01*
X124009276Y-103346198D01*
X124003248Y-103348882D01*
X123848747Y-103461134D01*
X123720960Y-103603056D01*
X123625473Y-103768444D01*
X123566458Y-103950072D01*
X123546496Y-104140000D01*
X102108500Y-104140000D01*
X102108500Y-93980000D01*
X108306496Y-93980000D01*
X108326458Y-94169928D01*
X108385473Y-94351556D01*
X108480960Y-94516944D01*
X108485378Y-94521851D01*
X108485379Y-94521852D01*
X108567899Y-94613500D01*
X108608747Y-94658866D01*
X108658520Y-94695028D01*
X108754953Y-94765091D01*
X108763248Y-94771118D01*
X108769276Y-94773802D01*
X108769278Y-94773803D01*
X108791658Y-94783767D01*
X108937712Y-94848794D01*
X109031113Y-94868647D01*
X109118056Y-94887128D01*
X109118061Y-94887128D01*
X109124513Y-94888500D01*
X109315487Y-94888500D01*
X109321939Y-94887128D01*
X109321944Y-94887128D01*
X109408888Y-94868647D01*
X109502288Y-94848794D01*
X109648342Y-94783767D01*
X109670722Y-94773803D01*
X109670724Y-94773802D01*
X109676752Y-94771118D01*
X109685048Y-94765091D01*
X109781480Y-94695028D01*
X109831253Y-94658866D01*
X109872101Y-94613500D01*
X109954621Y-94521852D01*
X109954622Y-94521851D01*
X109959040Y-94516944D01*
X110054527Y-94351556D01*
X110113542Y-94169928D01*
X110133504Y-93980000D01*
X110130907Y-93955293D01*
X110114232Y-93796635D01*
X110114232Y-93796633D01*
X110113542Y-93790072D01*
X110054527Y-93608444D01*
X109959040Y-93443056D01*
X109885863Y-93361785D01*
X109855147Y-93297779D01*
X109853500Y-93277476D01*
X109853500Y-89214594D01*
X109873502Y-89146473D01*
X109890405Y-89125499D01*
X110115904Y-88900000D01*
X113386496Y-88900000D01*
X113406458Y-89089928D01*
X113465473Y-89271556D01*
X113560960Y-89436944D01*
X113634137Y-89518215D01*
X113664853Y-89582221D01*
X113666500Y-89602524D01*
X113666500Y-96441233D01*
X113665973Y-96452416D01*
X113664298Y-96459909D01*
X113664547Y-96467835D01*
X113664547Y-96467836D01*
X113666438Y-96527986D01*
X113666500Y-96531945D01*
X113666500Y-96559856D01*
X113666997Y-96563790D01*
X113666997Y-96563791D01*
X113667005Y-96563856D01*
X113667938Y-96575693D01*
X113669327Y-96619889D01*
X113674978Y-96639339D01*
X113678987Y-96658700D01*
X113681526Y-96678797D01*
X113684445Y-96686168D01*
X113684445Y-96686170D01*
X113697804Y-96719912D01*
X113701649Y-96731142D01*
X113713982Y-96773593D01*
X113718015Y-96780412D01*
X113718017Y-96780417D01*
X113724293Y-96791028D01*
X113732988Y-96808776D01*
X113740448Y-96827617D01*
X113745110Y-96834033D01*
X113745110Y-96834034D01*
X113766436Y-96863387D01*
X113772952Y-96873307D01*
X113788937Y-96900335D01*
X113795458Y-96911362D01*
X113809779Y-96925683D01*
X113822619Y-96940716D01*
X113834528Y-96957107D01*
X113840634Y-96962158D01*
X113868605Y-96985298D01*
X113877384Y-96993288D01*
X116336343Y-99452247D01*
X116343887Y-99460537D01*
X116348000Y-99467018D01*
X116353777Y-99472443D01*
X116397667Y-99513658D01*
X116400509Y-99516413D01*
X116420230Y-99536134D01*
X116423425Y-99538612D01*
X116432447Y-99546318D01*
X116464679Y-99576586D01*
X116471628Y-99580406D01*
X116482432Y-99586346D01*
X116498956Y-99597199D01*
X116514959Y-99609613D01*
X116555543Y-99627176D01*
X116566173Y-99632383D01*
X116604940Y-99653695D01*
X116612617Y-99655666D01*
X116612622Y-99655668D01*
X116624558Y-99658732D01*
X116643266Y-99665137D01*
X116661855Y-99673181D01*
X116669680Y-99674420D01*
X116669682Y-99674421D01*
X116705519Y-99680097D01*
X116717140Y-99682504D01*
X116752289Y-99691528D01*
X116759970Y-99693500D01*
X116780231Y-99693500D01*
X116799940Y-99695051D01*
X116819943Y-99698219D01*
X116827835Y-99697473D01*
X116833062Y-99696979D01*
X116863954Y-99694059D01*
X116875811Y-99693500D01*
X123751800Y-99693500D01*
X123819921Y-99713502D01*
X123839147Y-99729843D01*
X123839420Y-99729540D01*
X123844332Y-99733963D01*
X123848747Y-99738866D01*
X124003248Y-99851118D01*
X124009276Y-99853802D01*
X124009278Y-99853803D01*
X124171681Y-99926109D01*
X124177712Y-99928794D01*
X124271112Y-99948647D01*
X124358056Y-99967128D01*
X124358061Y-99967128D01*
X124364513Y-99968500D01*
X124555487Y-99968500D01*
X124561939Y-99967128D01*
X124561944Y-99967128D01*
X124648888Y-99948647D01*
X124742288Y-99928794D01*
X124748319Y-99926109D01*
X124910722Y-99853803D01*
X124910724Y-99853802D01*
X124916752Y-99851118D01*
X125071253Y-99738866D01*
X125107852Y-99698219D01*
X125194621Y-99601852D01*
X125194625Y-99601847D01*
X125199040Y-99596944D01*
X125274053Y-99467018D01*
X125291223Y-99437279D01*
X125291224Y-99437278D01*
X125294527Y-99431556D01*
X125353542Y-99249928D01*
X125373504Y-99060000D01*
X125353542Y-98870072D01*
X125294527Y-98688444D01*
X125199040Y-98523056D01*
X125071253Y-98381134D01*
X124916752Y-98268882D01*
X124910724Y-98266198D01*
X124910722Y-98266197D01*
X124748319Y-98193891D01*
X124748318Y-98193891D01*
X124742288Y-98191206D01*
X124648888Y-98171353D01*
X124561944Y-98152872D01*
X124561939Y-98152872D01*
X124555487Y-98151500D01*
X124364513Y-98151500D01*
X124358061Y-98152872D01*
X124358056Y-98152872D01*
X124271112Y-98171353D01*
X124177712Y-98191206D01*
X124171682Y-98193891D01*
X124171681Y-98193891D01*
X124009278Y-98266197D01*
X124009276Y-98266198D01*
X124003248Y-98268882D01*
X123848747Y-98381134D01*
X123844332Y-98386037D01*
X123839420Y-98390460D01*
X123838295Y-98389211D01*
X123784986Y-98422051D01*
X123751800Y-98426500D01*
X117154595Y-98426500D01*
X117086474Y-98406498D01*
X117065500Y-98389595D01*
X116066363Y-97390458D01*
X116055398Y-97370377D01*
X116049494Y-97368765D01*
X116026489Y-97350584D01*
X115195905Y-96520000D01*
X115926496Y-96520000D01*
X115946458Y-96709928D01*
X116005473Y-96891556D01*
X116008776Y-96897278D01*
X116008777Y-96897279D01*
X116038592Y-96948919D01*
X116100960Y-97056944D01*
X116105378Y-97061851D01*
X116105379Y-97061852D01*
X116209220Y-97177179D01*
X116215734Y-97190751D01*
X116215843Y-97190775D01*
X116229519Y-97199427D01*
X116312610Y-97259796D01*
X116383248Y-97311118D01*
X116389276Y-97313802D01*
X116389278Y-97313803D01*
X116551681Y-97386109D01*
X116557712Y-97388794D01*
X116651112Y-97408647D01*
X116738056Y-97427128D01*
X116738061Y-97427128D01*
X116744513Y-97428500D01*
X116800405Y-97428500D01*
X116868526Y-97448502D01*
X116889500Y-97465405D01*
X117061348Y-97637253D01*
X117068888Y-97645539D01*
X117073000Y-97652018D01*
X117078777Y-97657443D01*
X117122651Y-97698643D01*
X117125493Y-97701398D01*
X117145230Y-97721135D01*
X117148427Y-97723615D01*
X117157447Y-97731318D01*
X117189679Y-97761586D01*
X117196625Y-97765405D01*
X117196628Y-97765407D01*
X117207434Y-97771348D01*
X117223953Y-97782199D01*
X117239959Y-97794614D01*
X117247228Y-97797759D01*
X117247232Y-97797762D01*
X117280537Y-97812174D01*
X117291187Y-97817391D01*
X117329940Y-97838695D01*
X117337615Y-97840666D01*
X117337616Y-97840666D01*
X117349562Y-97843733D01*
X117368267Y-97850137D01*
X117386855Y-97858181D01*
X117394678Y-97859420D01*
X117394688Y-97859423D01*
X117430524Y-97865099D01*
X117442144Y-97867505D01*
X117473959Y-97875673D01*
X117484970Y-97878500D01*
X117505224Y-97878500D01*
X117524934Y-97880051D01*
X117544943Y-97883220D01*
X117552835Y-97882474D01*
X117571580Y-97880702D01*
X117588962Y-97879059D01*
X117600819Y-97878500D01*
X122141538Y-97878500D01*
X122152721Y-97879027D01*
X122160214Y-97880702D01*
X122168140Y-97880453D01*
X122168141Y-97880453D01*
X122228291Y-97878562D01*
X122232250Y-97878500D01*
X122260161Y-97878500D01*
X122264096Y-97878003D01*
X122264161Y-97877995D01*
X122275998Y-97877062D01*
X122308256Y-97876048D01*
X122312275Y-97875922D01*
X122320194Y-97875673D01*
X122339648Y-97870021D01*
X122359005Y-97866013D01*
X122371235Y-97864468D01*
X122371236Y-97864468D01*
X122379102Y-97863474D01*
X122386473Y-97860555D01*
X122386475Y-97860555D01*
X122420217Y-97847196D01*
X122431447Y-97843351D01*
X122466288Y-97833229D01*
X122466289Y-97833229D01*
X122473898Y-97831018D01*
X122480717Y-97826985D01*
X122480722Y-97826983D01*
X122491333Y-97820707D01*
X122509081Y-97812012D01*
X122527922Y-97804552D01*
X122563692Y-97778564D01*
X122573612Y-97772048D01*
X122604840Y-97753580D01*
X122604843Y-97753578D01*
X122611667Y-97749542D01*
X122625988Y-97735221D01*
X122641022Y-97722380D01*
X122650999Y-97715131D01*
X122657412Y-97710472D01*
X122685603Y-97676395D01*
X122693593Y-97667616D01*
X123037247Y-97323962D01*
X123045537Y-97316418D01*
X123052018Y-97312305D01*
X123098659Y-97262637D01*
X123101413Y-97259796D01*
X123121134Y-97240075D01*
X123123612Y-97236880D01*
X123131318Y-97227858D01*
X123156158Y-97201406D01*
X123161586Y-97195626D01*
X123171346Y-97177873D01*
X123182199Y-97161350D01*
X123189753Y-97151611D01*
X123194613Y-97145346D01*
X123212176Y-97104762D01*
X123217383Y-97094132D01*
X123238695Y-97055365D01*
X123240666Y-97047688D01*
X123240668Y-97047683D01*
X123243732Y-97035747D01*
X123250138Y-97017035D01*
X123255034Y-97005722D01*
X123258181Y-96998450D01*
X123265097Y-96954786D01*
X123267504Y-96943165D01*
X123276528Y-96908016D01*
X123276528Y-96908015D01*
X123278500Y-96900335D01*
X123278500Y-96880074D01*
X123280051Y-96860363D01*
X123281979Y-96848190D01*
X123283219Y-96840362D01*
X123279059Y-96796351D01*
X123278500Y-96784494D01*
X123278500Y-94783767D01*
X123279027Y-94772584D01*
X123280702Y-94765091D01*
X123278562Y-94697000D01*
X123278500Y-94693043D01*
X123278500Y-94665144D01*
X123277996Y-94661153D01*
X123277063Y-94649311D01*
X123276078Y-94617949D01*
X123275674Y-94605111D01*
X123273462Y-94597497D01*
X123273461Y-94597492D01*
X123270023Y-94585659D01*
X123266012Y-94566295D01*
X123264467Y-94554064D01*
X123263474Y-94546203D01*
X123260557Y-94538836D01*
X123260556Y-94538831D01*
X123247198Y-94505092D01*
X123243354Y-94493865D01*
X123233230Y-94459022D01*
X123231018Y-94451407D01*
X123220707Y-94433972D01*
X123212012Y-94416224D01*
X123204552Y-94397383D01*
X123178564Y-94361613D01*
X123172048Y-94351693D01*
X123153580Y-94320465D01*
X123153578Y-94320462D01*
X123149542Y-94313638D01*
X123135221Y-94299317D01*
X123122380Y-94284283D01*
X123115132Y-94274307D01*
X123110472Y-94267893D01*
X123076401Y-94239707D01*
X123067622Y-94231718D01*
X122867122Y-94031218D01*
X122833096Y-93968906D01*
X122830907Y-93955293D01*
X122814232Y-93796635D01*
X122814232Y-93796633D01*
X122813542Y-93790072D01*
X122754527Y-93608444D01*
X122659040Y-93443056D01*
X122620389Y-93400129D01*
X122550771Y-93322811D01*
X122544263Y-93309250D01*
X122544161Y-93309228D01*
X122530485Y-93300576D01*
X122382094Y-93192763D01*
X122382093Y-93192762D01*
X122376752Y-93188882D01*
X122370724Y-93186198D01*
X122370722Y-93186197D01*
X122208319Y-93113891D01*
X122208318Y-93113891D01*
X122202288Y-93111206D01*
X122108887Y-93091353D01*
X122021944Y-93072872D01*
X122021939Y-93072872D01*
X122015487Y-93071500D01*
X121824513Y-93071500D01*
X121818061Y-93072872D01*
X121818056Y-93072872D01*
X121731113Y-93091353D01*
X121637712Y-93111206D01*
X121631682Y-93113891D01*
X121631681Y-93113891D01*
X121469278Y-93186197D01*
X121469276Y-93186198D01*
X121463248Y-93188882D01*
X121308747Y-93301134D01*
X121304326Y-93306044D01*
X121304325Y-93306045D01*
X121219612Y-93400129D01*
X121180960Y-93443056D01*
X121085473Y-93608444D01*
X121026458Y-93790072D01*
X121025768Y-93796633D01*
X121025768Y-93796635D01*
X121009093Y-93955293D01*
X121006496Y-93980000D01*
X121026458Y-94169928D01*
X121085473Y-94351556D01*
X121180960Y-94516944D01*
X121185378Y-94521851D01*
X121185379Y-94521852D01*
X121267899Y-94613500D01*
X121308747Y-94658866D01*
X121358520Y-94695028D01*
X121454953Y-94765091D01*
X121463248Y-94771118D01*
X121469276Y-94773802D01*
X121469278Y-94773803D01*
X121491658Y-94783767D01*
X121637712Y-94848794D01*
X121731113Y-94868647D01*
X121818056Y-94887128D01*
X121818061Y-94887128D01*
X121824513Y-94888500D01*
X121880405Y-94888500D01*
X121948526Y-94908502D01*
X121969500Y-94925405D01*
X121974595Y-94930500D01*
X122008621Y-94992812D01*
X122011500Y-95019595D01*
X122011500Y-96485500D01*
X121991498Y-96553621D01*
X121937842Y-96600114D01*
X121885500Y-96611500D01*
X117879594Y-96611500D01*
X117811473Y-96591498D01*
X117790499Y-96574595D01*
X117787122Y-96571218D01*
X117753096Y-96508906D01*
X117750907Y-96495293D01*
X117734232Y-96336635D01*
X117734232Y-96336633D01*
X117733542Y-96330072D01*
X117674527Y-96148444D01*
X117579040Y-95983056D01*
X117451253Y-95841134D01*
X117296752Y-95728882D01*
X117290724Y-95726198D01*
X117290722Y-95726197D01*
X117128319Y-95653891D01*
X117128318Y-95653891D01*
X117122288Y-95651206D01*
X117028888Y-95631353D01*
X116941944Y-95612872D01*
X116941939Y-95612872D01*
X116935487Y-95611500D01*
X116744513Y-95611500D01*
X116738061Y-95612872D01*
X116738056Y-95612872D01*
X116651112Y-95631353D01*
X116557712Y-95651206D01*
X116551682Y-95653891D01*
X116551681Y-95653891D01*
X116389278Y-95726197D01*
X116389276Y-95726198D01*
X116383248Y-95728882D01*
X116228747Y-95841134D01*
X116100960Y-95983056D01*
X116005473Y-96148444D01*
X115946458Y-96330072D01*
X115926496Y-96520000D01*
X115195905Y-96520000D01*
X114970405Y-96294500D01*
X114936379Y-96232188D01*
X114933500Y-96205405D01*
X114933500Y-89602524D01*
X114953502Y-89534403D01*
X114965858Y-89518221D01*
X115039040Y-89436944D01*
X115134527Y-89271556D01*
X115193542Y-89089928D01*
X115213504Y-88900000D01*
X115204285Y-88812289D01*
X115194232Y-88716635D01*
X115194232Y-88716633D01*
X115193542Y-88710072D01*
X115134527Y-88528444D01*
X115039040Y-88363056D01*
X114911253Y-88221134D01*
X114756752Y-88108882D01*
X114750724Y-88106198D01*
X114750722Y-88106197D01*
X114588319Y-88033891D01*
X114588318Y-88033891D01*
X114582288Y-88031206D01*
X114488887Y-88011353D01*
X114401944Y-87992872D01*
X114401939Y-87992872D01*
X114395487Y-87991500D01*
X114204513Y-87991500D01*
X114198061Y-87992872D01*
X114198056Y-87992872D01*
X114111113Y-88011353D01*
X114017712Y-88031206D01*
X114011682Y-88033891D01*
X114011681Y-88033891D01*
X113849278Y-88106197D01*
X113849276Y-88106198D01*
X113843248Y-88108882D01*
X113688747Y-88221134D01*
X113560960Y-88363056D01*
X113465473Y-88528444D01*
X113406458Y-88710072D01*
X113405768Y-88716633D01*
X113405768Y-88716635D01*
X113395715Y-88812289D01*
X113386496Y-88900000D01*
X110115904Y-88900000D01*
X111710499Y-87305405D01*
X111772811Y-87271379D01*
X111799594Y-87268500D01*
X111855487Y-87268500D01*
X111861939Y-87267128D01*
X111861944Y-87267128D01*
X111948887Y-87248647D01*
X112042288Y-87228794D01*
X112048319Y-87226109D01*
X112210722Y-87153803D01*
X112210724Y-87153802D01*
X112216752Y-87151118D01*
X112371253Y-87038866D01*
X112412548Y-86993003D01*
X112494621Y-86901852D01*
X112494622Y-86901851D01*
X112499040Y-86896944D01*
X112594527Y-86731556D01*
X112653542Y-86549928D01*
X112673504Y-86360000D01*
X112653542Y-86170072D01*
X112594527Y-85988444D01*
X112499040Y-85823056D01*
X112409509Y-85723621D01*
X112375675Y-85686045D01*
X112375674Y-85686044D01*
X112371253Y-85681134D01*
X112216752Y-85568882D01*
X112210724Y-85566198D01*
X112210722Y-85566197D01*
X112048319Y-85493891D01*
X112048318Y-85493891D01*
X112042288Y-85491206D01*
X111948887Y-85471353D01*
X111861944Y-85452872D01*
X111861939Y-85452872D01*
X111855487Y-85451500D01*
X111664513Y-85451500D01*
X111658061Y-85452872D01*
X111658056Y-85452872D01*
X111571113Y-85471353D01*
X111477712Y-85491206D01*
X111471682Y-85493891D01*
X111471681Y-85493891D01*
X111309278Y-85566197D01*
X111309276Y-85566198D01*
X111303248Y-85568882D01*
X111148747Y-85681134D01*
X111144326Y-85686044D01*
X111144325Y-85686045D01*
X111110492Y-85723621D01*
X111020960Y-85823056D01*
X110925473Y-85988444D01*
X110866458Y-86170072D01*
X110865768Y-86176633D01*
X110865768Y-86176635D01*
X110849093Y-86335292D01*
X110822080Y-86400949D01*
X110812878Y-86411217D01*
X108827747Y-88396348D01*
X108819461Y-88403888D01*
X108812982Y-88408000D01*
X108807557Y-88413777D01*
X108766357Y-88457651D01*
X108763602Y-88460493D01*
X108743865Y-88480230D01*
X108741385Y-88483427D01*
X108733682Y-88492447D01*
X108703414Y-88524679D01*
X108699595Y-88531625D01*
X108699593Y-88531628D01*
X108693652Y-88542434D01*
X108682801Y-88558953D01*
X108670386Y-88574959D01*
X108667241Y-88582228D01*
X108667238Y-88582232D01*
X108652826Y-88615537D01*
X108647609Y-88626187D01*
X108626305Y-88664940D01*
X108624334Y-88672615D01*
X108624334Y-88672616D01*
X108621267Y-88684562D01*
X108614863Y-88703266D01*
X108606819Y-88721855D01*
X108605580Y-88729678D01*
X108605577Y-88729688D01*
X108599901Y-88765524D01*
X108597495Y-88777144D01*
X108586500Y-88819970D01*
X108586500Y-88840224D01*
X108584949Y-88859934D01*
X108581780Y-88879943D01*
X108582526Y-88887835D01*
X108585941Y-88923961D01*
X108586500Y-88935819D01*
X108586500Y-93277476D01*
X108566498Y-93345597D01*
X108554142Y-93361779D01*
X108480960Y-93443056D01*
X108385473Y-93608444D01*
X108326458Y-93790072D01*
X108325768Y-93796633D01*
X108325768Y-93796635D01*
X108309093Y-93955293D01*
X108306496Y-93980000D01*
X102108500Y-93980000D01*
X102108500Y-78740000D01*
X110846496Y-78740000D01*
X110866458Y-78929928D01*
X110925473Y-79111556D01*
X111020960Y-79276944D01*
X111094137Y-79358215D01*
X111124853Y-79422221D01*
X111126500Y-79442524D01*
X111126500Y-81201233D01*
X111125973Y-81212416D01*
X111124298Y-81219909D01*
X111124547Y-81227835D01*
X111124547Y-81227836D01*
X111126438Y-81287986D01*
X111126500Y-81291945D01*
X111126500Y-81319856D01*
X111126997Y-81323790D01*
X111126997Y-81323791D01*
X111127005Y-81323856D01*
X111127938Y-81335693D01*
X111129327Y-81379889D01*
X111134978Y-81399339D01*
X111138987Y-81418700D01*
X111141526Y-81438797D01*
X111144445Y-81446168D01*
X111144445Y-81446170D01*
X111157804Y-81479912D01*
X111161649Y-81491142D01*
X111173982Y-81533593D01*
X111178015Y-81540412D01*
X111178017Y-81540417D01*
X111184293Y-81551028D01*
X111192988Y-81568776D01*
X111200448Y-81587617D01*
X111205110Y-81594033D01*
X111205110Y-81594034D01*
X111226436Y-81623387D01*
X111232952Y-81633307D01*
X111243745Y-81651556D01*
X111255458Y-81671362D01*
X111269779Y-81685683D01*
X111282619Y-81700716D01*
X111294528Y-81717107D01*
X111300634Y-81722158D01*
X111328605Y-81745298D01*
X111337384Y-81753288D01*
X122693641Y-93109545D01*
X122704600Y-93129615D01*
X122710497Y-93131225D01*
X122733502Y-93149406D01*
X123512878Y-93928782D01*
X123546904Y-93991094D01*
X123549092Y-94004703D01*
X123566458Y-94169928D01*
X123625473Y-94351556D01*
X123720960Y-94516944D01*
X123725378Y-94521851D01*
X123725379Y-94521852D01*
X123807899Y-94613500D01*
X123848747Y-94658866D01*
X123898520Y-94695028D01*
X123994953Y-94765091D01*
X124003248Y-94771118D01*
X124009276Y-94773802D01*
X124009278Y-94773803D01*
X124031658Y-94783767D01*
X124177712Y-94848794D01*
X124271113Y-94868647D01*
X124358056Y-94887128D01*
X124358061Y-94887128D01*
X124364513Y-94888500D01*
X124555487Y-94888500D01*
X124561939Y-94887128D01*
X124561944Y-94887128D01*
X124648888Y-94868647D01*
X124742288Y-94848794D01*
X124888342Y-94783767D01*
X124910722Y-94773803D01*
X124910724Y-94773802D01*
X124916752Y-94771118D01*
X124925048Y-94765091D01*
X125021480Y-94695028D01*
X125071253Y-94658866D01*
X125112101Y-94613500D01*
X125194621Y-94521852D01*
X125194622Y-94521851D01*
X125199040Y-94516944D01*
X125294527Y-94351556D01*
X125353542Y-94169928D01*
X125373504Y-93980000D01*
X125370907Y-93955293D01*
X125354232Y-93796635D01*
X125354232Y-93796633D01*
X125353542Y-93790072D01*
X125294527Y-93608444D01*
X125199040Y-93443056D01*
X125160389Y-93400129D01*
X125090771Y-93322811D01*
X125084263Y-93309250D01*
X125084161Y-93309228D01*
X125070485Y-93300576D01*
X124922094Y-93192763D01*
X124922093Y-93192762D01*
X124916752Y-93188882D01*
X124910724Y-93186198D01*
X124910722Y-93186197D01*
X124748319Y-93113891D01*
X124748318Y-93113891D01*
X124742288Y-93111206D01*
X124648887Y-93091353D01*
X124561944Y-93072872D01*
X124561939Y-93072872D01*
X124555487Y-93071500D01*
X124499595Y-93071500D01*
X124431474Y-93051498D01*
X124410500Y-93034595D01*
X112430405Y-81054500D01*
X112396379Y-80992188D01*
X112393500Y-80965405D01*
X112393500Y-79442524D01*
X112413502Y-79374403D01*
X112425858Y-79358221D01*
X112499040Y-79276944D01*
X112594527Y-79111556D01*
X112653542Y-78929928D01*
X112664474Y-78825919D01*
X123504501Y-78825919D01*
X123504871Y-78832740D01*
X123510395Y-78883602D01*
X123514021Y-78898854D01*
X123559176Y-79019304D01*
X123567714Y-79034899D01*
X123644215Y-79136974D01*
X123656776Y-79149535D01*
X123758851Y-79226036D01*
X123774446Y-79234574D01*
X123894894Y-79279728D01*
X123910149Y-79283355D01*
X123961014Y-79288881D01*
X123967828Y-79289250D01*
X125240385Y-79289250D01*
X125255624Y-79284775D01*
X125256829Y-79283385D01*
X125258500Y-79275702D01*
X125258500Y-79271134D01*
X125766500Y-79271134D01*
X125770975Y-79286373D01*
X125772365Y-79287578D01*
X125780048Y-79289249D01*
X127057169Y-79289249D01*
X127063990Y-79288879D01*
X127114852Y-79283355D01*
X127130104Y-79279729D01*
X127250554Y-79234574D01*
X127266149Y-79226036D01*
X127368224Y-79149535D01*
X127380785Y-79136974D01*
X127457286Y-79034899D01*
X127465824Y-79019304D01*
X127510978Y-78898856D01*
X127514605Y-78883601D01*
X127520131Y-78832736D01*
X127520500Y-78825922D01*
X127520500Y-77553365D01*
X127516025Y-77538126D01*
X127514635Y-77536921D01*
X127506952Y-77535250D01*
X125784615Y-77535250D01*
X125769376Y-77539725D01*
X125768171Y-77541115D01*
X125766500Y-77548798D01*
X125766500Y-79271134D01*
X125258500Y-79271134D01*
X125258500Y-77553365D01*
X125254025Y-77538126D01*
X125252635Y-77536921D01*
X125244952Y-77535250D01*
X123522616Y-77535250D01*
X123507377Y-77539725D01*
X123506172Y-77541115D01*
X123504501Y-77548798D01*
X123504501Y-78825919D01*
X112664474Y-78825919D01*
X112673504Y-78740000D01*
X112653542Y-78550072D01*
X112594527Y-78368444D01*
X112499040Y-78203056D01*
X112427030Y-78123080D01*
X112375675Y-78066045D01*
X112375674Y-78066044D01*
X112371253Y-78061134D01*
X112216752Y-77948882D01*
X112210724Y-77946198D01*
X112210722Y-77946197D01*
X112048319Y-77873891D01*
X112048318Y-77873891D01*
X112042288Y-77871206D01*
X111948888Y-77851353D01*
X111861944Y-77832872D01*
X111861939Y-77832872D01*
X111855487Y-77831500D01*
X111664513Y-77831500D01*
X111658061Y-77832872D01*
X111658056Y-77832872D01*
X111571112Y-77851353D01*
X111477712Y-77871206D01*
X111471682Y-77873891D01*
X111471681Y-77873891D01*
X111309278Y-77946197D01*
X111309276Y-77946198D01*
X111303248Y-77948882D01*
X111148747Y-78061134D01*
X111144326Y-78066044D01*
X111144325Y-78066045D01*
X111092971Y-78123080D01*
X111020960Y-78203056D01*
X110925473Y-78368444D01*
X110866458Y-78550072D01*
X110846496Y-78740000D01*
X102108500Y-78740000D01*
X102108500Y-77260168D01*
X128579417Y-77260168D01*
X128595182Y-77533570D01*
X128596007Y-77537775D01*
X128596008Y-77537783D01*
X128606627Y-77591907D01*
X128647905Y-77802303D01*
X128649292Y-77806353D01*
X128649293Y-77806358D01*
X128735223Y-78057338D01*
X128736612Y-78061394D01*
X128859660Y-78306049D01*
X128862086Y-78309578D01*
X128862089Y-78309584D01*
X129012343Y-78528203D01*
X129014774Y-78531740D01*
X129017661Y-78534913D01*
X129017662Y-78534914D01*
X129196192Y-78731117D01*
X129199082Y-78734293D01*
X129202377Y-78737048D01*
X129202378Y-78737049D01*
X129213759Y-78746565D01*
X129409175Y-78909957D01*
X129412816Y-78912241D01*
X129637524Y-79053201D01*
X129637528Y-79053203D01*
X129641164Y-79055484D01*
X129709044Y-79086133D01*
X129886845Y-79166414D01*
X129886849Y-79166416D01*
X129890757Y-79168180D01*
X129894877Y-79169400D01*
X129894876Y-79169400D01*
X130149223Y-79244741D01*
X130149227Y-79244742D01*
X130153336Y-79245959D01*
X130157570Y-79246607D01*
X130157575Y-79246608D01*
X130419798Y-79286733D01*
X130419800Y-79286733D01*
X130424040Y-79287382D01*
X130563412Y-79289572D01*
X130693571Y-79291617D01*
X130693577Y-79291617D01*
X130697862Y-79291684D01*
X130969735Y-79258784D01*
X131234627Y-79189291D01*
X131238587Y-79187651D01*
X131238592Y-79187649D01*
X131422295Y-79111556D01*
X131487636Y-79084491D01*
X131724082Y-78946323D01*
X131939589Y-78777344D01*
X131960346Y-78755925D01*
X132127186Y-78583759D01*
X132130169Y-78580681D01*
X132132702Y-78577233D01*
X132132706Y-78577228D01*
X132289757Y-78363428D01*
X132292295Y-78359973D01*
X132319654Y-78309584D01*
X132420918Y-78123080D01*
X132420919Y-78123078D01*
X132422968Y-78119304D01*
X132471368Y-77991216D01*
X132518251Y-77867145D01*
X132518252Y-77867141D01*
X132519769Y-77863127D01*
X132580907Y-77596183D01*
X132584729Y-77553365D01*
X132605031Y-77325877D01*
X132605031Y-77325875D01*
X132605251Y-77323411D01*
X132605693Y-77281250D01*
X132603965Y-77255898D01*
X132587359Y-77012305D01*
X132587358Y-77012299D01*
X132587067Y-77008028D01*
X132531532Y-76739862D01*
X132440117Y-76481715D01*
X132314513Y-76238362D01*
X132304540Y-76224171D01*
X132159508Y-76017812D01*
X132157045Y-76014307D01*
X131970625Y-75813695D01*
X131967310Y-75810981D01*
X131967306Y-75810978D01*
X131762023Y-75642956D01*
X131758705Y-75640240D01*
X131525204Y-75497151D01*
X131521268Y-75495423D01*
X131278373Y-75388799D01*
X131278369Y-75388798D01*
X131274445Y-75387075D01*
X131011066Y-75312050D01*
X131006824Y-75311446D01*
X131006818Y-75311445D01*
X130779866Y-75279145D01*
X130739943Y-75273463D01*
X130596089Y-75272710D01*
X130470377Y-75272052D01*
X130470371Y-75272052D01*
X130466091Y-75272030D01*
X130461847Y-75272589D01*
X130461843Y-75272589D01*
X130353916Y-75286798D01*
X130194578Y-75307775D01*
X130190438Y-75308908D01*
X130190436Y-75308908D01*
X130120918Y-75327926D01*
X129930428Y-75380038D01*
X129926480Y-75381722D01*
X129682482Y-75485796D01*
X129682478Y-75485798D01*
X129678530Y-75487482D01*
X129658625Y-75499395D01*
X129447225Y-75625914D01*
X129447221Y-75625917D01*
X129443543Y-75628118D01*
X129229818Y-75799344D01*
X129041308Y-75997992D01*
X128881502Y-76220386D01*
X128753357Y-76462411D01*
X128751885Y-76466434D01*
X128751883Y-76466438D01*
X128744814Y-76485756D01*
X128659243Y-76719587D01*
X128600904Y-76987157D01*
X128579417Y-77260168D01*
X102108500Y-77260168D01*
X102108500Y-77009135D01*
X123504500Y-77009135D01*
X123508975Y-77024374D01*
X123510365Y-77025579D01*
X123518048Y-77027250D01*
X125240385Y-77027250D01*
X125255624Y-77022775D01*
X125256829Y-77021385D01*
X125258500Y-77013702D01*
X125258500Y-77009135D01*
X125766500Y-77009135D01*
X125770975Y-77024374D01*
X125772365Y-77025579D01*
X125780048Y-77027250D01*
X127502384Y-77027250D01*
X127517623Y-77022775D01*
X127518828Y-77021385D01*
X127520499Y-77013702D01*
X127520499Y-75736581D01*
X127520129Y-75729760D01*
X127514605Y-75678898D01*
X127510979Y-75663646D01*
X127465824Y-75543196D01*
X127457286Y-75527601D01*
X127380785Y-75425526D01*
X127368224Y-75412965D01*
X127266149Y-75336464D01*
X127250554Y-75327926D01*
X127130106Y-75282772D01*
X127114851Y-75279145D01*
X127063986Y-75273619D01*
X127057172Y-75273250D01*
X125784615Y-75273250D01*
X125769376Y-75277725D01*
X125768171Y-75279115D01*
X125766500Y-75286798D01*
X125766500Y-77009135D01*
X125258500Y-77009135D01*
X125258500Y-75291366D01*
X125254025Y-75276127D01*
X125252635Y-75274922D01*
X125244952Y-75273251D01*
X123967831Y-75273251D01*
X123961010Y-75273621D01*
X123910148Y-75279145D01*
X123894896Y-75282771D01*
X123774446Y-75327926D01*
X123758851Y-75336464D01*
X123656776Y-75412965D01*
X123644215Y-75425526D01*
X123567714Y-75527601D01*
X123559176Y-75543196D01*
X123514022Y-75663644D01*
X123510395Y-75678899D01*
X123504869Y-75729764D01*
X123504500Y-75736578D01*
X123504500Y-77009135D01*
X102108500Y-77009135D01*
X102108500Y-71754500D01*
X102128502Y-71686379D01*
X102182158Y-71639886D01*
X102234500Y-71628500D01*
X151765500Y-71628500D01*
X151833621Y-71648502D01*
G37*
%TD.AperFunction*%
%TD*%
%TA.AperFunction,Conductor*%
%TO.N,+9V*%
G36*
X151833621Y-71648502D02*
G01*
X151880114Y-71702158D01*
X151891500Y-71754500D01*
X151891500Y-108585500D01*
X151871498Y-108653621D01*
X151817842Y-108700114D01*
X151765500Y-108711500D01*
X102234500Y-108711500D01*
X102166379Y-108691498D01*
X102119886Y-108637842D01*
X102108500Y-108585500D01*
X102108500Y-104140000D01*
X123546496Y-104140000D01*
X123566458Y-104329928D01*
X123625473Y-104511556D01*
X123720960Y-104676944D01*
X123848747Y-104818866D01*
X124003248Y-104931118D01*
X124009276Y-104933802D01*
X124009278Y-104933803D01*
X124171681Y-105006109D01*
X124177712Y-105008794D01*
X124271113Y-105028647D01*
X124358056Y-105047128D01*
X124358061Y-105047128D01*
X124364513Y-105048500D01*
X124555487Y-105048500D01*
X124561939Y-105047128D01*
X124561944Y-105047128D01*
X124648888Y-105028647D01*
X124742288Y-105008794D01*
X124748319Y-105006109D01*
X124910722Y-104933803D01*
X124910724Y-104933802D01*
X124916752Y-104931118D01*
X125071253Y-104818866D01*
X125199040Y-104676944D01*
X125294527Y-104511556D01*
X125353542Y-104329928D01*
X125370907Y-104164706D01*
X125397920Y-104099050D01*
X125407122Y-104088782D01*
X127392247Y-102103657D01*
X127400537Y-102096113D01*
X127407018Y-102092000D01*
X127453659Y-102042332D01*
X127456413Y-102039491D01*
X127476134Y-102019770D01*
X127478612Y-102016575D01*
X127486318Y-102007553D01*
X127511158Y-101981101D01*
X127516586Y-101975321D01*
X127526346Y-101957568D01*
X127537199Y-101941045D01*
X127544753Y-101931306D01*
X127549613Y-101925041D01*
X127567176Y-101884457D01*
X127572383Y-101873827D01*
X127593695Y-101835060D01*
X127595666Y-101827383D01*
X127595668Y-101827378D01*
X127598732Y-101815442D01*
X127605138Y-101796730D01*
X127610034Y-101785417D01*
X127613181Y-101778145D01*
X127620097Y-101734481D01*
X127622504Y-101722860D01*
X127631528Y-101687711D01*
X127631528Y-101687710D01*
X127633500Y-101680030D01*
X127633500Y-101659769D01*
X127635051Y-101640058D01*
X127636979Y-101627885D01*
X127638219Y-101620057D01*
X127634059Y-101576046D01*
X127633500Y-101564189D01*
X127633500Y-99378899D01*
X127653502Y-99310778D01*
X127707158Y-99264285D01*
X127777432Y-99254181D01*
X127842012Y-99283675D01*
X127848595Y-99289804D01*
X136356038Y-107797247D01*
X136363582Y-107805537D01*
X136367695Y-107812018D01*
X136373472Y-107817443D01*
X136417362Y-107858658D01*
X136420204Y-107861413D01*
X136439925Y-107881134D01*
X136443120Y-107883612D01*
X136452142Y-107891318D01*
X136484374Y-107921586D01*
X136491323Y-107925406D01*
X136502127Y-107931346D01*
X136518651Y-107942199D01*
X136534654Y-107954613D01*
X136575238Y-107972176D01*
X136585868Y-107977383D01*
X136624635Y-107998695D01*
X136632312Y-108000666D01*
X136632317Y-108000668D01*
X136644253Y-108003732D01*
X136662961Y-108010137D01*
X136681550Y-108018181D01*
X136689375Y-108019420D01*
X136689377Y-108019421D01*
X136725214Y-108025097D01*
X136736835Y-108027504D01*
X136768654Y-108035673D01*
X136779665Y-108038500D01*
X136799926Y-108038500D01*
X136819635Y-108040051D01*
X136839638Y-108043219D01*
X136847530Y-108042473D01*
X136852757Y-108041979D01*
X136883649Y-108039059D01*
X136895506Y-108038500D01*
X137381538Y-108038500D01*
X137392721Y-108039027D01*
X137400214Y-108040702D01*
X137408140Y-108040453D01*
X137408141Y-108040453D01*
X137468291Y-108038562D01*
X137472250Y-108038500D01*
X137500161Y-108038500D01*
X137504096Y-108038003D01*
X137504161Y-108037995D01*
X137515998Y-108037062D01*
X137548256Y-108036048D01*
X137552275Y-108035922D01*
X137560194Y-108035673D01*
X137579648Y-108030021D01*
X137599005Y-108026013D01*
X137611235Y-108024468D01*
X137611236Y-108024468D01*
X137619102Y-108023474D01*
X137626473Y-108020555D01*
X137626475Y-108020555D01*
X137660217Y-108007196D01*
X137671447Y-108003351D01*
X137706288Y-107993229D01*
X137706289Y-107993229D01*
X137713898Y-107991018D01*
X137720717Y-107986985D01*
X137720722Y-107986983D01*
X137731333Y-107980707D01*
X137749081Y-107972012D01*
X137767922Y-107964552D01*
X137788292Y-107949753D01*
X137803692Y-107938564D01*
X137813612Y-107932048D01*
X137844840Y-107913580D01*
X137844843Y-107913578D01*
X137851667Y-107909542D01*
X137865988Y-107895221D01*
X137881022Y-107882380D01*
X137882737Y-107881134D01*
X137897412Y-107870472D01*
X137925603Y-107836395D01*
X137933593Y-107827616D01*
X142632247Y-103128962D01*
X142640537Y-103121418D01*
X142647018Y-103117305D01*
X142693659Y-103067637D01*
X142696413Y-103064796D01*
X142716134Y-103045075D01*
X142718612Y-103041880D01*
X142726318Y-103032858D01*
X142751158Y-103006406D01*
X142756586Y-103000626D01*
X142766346Y-102982873D01*
X142777199Y-102966350D01*
X142784753Y-102956611D01*
X142789613Y-102950346D01*
X142807176Y-102909762D01*
X142812383Y-102899132D01*
X142833695Y-102860365D01*
X142835666Y-102852688D01*
X142835668Y-102852683D01*
X142838732Y-102840747D01*
X142845138Y-102822035D01*
X142850034Y-102810722D01*
X142853181Y-102803450D01*
X142860097Y-102759786D01*
X142862504Y-102748165D01*
X142871528Y-102713016D01*
X142871528Y-102713015D01*
X142873500Y-102705335D01*
X142873500Y-102685074D01*
X142875051Y-102665363D01*
X142876979Y-102653190D01*
X142878219Y-102645362D01*
X142874059Y-102601351D01*
X142873500Y-102589494D01*
X142873500Y-99762524D01*
X142893502Y-99694403D01*
X142905858Y-99678221D01*
X142979040Y-99596944D01*
X143054053Y-99467018D01*
X143071223Y-99437279D01*
X143071224Y-99437278D01*
X143074527Y-99431556D01*
X143133542Y-99249928D01*
X143153504Y-99060000D01*
X143133542Y-98870072D01*
X143074527Y-98688444D01*
X142979040Y-98523056D01*
X142851253Y-98381134D01*
X142696752Y-98268882D01*
X142690724Y-98266198D01*
X142690722Y-98266197D01*
X142528319Y-98193891D01*
X142528318Y-98193891D01*
X142522288Y-98191206D01*
X142428888Y-98171353D01*
X142341944Y-98152872D01*
X142341939Y-98152872D01*
X142335487Y-98151500D01*
X142144513Y-98151500D01*
X142138061Y-98152872D01*
X142138056Y-98152872D01*
X142051112Y-98171353D01*
X141957712Y-98191206D01*
X141951682Y-98193891D01*
X141951681Y-98193891D01*
X141789278Y-98266197D01*
X141789276Y-98266198D01*
X141783248Y-98268882D01*
X141628747Y-98381134D01*
X141500960Y-98523056D01*
X141405473Y-98688444D01*
X141346458Y-98870072D01*
X141326496Y-99060000D01*
X141346458Y-99249928D01*
X141405473Y-99431556D01*
X141408776Y-99437278D01*
X141408777Y-99437279D01*
X141425947Y-99467018D01*
X141500960Y-99596944D01*
X141574137Y-99678215D01*
X141604853Y-99742221D01*
X141606500Y-99762524D01*
X141606500Y-102310710D01*
X141586498Y-102378831D01*
X141569595Y-102399805D01*
X138733595Y-105235805D01*
X138671283Y-105269831D01*
X138600468Y-105264766D01*
X138543632Y-105222219D01*
X138518821Y-105155699D01*
X138518500Y-105146710D01*
X138518500Y-93980000D01*
X138786496Y-93980000D01*
X138806458Y-94169928D01*
X138865473Y-94351556D01*
X138960960Y-94516944D01*
X138965378Y-94521851D01*
X138965379Y-94521852D01*
X139047899Y-94613500D01*
X139088747Y-94658866D01*
X139138520Y-94695028D01*
X139234953Y-94765091D01*
X139243248Y-94771118D01*
X139249276Y-94773802D01*
X139249278Y-94773803D01*
X139271658Y-94783767D01*
X139417712Y-94848794D01*
X139511113Y-94868647D01*
X139598056Y-94887128D01*
X139598061Y-94887128D01*
X139604513Y-94888500D01*
X139795487Y-94888500D01*
X139801939Y-94887128D01*
X139801944Y-94887128D01*
X139888888Y-94868647D01*
X139982288Y-94848794D01*
X140128342Y-94783767D01*
X140150722Y-94773803D01*
X140150724Y-94773802D01*
X140156752Y-94771118D01*
X140165048Y-94765091D01*
X140302612Y-94665144D01*
X140311253Y-94658866D01*
X140315668Y-94653963D01*
X140320580Y-94649540D01*
X140321705Y-94650789D01*
X140375014Y-94617949D01*
X140408200Y-94613500D01*
X149151800Y-94613500D01*
X149219921Y-94633502D01*
X149239147Y-94649843D01*
X149239420Y-94649540D01*
X149244332Y-94653963D01*
X149248747Y-94658866D01*
X149257388Y-94665144D01*
X149394953Y-94765091D01*
X149403248Y-94771118D01*
X149409276Y-94773802D01*
X149409278Y-94773803D01*
X149431658Y-94783767D01*
X149577712Y-94848794D01*
X149671113Y-94868647D01*
X149758056Y-94887128D01*
X149758061Y-94887128D01*
X149764513Y-94888500D01*
X149955487Y-94888500D01*
X149961939Y-94887128D01*
X149961944Y-94887128D01*
X150048888Y-94868647D01*
X150142288Y-94848794D01*
X150288342Y-94783767D01*
X150310722Y-94773803D01*
X150310724Y-94773802D01*
X150316752Y-94771118D01*
X150325048Y-94765091D01*
X150421480Y-94695028D01*
X150471253Y-94658866D01*
X150512101Y-94613500D01*
X150594621Y-94521852D01*
X150594622Y-94521851D01*
X150599040Y-94516944D01*
X150694527Y-94351556D01*
X150753542Y-94169928D01*
X150773504Y-93980000D01*
X150770907Y-93955293D01*
X150754232Y-93796635D01*
X150754232Y-93796633D01*
X150753542Y-93790072D01*
X150694527Y-93608444D01*
X150599040Y-93443056D01*
X150560389Y-93400129D01*
X150475675Y-93306045D01*
X150475674Y-93306044D01*
X150471253Y-93301134D01*
X150316752Y-93188882D01*
X150310724Y-93186198D01*
X150310722Y-93186197D01*
X150148319Y-93113891D01*
X150148318Y-93113891D01*
X150142288Y-93111206D01*
X150048887Y-93091353D01*
X149961944Y-93072872D01*
X149961939Y-93072872D01*
X149955487Y-93071500D01*
X149764513Y-93071500D01*
X149758061Y-93072872D01*
X149758056Y-93072872D01*
X149671113Y-93091353D01*
X149577712Y-93111206D01*
X149571682Y-93113891D01*
X149571681Y-93113891D01*
X149409278Y-93186197D01*
X149409276Y-93186198D01*
X149403248Y-93188882D01*
X149248747Y-93301134D01*
X149244332Y-93306037D01*
X149239420Y-93310460D01*
X149238295Y-93309211D01*
X149184986Y-93342051D01*
X149151800Y-93346500D01*
X140408200Y-93346500D01*
X140340079Y-93326498D01*
X140320853Y-93310157D01*
X140320580Y-93310460D01*
X140315668Y-93306037D01*
X140311253Y-93301134D01*
X140156752Y-93188882D01*
X140150724Y-93186198D01*
X140150722Y-93186197D01*
X139988319Y-93113891D01*
X139988318Y-93113891D01*
X139982288Y-93111206D01*
X139888887Y-93091353D01*
X139801944Y-93072872D01*
X139801939Y-93072872D01*
X139795487Y-93071500D01*
X139604513Y-93071500D01*
X139598061Y-93072872D01*
X139598056Y-93072872D01*
X139511113Y-93091353D01*
X139417712Y-93111206D01*
X139411682Y-93113891D01*
X139411681Y-93113891D01*
X139249278Y-93186197D01*
X139249276Y-93186198D01*
X139243248Y-93188882D01*
X139088747Y-93301134D01*
X139084326Y-93306044D01*
X139084325Y-93306045D01*
X138999612Y-93400129D01*
X138960960Y-93443056D01*
X138865473Y-93608444D01*
X138806458Y-93790072D01*
X138805768Y-93796633D01*
X138805768Y-93796635D01*
X138789093Y-93955293D01*
X138786496Y-93980000D01*
X138518500Y-93980000D01*
X138518500Y-93758458D01*
X138519027Y-93747274D01*
X138520701Y-93739786D01*
X138518562Y-93671727D01*
X138518500Y-93667770D01*
X138518500Y-93639839D01*
X138517994Y-93635833D01*
X138517061Y-93623987D01*
X138515922Y-93587732D01*
X138515673Y-93579805D01*
X138510022Y-93560353D01*
X138506014Y-93541001D01*
X138504468Y-93528763D01*
X138504467Y-93528761D01*
X138503474Y-93520898D01*
X138487194Y-93479781D01*
X138483359Y-93468580D01*
X138471018Y-93426101D01*
X138466985Y-93419282D01*
X138466983Y-93419277D01*
X138460707Y-93408666D01*
X138452010Y-93390916D01*
X138444552Y-93372078D01*
X138418571Y-93336318D01*
X138412053Y-93326396D01*
X138393578Y-93295155D01*
X138393574Y-93295150D01*
X138389542Y-93288332D01*
X138375218Y-93274008D01*
X138362376Y-93258973D01*
X138350472Y-93242588D01*
X138316406Y-93214406D01*
X138307627Y-93206417D01*
X137963957Y-92862747D01*
X137956417Y-92854461D01*
X137952305Y-92847982D01*
X137902653Y-92801356D01*
X137899812Y-92798602D01*
X137880075Y-92778865D01*
X137876878Y-92776385D01*
X137867856Y-92768680D01*
X137841405Y-92743841D01*
X137835626Y-92738414D01*
X137828680Y-92734595D01*
X137828677Y-92734593D01*
X137817871Y-92728652D01*
X137801352Y-92717801D01*
X137800888Y-92717441D01*
X137785346Y-92705386D01*
X137778077Y-92702241D01*
X137778073Y-92702238D01*
X137744768Y-92687826D01*
X137734118Y-92682609D01*
X137695365Y-92661305D01*
X137675742Y-92656267D01*
X137657039Y-92649863D01*
X137645725Y-92644967D01*
X137645724Y-92644967D01*
X137638450Y-92641819D01*
X137630627Y-92640580D01*
X137630617Y-92640577D01*
X137594781Y-92634901D01*
X137583161Y-92632495D01*
X137548016Y-92623472D01*
X137548015Y-92623472D01*
X137540335Y-92621500D01*
X137520081Y-92621500D01*
X137500370Y-92619949D01*
X137488191Y-92618020D01*
X137480362Y-92616780D01*
X137451091Y-92619547D01*
X137436344Y-92620941D01*
X137424486Y-92621500D01*
X135423767Y-92621500D01*
X135412584Y-92620973D01*
X135405091Y-92619298D01*
X135397166Y-92619547D01*
X135397165Y-92619547D01*
X135391062Y-92619739D01*
X135383459Y-92619978D01*
X135314743Y-92602126D01*
X135266587Y-92549957D01*
X135253500Y-92494040D01*
X135253500Y-91518767D01*
X135254027Y-91507584D01*
X135255702Y-91500091D01*
X135254942Y-91475892D01*
X135253814Y-91440000D01*
X136246496Y-91440000D01*
X136266458Y-91629928D01*
X136325473Y-91811556D01*
X136328776Y-91817278D01*
X136328777Y-91817279D01*
X136345176Y-91845683D01*
X136420960Y-91976944D01*
X136425378Y-91981851D01*
X136425379Y-91981852D01*
X136507452Y-92073003D01*
X136548747Y-92118866D01*
X136703248Y-92231118D01*
X136709276Y-92233802D01*
X136709278Y-92233803D01*
X136713090Y-92235500D01*
X136877712Y-92308794D01*
X136971112Y-92328647D01*
X137058056Y-92347128D01*
X137058061Y-92347128D01*
X137064513Y-92348500D01*
X137255487Y-92348500D01*
X137261939Y-92347128D01*
X137261944Y-92347128D01*
X137348888Y-92328647D01*
X137442288Y-92308794D01*
X137606910Y-92235500D01*
X137610722Y-92233803D01*
X137610724Y-92233802D01*
X137616752Y-92231118D01*
X137771253Y-92118866D01*
X137775668Y-92113963D01*
X137780580Y-92109540D01*
X137781705Y-92110789D01*
X137835014Y-92077949D01*
X137868200Y-92073500D01*
X139621233Y-92073500D01*
X139632416Y-92074027D01*
X139639909Y-92075702D01*
X139647835Y-92075453D01*
X139647836Y-92075453D01*
X139707986Y-92073562D01*
X139711945Y-92073500D01*
X139739856Y-92073500D01*
X139743791Y-92073003D01*
X139743856Y-92072995D01*
X139755693Y-92072062D01*
X139787951Y-92071048D01*
X139791970Y-92070922D01*
X139799889Y-92070673D01*
X139819343Y-92065021D01*
X139838700Y-92061013D01*
X139850930Y-92059468D01*
X139850931Y-92059468D01*
X139858797Y-92058474D01*
X139866168Y-92055555D01*
X139866170Y-92055555D01*
X139899912Y-92042196D01*
X139911142Y-92038351D01*
X139945983Y-92028229D01*
X139945984Y-92028229D01*
X139953593Y-92026018D01*
X139960412Y-92021985D01*
X139960417Y-92021983D01*
X139971028Y-92015707D01*
X139988776Y-92007012D01*
X140007617Y-91999552D01*
X140043387Y-91973564D01*
X140053307Y-91967048D01*
X140084535Y-91948580D01*
X140084538Y-91948578D01*
X140091362Y-91944542D01*
X140105683Y-91930221D01*
X140120717Y-91917380D01*
X140130694Y-91910131D01*
X140137107Y-91905472D01*
X140165298Y-91871395D01*
X140173288Y-91862616D01*
X149810500Y-82225405D01*
X149872812Y-82191379D01*
X149899595Y-82188500D01*
X149955487Y-82188500D01*
X149961939Y-82187128D01*
X149961944Y-82187128D01*
X150048888Y-82168647D01*
X150142288Y-82148794D01*
X150148319Y-82146109D01*
X150310722Y-82073803D01*
X150310724Y-82073802D01*
X150316752Y-82071118D01*
X150471253Y-81958866D01*
X150599040Y-81816944D01*
X150674824Y-81685683D01*
X150691223Y-81657279D01*
X150691224Y-81657278D01*
X150694527Y-81651556D01*
X150753542Y-81469928D01*
X150773504Y-81280000D01*
X150753542Y-81090072D01*
X150694527Y-80908444D01*
X150599040Y-80743056D01*
X150471253Y-80601134D01*
X150316752Y-80488882D01*
X150310724Y-80486198D01*
X150310722Y-80486197D01*
X150148319Y-80413891D01*
X150148318Y-80413891D01*
X150142288Y-80411206D01*
X150048888Y-80391353D01*
X149961944Y-80372872D01*
X149961939Y-80372872D01*
X149955487Y-80371500D01*
X149764513Y-80371500D01*
X149758061Y-80372872D01*
X149758056Y-80372872D01*
X149671112Y-80391353D01*
X149577712Y-80411206D01*
X149571682Y-80413891D01*
X149571681Y-80413891D01*
X149409278Y-80486197D01*
X149409276Y-80486198D01*
X149403248Y-80488882D01*
X149397907Y-80492762D01*
X149397906Y-80492763D01*
X149249515Y-80600576D01*
X149243450Y-80602740D01*
X149229229Y-80622811D01*
X149120960Y-80743056D01*
X149025473Y-80908444D01*
X148966458Y-81090072D01*
X148965768Y-81096633D01*
X148965768Y-81096635D01*
X148949093Y-81255293D01*
X148922080Y-81320950D01*
X148912878Y-81331218D01*
X139474500Y-90769595D01*
X139412188Y-90803621D01*
X139385405Y-90806500D01*
X137868200Y-90806500D01*
X137800079Y-90786498D01*
X137780853Y-90770157D01*
X137780580Y-90770460D01*
X137775668Y-90766037D01*
X137771253Y-90761134D01*
X137616752Y-90648882D01*
X137610724Y-90646198D01*
X137610722Y-90646197D01*
X137448319Y-90573891D01*
X137448318Y-90573891D01*
X137442288Y-90571206D01*
X137348887Y-90551353D01*
X137261944Y-90532872D01*
X137261939Y-90532872D01*
X137255487Y-90531500D01*
X137064513Y-90531500D01*
X137058061Y-90532872D01*
X137058056Y-90532872D01*
X136971113Y-90551353D01*
X136877712Y-90571206D01*
X136871682Y-90573891D01*
X136871681Y-90573891D01*
X136709278Y-90646197D01*
X136709276Y-90646198D01*
X136703248Y-90648882D01*
X136548747Y-90761134D01*
X136544326Y-90766044D01*
X136544325Y-90766045D01*
X136510492Y-90803621D01*
X136420960Y-90903056D01*
X136417659Y-90908774D01*
X136340148Y-91043027D01*
X136325473Y-91068444D01*
X136266458Y-91250072D01*
X136246496Y-91440000D01*
X135253814Y-91440000D01*
X135253562Y-91432001D01*
X135253500Y-91428043D01*
X135253500Y-91400144D01*
X135252996Y-91396153D01*
X135252063Y-91384311D01*
X135251711Y-91373093D01*
X135250674Y-91340111D01*
X135248462Y-91332497D01*
X135248461Y-91332492D01*
X135245023Y-91320659D01*
X135241012Y-91301295D01*
X135239467Y-91289064D01*
X135238474Y-91281203D01*
X135235557Y-91273836D01*
X135235556Y-91273831D01*
X135222198Y-91240092D01*
X135218354Y-91228865D01*
X135208230Y-91194022D01*
X135206018Y-91186407D01*
X135201697Y-91179100D01*
X135195707Y-91168972D01*
X135187012Y-91151224D01*
X135179552Y-91132383D01*
X135153564Y-91096613D01*
X135147048Y-91086693D01*
X135128580Y-91055465D01*
X135128578Y-91055462D01*
X135124542Y-91048638D01*
X135110221Y-91034317D01*
X135097380Y-91019283D01*
X135090131Y-91009306D01*
X135085472Y-91002893D01*
X135051395Y-90974702D01*
X135042616Y-90966712D01*
X130487122Y-86411217D01*
X130459155Y-86360000D01*
X138786496Y-86360000D01*
X138806458Y-86549928D01*
X138865473Y-86731556D01*
X138960960Y-86896944D01*
X138965378Y-86901851D01*
X138965379Y-86901852D01*
X139047452Y-86993003D01*
X139088747Y-87038866D01*
X139243248Y-87151118D01*
X139249276Y-87153802D01*
X139249278Y-87153803D01*
X139411681Y-87226109D01*
X139417712Y-87228794D01*
X139511113Y-87248647D01*
X139598056Y-87267128D01*
X139598061Y-87267128D01*
X139604513Y-87268500D01*
X139795487Y-87268500D01*
X139801939Y-87267128D01*
X139801944Y-87267128D01*
X139888888Y-87248647D01*
X139982288Y-87228794D01*
X139988319Y-87226109D01*
X140150722Y-87153803D01*
X140150724Y-87153802D01*
X140156752Y-87151118D01*
X140311253Y-87038866D01*
X140315668Y-87033963D01*
X140320580Y-87029540D01*
X140321705Y-87030789D01*
X140375014Y-86997949D01*
X140408200Y-86993500D01*
X142161233Y-86993500D01*
X142172416Y-86994027D01*
X142179909Y-86995702D01*
X142187835Y-86995453D01*
X142187836Y-86995453D01*
X142247986Y-86993562D01*
X142251945Y-86993500D01*
X142279856Y-86993500D01*
X142283791Y-86993003D01*
X142283856Y-86992995D01*
X142295693Y-86992062D01*
X142327951Y-86991048D01*
X142331970Y-86990922D01*
X142339889Y-86990673D01*
X142359343Y-86985021D01*
X142378700Y-86981013D01*
X142390930Y-86979468D01*
X142390931Y-86979468D01*
X142398797Y-86978474D01*
X142406168Y-86975555D01*
X142406170Y-86975555D01*
X142439912Y-86962196D01*
X142451142Y-86958351D01*
X142485983Y-86948229D01*
X142485984Y-86948229D01*
X142493593Y-86946018D01*
X142500412Y-86941985D01*
X142500417Y-86941983D01*
X142511028Y-86935707D01*
X142528776Y-86927012D01*
X142547617Y-86919552D01*
X142583387Y-86893564D01*
X142593307Y-86887048D01*
X142624535Y-86868580D01*
X142624538Y-86868578D01*
X142631362Y-86864542D01*
X142645683Y-86850221D01*
X142660717Y-86837380D01*
X142670694Y-86830131D01*
X142677107Y-86825472D01*
X142705298Y-86791395D01*
X142713288Y-86782616D01*
X149046498Y-80449406D01*
X149069852Y-80436654D01*
X149075674Y-80421699D01*
X149086359Y-80409545D01*
X149810499Y-79685405D01*
X149872811Y-79651379D01*
X149899594Y-79648500D01*
X149955487Y-79648500D01*
X149961939Y-79647128D01*
X149961944Y-79647128D01*
X150048887Y-79628647D01*
X150142288Y-79608794D01*
X150148319Y-79606109D01*
X150310722Y-79533803D01*
X150310724Y-79533802D01*
X150316752Y-79531118D01*
X150471253Y-79418866D01*
X150585768Y-79291684D01*
X150594621Y-79281852D01*
X150594625Y-79281847D01*
X150599040Y-79276944D01*
X150694527Y-79111556D01*
X150753542Y-78929928D01*
X150773504Y-78740000D01*
X150753542Y-78550072D01*
X150694527Y-78368444D01*
X150599040Y-78203056D01*
X150527030Y-78123080D01*
X150475675Y-78066045D01*
X150475674Y-78066044D01*
X150471253Y-78061134D01*
X150316752Y-77948882D01*
X150310724Y-77946198D01*
X150310722Y-77946197D01*
X150148319Y-77873891D01*
X150148318Y-77873891D01*
X150142288Y-77871206D01*
X150048888Y-77851353D01*
X149961944Y-77832872D01*
X149961939Y-77832872D01*
X149955487Y-77831500D01*
X149764513Y-77831500D01*
X149758061Y-77832872D01*
X149758056Y-77832872D01*
X149671112Y-77851353D01*
X149577712Y-77871206D01*
X149571682Y-77873891D01*
X149571681Y-77873891D01*
X149409278Y-77946197D01*
X149409276Y-77946198D01*
X149403248Y-77948882D01*
X149248747Y-78061134D01*
X149244326Y-78066044D01*
X149244325Y-78066045D01*
X149192971Y-78123080D01*
X149120960Y-78203056D01*
X149025473Y-78368444D01*
X148966458Y-78550072D01*
X148965768Y-78556633D01*
X148965768Y-78556635D01*
X148949093Y-78715292D01*
X148922080Y-78780949D01*
X148912878Y-78791217D01*
X142014500Y-85689595D01*
X141952188Y-85723621D01*
X141925405Y-85726500D01*
X140408200Y-85726500D01*
X140340079Y-85706498D01*
X140320853Y-85690157D01*
X140320580Y-85690460D01*
X140315668Y-85686037D01*
X140311253Y-85681134D01*
X140156752Y-85568882D01*
X140150724Y-85566198D01*
X140150722Y-85566197D01*
X139988319Y-85493891D01*
X139988318Y-85493891D01*
X139982288Y-85491206D01*
X139888887Y-85471353D01*
X139801944Y-85452872D01*
X139801939Y-85452872D01*
X139795487Y-85451500D01*
X139604513Y-85451500D01*
X139598061Y-85452872D01*
X139598056Y-85452872D01*
X139511112Y-85471353D01*
X139417712Y-85491206D01*
X139411682Y-85493891D01*
X139411681Y-85493891D01*
X139249278Y-85566197D01*
X139249276Y-85566198D01*
X139243248Y-85568882D01*
X139088747Y-85681134D01*
X139084326Y-85686044D01*
X139084325Y-85686045D01*
X139050492Y-85723621D01*
X138960960Y-85823056D01*
X138865473Y-85988444D01*
X138806458Y-86170072D01*
X138786496Y-86360000D01*
X130459155Y-86360000D01*
X130453096Y-86348905D01*
X130450907Y-86335292D01*
X130434232Y-86176635D01*
X130434232Y-86176633D01*
X130433542Y-86170072D01*
X130374527Y-85988444D01*
X130279040Y-85823056D01*
X130189509Y-85723621D01*
X130155675Y-85686045D01*
X130155674Y-85686044D01*
X130151253Y-85681134D01*
X129996752Y-85568882D01*
X129990724Y-85566198D01*
X129990722Y-85566197D01*
X129828319Y-85493891D01*
X129828318Y-85493891D01*
X129822288Y-85491206D01*
X129728887Y-85471353D01*
X129641944Y-85452872D01*
X129641939Y-85452872D01*
X129635487Y-85451500D01*
X129444513Y-85451500D01*
X129438061Y-85452872D01*
X129438056Y-85452872D01*
X129351113Y-85471353D01*
X129257712Y-85491206D01*
X129251682Y-85493891D01*
X129251681Y-85493891D01*
X129089278Y-85566197D01*
X129089276Y-85566198D01*
X129083248Y-85568882D01*
X128928747Y-85681134D01*
X128924326Y-85686044D01*
X128924325Y-85686045D01*
X128890492Y-85723621D01*
X128800960Y-85823056D01*
X128705473Y-85988444D01*
X128646458Y-86170072D01*
X128626496Y-86360000D01*
X128646458Y-86549928D01*
X128705473Y-86731556D01*
X128800960Y-86896944D01*
X128805378Y-86901851D01*
X128805379Y-86901852D01*
X128887452Y-86993003D01*
X128928747Y-87038866D01*
X129083248Y-87151118D01*
X129089276Y-87153802D01*
X129089278Y-87153803D01*
X129251681Y-87226109D01*
X129257712Y-87228794D01*
X129351113Y-87248647D01*
X129438056Y-87267128D01*
X129438061Y-87267128D01*
X129444513Y-87268500D01*
X129500406Y-87268500D01*
X129568527Y-87288502D01*
X129589501Y-87305405D01*
X133949595Y-91665500D01*
X133983621Y-91727812D01*
X133986500Y-91754595D01*
X133986500Y-93277476D01*
X133966498Y-93345597D01*
X133954142Y-93361779D01*
X133880960Y-93443056D01*
X133785473Y-93608444D01*
X133726458Y-93790072D01*
X133725768Y-93796633D01*
X133725768Y-93796635D01*
X133709093Y-93955293D01*
X133706496Y-93980000D01*
X133726458Y-94169928D01*
X133785473Y-94351556D01*
X133880960Y-94516944D01*
X133885378Y-94521851D01*
X133885379Y-94521852D01*
X133967899Y-94613500D01*
X134008747Y-94658866D01*
X134058520Y-94695028D01*
X134154953Y-94765091D01*
X134163248Y-94771118D01*
X134169276Y-94773802D01*
X134169278Y-94773803D01*
X134191658Y-94783767D01*
X134337712Y-94848794D01*
X134431113Y-94868647D01*
X134518056Y-94887128D01*
X134518061Y-94887128D01*
X134524513Y-94888500D01*
X134715487Y-94888500D01*
X134721939Y-94887128D01*
X134721944Y-94887128D01*
X134808888Y-94868647D01*
X134902288Y-94848794D01*
X135048342Y-94783767D01*
X135070722Y-94773803D01*
X135070724Y-94773802D01*
X135076752Y-94771118D01*
X135085048Y-94765091D01*
X135181480Y-94695028D01*
X135231253Y-94658866D01*
X135272101Y-94613500D01*
X135354621Y-94521852D01*
X135354622Y-94521851D01*
X135359040Y-94516944D01*
X135454527Y-94351556D01*
X135513542Y-94169928D01*
X135530907Y-94004707D01*
X135557920Y-93939051D01*
X135567135Y-93928769D01*
X135570514Y-93925391D01*
X135632831Y-93891376D01*
X135659596Y-93888500D01*
X137125500Y-93888500D01*
X137193621Y-93908502D01*
X137240114Y-93962158D01*
X137251500Y-94014500D01*
X137251500Y-105640406D01*
X137231498Y-105708527D01*
X137214595Y-105729501D01*
X137209501Y-105734595D01*
X137147189Y-105768621D01*
X137120406Y-105771500D01*
X137064513Y-105771500D01*
X137058061Y-105772872D01*
X137058056Y-105772872D01*
X136971113Y-105791353D01*
X136877712Y-105811206D01*
X136871682Y-105813891D01*
X136871681Y-105813891D01*
X136709278Y-105886197D01*
X136709276Y-105886198D01*
X136703248Y-105888882D01*
X136548747Y-106001134D01*
X136544240Y-106006140D01*
X136544177Y-106006179D01*
X136539423Y-106010459D01*
X136538640Y-106009589D01*
X136483792Y-106043374D01*
X136412808Y-106042017D01*
X136361516Y-106010916D01*
X127670405Y-97319805D01*
X127636379Y-97257493D01*
X127633500Y-97230710D01*
X127633500Y-94058763D01*
X127634027Y-94047579D01*
X127635701Y-94040091D01*
X127633562Y-93972032D01*
X127633500Y-93968075D01*
X127633500Y-89602524D01*
X127653502Y-89534403D01*
X127665858Y-89518221D01*
X127739040Y-89436944D01*
X127834527Y-89271556D01*
X127893542Y-89089928D01*
X127913504Y-88900000D01*
X127904285Y-88812289D01*
X127894232Y-88716635D01*
X127894232Y-88716633D01*
X127893542Y-88710072D01*
X127834527Y-88528444D01*
X127739040Y-88363056D01*
X127611253Y-88221134D01*
X127456752Y-88108882D01*
X127450724Y-88106198D01*
X127450722Y-88106197D01*
X127288319Y-88033891D01*
X127288318Y-88033891D01*
X127282288Y-88031206D01*
X127188887Y-88011353D01*
X127101944Y-87992872D01*
X127101939Y-87992872D01*
X127095487Y-87991500D01*
X126904513Y-87991500D01*
X126898061Y-87992872D01*
X126898056Y-87992872D01*
X126811112Y-88011353D01*
X126717712Y-88031206D01*
X126711682Y-88033891D01*
X126711681Y-88033891D01*
X126549278Y-88106197D01*
X126549276Y-88106198D01*
X126543248Y-88108882D01*
X126388747Y-88221134D01*
X126260960Y-88363056D01*
X126165473Y-88528444D01*
X126106458Y-88710072D01*
X126105768Y-88716633D01*
X126105768Y-88716635D01*
X126095715Y-88812289D01*
X126086496Y-88900000D01*
X126106458Y-89089928D01*
X126165473Y-89271556D01*
X126260960Y-89436944D01*
X126334137Y-89518215D01*
X126364853Y-89582221D01*
X126366500Y-89602524D01*
X126366500Y-92146405D01*
X126346498Y-92214526D01*
X126292842Y-92261019D01*
X126222568Y-92271123D01*
X126157988Y-92241629D01*
X126151405Y-92235500D01*
X125130405Y-91214500D01*
X125096379Y-91152188D01*
X125093500Y-91125405D01*
X125093500Y-89602524D01*
X125113502Y-89534403D01*
X125125858Y-89518221D01*
X125199040Y-89436944D01*
X125294527Y-89271556D01*
X125353542Y-89089928D01*
X125373504Y-88900000D01*
X125364285Y-88812289D01*
X125354232Y-88716635D01*
X125354232Y-88716633D01*
X125353542Y-88710072D01*
X125294527Y-88528444D01*
X125199040Y-88363056D01*
X125071253Y-88221134D01*
X124916752Y-88108882D01*
X124910724Y-88106198D01*
X124910722Y-88106197D01*
X124748319Y-88033891D01*
X124748318Y-88033891D01*
X124742288Y-88031206D01*
X124648887Y-88011353D01*
X124561944Y-87992872D01*
X124561939Y-87992872D01*
X124555487Y-87991500D01*
X124364513Y-87991500D01*
X124358061Y-87992872D01*
X124358056Y-87992872D01*
X124271112Y-88011353D01*
X124177712Y-88031206D01*
X124171682Y-88033891D01*
X124171681Y-88033891D01*
X124009278Y-88106197D01*
X124009276Y-88106198D01*
X124003248Y-88108882D01*
X123848747Y-88221134D01*
X123720960Y-88363056D01*
X123625473Y-88528444D01*
X123566458Y-88710072D01*
X123565768Y-88716633D01*
X123565768Y-88716635D01*
X123555715Y-88812289D01*
X123546496Y-88900000D01*
X123566458Y-89089928D01*
X123625473Y-89271556D01*
X123720960Y-89436944D01*
X123794137Y-89518215D01*
X123824853Y-89582221D01*
X123826500Y-89602524D01*
X123826500Y-91361233D01*
X123825973Y-91372416D01*
X123824298Y-91379909D01*
X123824547Y-91387835D01*
X123824547Y-91387836D01*
X123826438Y-91447986D01*
X123826500Y-91451945D01*
X123826500Y-91479856D01*
X123826997Y-91483790D01*
X123826997Y-91483791D01*
X123827005Y-91483856D01*
X123827938Y-91495693D01*
X123829327Y-91539889D01*
X123834978Y-91559339D01*
X123838987Y-91578700D01*
X123841526Y-91598797D01*
X123844445Y-91606168D01*
X123844445Y-91606170D01*
X123857804Y-91639912D01*
X123861649Y-91651142D01*
X123873982Y-91693593D01*
X123878015Y-91700412D01*
X123878017Y-91700417D01*
X123884293Y-91711028D01*
X123892988Y-91728776D01*
X123900448Y-91747617D01*
X123905110Y-91754033D01*
X123905110Y-91754034D01*
X123926436Y-91783387D01*
X123932952Y-91793307D01*
X123943745Y-91811556D01*
X123955458Y-91831362D01*
X123969779Y-91845683D01*
X123982619Y-91860716D01*
X123994528Y-91877107D01*
X124028605Y-91905298D01*
X124037384Y-91913288D01*
X125233641Y-93109545D01*
X125244600Y-93129615D01*
X125250497Y-93131225D01*
X125273502Y-93149406D01*
X126329595Y-94205499D01*
X126363621Y-94267811D01*
X126366500Y-94294594D01*
X126366500Y-97466538D01*
X126365973Y-97477721D01*
X126364298Y-97485214D01*
X126364547Y-97493140D01*
X126364547Y-97493141D01*
X126366438Y-97553291D01*
X126366500Y-97557250D01*
X126366500Y-101285405D01*
X126346498Y-101353526D01*
X126329595Y-101374500D01*
X124509500Y-103194595D01*
X124447188Y-103228621D01*
X124420405Y-103231500D01*
X124364513Y-103231500D01*
X124358061Y-103232872D01*
X124358056Y-103232872D01*
X124271113Y-103251353D01*
X124177712Y-103271206D01*
X124171682Y-103273891D01*
X124171681Y-103273891D01*
X124009278Y-103346197D01*
X124009276Y-103346198D01*
X124003248Y-103348882D01*
X123848747Y-103461134D01*
X123720960Y-103603056D01*
X123625473Y-103768444D01*
X123566458Y-103950072D01*
X123546496Y-104140000D01*
X102108500Y-104140000D01*
X102108500Y-93980000D01*
X108306496Y-93980000D01*
X108326458Y-94169928D01*
X108385473Y-94351556D01*
X108480960Y-94516944D01*
X108485378Y-94521851D01*
X108485379Y-94521852D01*
X108567899Y-94613500D01*
X108608747Y-94658866D01*
X108658520Y-94695028D01*
X108754953Y-94765091D01*
X108763248Y-94771118D01*
X108769276Y-94773802D01*
X108769278Y-94773803D01*
X108791658Y-94783767D01*
X108937712Y-94848794D01*
X109031113Y-94868647D01*
X109118056Y-94887128D01*
X109118061Y-94887128D01*
X109124513Y-94888500D01*
X109315487Y-94888500D01*
X109321939Y-94887128D01*
X109321944Y-94887128D01*
X109408888Y-94868647D01*
X109502288Y-94848794D01*
X109648342Y-94783767D01*
X109670722Y-94773803D01*
X109670724Y-94773802D01*
X109676752Y-94771118D01*
X109685048Y-94765091D01*
X109781480Y-94695028D01*
X109831253Y-94658866D01*
X109872101Y-94613500D01*
X109954621Y-94521852D01*
X109954622Y-94521851D01*
X109959040Y-94516944D01*
X110054527Y-94351556D01*
X110113542Y-94169928D01*
X110133504Y-93980000D01*
X110130907Y-93955293D01*
X110114232Y-93796635D01*
X110114232Y-93796633D01*
X110113542Y-93790072D01*
X110054527Y-93608444D01*
X109959040Y-93443056D01*
X109885863Y-93361785D01*
X109855147Y-93297779D01*
X109853500Y-93277476D01*
X109853500Y-89214594D01*
X109873502Y-89146473D01*
X109890405Y-89125499D01*
X110115904Y-88900000D01*
X113386496Y-88900000D01*
X113406458Y-89089928D01*
X113465473Y-89271556D01*
X113560960Y-89436944D01*
X113634137Y-89518215D01*
X113664853Y-89582221D01*
X113666500Y-89602524D01*
X113666500Y-96441233D01*
X113665973Y-96452416D01*
X113664298Y-96459909D01*
X113664547Y-96467835D01*
X113664547Y-96467836D01*
X113666438Y-96527986D01*
X113666500Y-96531945D01*
X113666500Y-96559856D01*
X113666997Y-96563790D01*
X113666997Y-96563791D01*
X113667005Y-96563856D01*
X113667938Y-96575693D01*
X113669327Y-96619889D01*
X113674978Y-96639339D01*
X113678987Y-96658700D01*
X113681526Y-96678797D01*
X113684445Y-96686168D01*
X113684445Y-96686170D01*
X113697804Y-96719912D01*
X113701649Y-96731142D01*
X113713982Y-96773593D01*
X113718015Y-96780412D01*
X113718017Y-96780417D01*
X113724293Y-96791028D01*
X113732988Y-96808776D01*
X113740448Y-96827617D01*
X113745110Y-96834033D01*
X113745110Y-96834034D01*
X113766436Y-96863387D01*
X113772952Y-96873307D01*
X113788937Y-96900335D01*
X113795458Y-96911362D01*
X113809779Y-96925683D01*
X113822619Y-96940716D01*
X113834528Y-96957107D01*
X113840634Y-96962158D01*
X113868605Y-96985298D01*
X113877384Y-96993288D01*
X116336343Y-99452247D01*
X116343887Y-99460537D01*
X116348000Y-99467018D01*
X116353777Y-99472443D01*
X116397667Y-99513658D01*
X116400509Y-99516413D01*
X116420230Y-99536134D01*
X116423425Y-99538612D01*
X116432447Y-99546318D01*
X116464679Y-99576586D01*
X116471628Y-99580406D01*
X116482432Y-99586346D01*
X116498956Y-99597199D01*
X116514959Y-99609613D01*
X116555543Y-99627176D01*
X116566173Y-99632383D01*
X116604940Y-99653695D01*
X116612617Y-99655666D01*
X116612622Y-99655668D01*
X116624558Y-99658732D01*
X116643266Y-99665137D01*
X116661855Y-99673181D01*
X116669680Y-99674420D01*
X116669682Y-99674421D01*
X116705519Y-99680097D01*
X116717140Y-99682504D01*
X116752289Y-99691528D01*
X116759970Y-99693500D01*
X116780231Y-99693500D01*
X116799940Y-99695051D01*
X116819943Y-99698219D01*
X116827835Y-99697473D01*
X116833062Y-99696979D01*
X116863954Y-99694059D01*
X116875811Y-99693500D01*
X123751800Y-99693500D01*
X123819921Y-99713502D01*
X123839147Y-99729843D01*
X123839420Y-99729540D01*
X123844332Y-99733963D01*
X123848747Y-99738866D01*
X124003248Y-99851118D01*
X124009276Y-99853802D01*
X124009278Y-99853803D01*
X124171681Y-99926109D01*
X124177712Y-99928794D01*
X124271112Y-99948647D01*
X124358056Y-99967128D01*
X124358061Y-99967128D01*
X124364513Y-99968500D01*
X124555487Y-99968500D01*
X124561939Y-99967128D01*
X124561944Y-99967128D01*
X124648888Y-99948647D01*
X124742288Y-99928794D01*
X124748319Y-99926109D01*
X124910722Y-99853803D01*
X124910724Y-99853802D01*
X124916752Y-99851118D01*
X125071253Y-99738866D01*
X125107852Y-99698219D01*
X125194621Y-99601852D01*
X125194625Y-99601847D01*
X125199040Y-99596944D01*
X125274053Y-99467018D01*
X125291223Y-99437279D01*
X125291224Y-99437278D01*
X125294527Y-99431556D01*
X125353542Y-99249928D01*
X125373504Y-99060000D01*
X125353542Y-98870072D01*
X125294527Y-98688444D01*
X125199040Y-98523056D01*
X125071253Y-98381134D01*
X124916752Y-98268882D01*
X124910724Y-98266198D01*
X124910722Y-98266197D01*
X124748319Y-98193891D01*
X124748318Y-98193891D01*
X124742288Y-98191206D01*
X124648888Y-98171353D01*
X124561944Y-98152872D01*
X124561939Y-98152872D01*
X124555487Y-98151500D01*
X124364513Y-98151500D01*
X124358061Y-98152872D01*
X124358056Y-98152872D01*
X124271112Y-98171353D01*
X124177712Y-98191206D01*
X124171682Y-98193891D01*
X124171681Y-98193891D01*
X124009278Y-98266197D01*
X124009276Y-98266198D01*
X124003248Y-98268882D01*
X123848747Y-98381134D01*
X123844332Y-98386037D01*
X123839420Y-98390460D01*
X123838295Y-98389211D01*
X123784986Y-98422051D01*
X123751800Y-98426500D01*
X117154595Y-98426500D01*
X117086474Y-98406498D01*
X117065500Y-98389595D01*
X116066363Y-97390458D01*
X116055398Y-97370377D01*
X116049494Y-97368765D01*
X116026489Y-97350584D01*
X115195905Y-96520000D01*
X115926496Y-96520000D01*
X115946458Y-96709928D01*
X116005473Y-96891556D01*
X116008776Y-96897278D01*
X116008777Y-96897279D01*
X116038592Y-96948919D01*
X116100960Y-97056944D01*
X116105378Y-97061851D01*
X116105379Y-97061852D01*
X116209220Y-97177179D01*
X116215734Y-97190751D01*
X116215843Y-97190775D01*
X116229519Y-97199427D01*
X116312610Y-97259796D01*
X116383248Y-97311118D01*
X116389276Y-97313802D01*
X116389278Y-97313803D01*
X116551681Y-97386109D01*
X116557712Y-97388794D01*
X116651112Y-97408647D01*
X116738056Y-97427128D01*
X116738061Y-97427128D01*
X116744513Y-97428500D01*
X116800405Y-97428500D01*
X116868526Y-97448502D01*
X116889500Y-97465405D01*
X117061348Y-97637253D01*
X117068888Y-97645539D01*
X117073000Y-97652018D01*
X117078777Y-97657443D01*
X117122651Y-97698643D01*
X117125493Y-97701398D01*
X117145230Y-97721135D01*
X117148427Y-97723615D01*
X117157447Y-97731318D01*
X117189679Y-97761586D01*
X117196625Y-97765405D01*
X117196628Y-97765407D01*
X117207434Y-97771348D01*
X117223953Y-97782199D01*
X117239959Y-97794614D01*
X117247228Y-97797759D01*
X117247232Y-97797762D01*
X117280537Y-97812174D01*
X117291187Y-97817391D01*
X117329940Y-97838695D01*
X117337615Y-97840666D01*
X117337616Y-97840666D01*
X117349562Y-97843733D01*
X117368267Y-97850137D01*
X117386855Y-97858181D01*
X117394678Y-97859420D01*
X117394688Y-97859423D01*
X117430524Y-97865099D01*
X117442144Y-97867505D01*
X117473959Y-97875673D01*
X117484970Y-97878500D01*
X117505224Y-97878500D01*
X117524934Y-97880051D01*
X117544943Y-97883220D01*
X117552835Y-97882474D01*
X117571580Y-97880702D01*
X117588962Y-97879059D01*
X117600819Y-97878500D01*
X122141538Y-97878500D01*
X122152721Y-97879027D01*
X122160214Y-97880702D01*
X122168140Y-97880453D01*
X122168141Y-97880453D01*
X122228291Y-97878562D01*
X122232250Y-97878500D01*
X122260161Y-97878500D01*
X122264096Y-97878003D01*
X122264161Y-97877995D01*
X122275998Y-97877062D01*
X122308256Y-97876048D01*
X122312275Y-97875922D01*
X122320194Y-97875673D01*
X122339648Y-97870021D01*
X122359005Y-97866013D01*
X122371235Y-97864468D01*
X122371236Y-97864468D01*
X122379102Y-97863474D01*
X122386473Y-97860555D01*
X122386475Y-97860555D01*
X122420217Y-97847196D01*
X122431447Y-97843351D01*
X122466288Y-97833229D01*
X122466289Y-97833229D01*
X122473898Y-97831018D01*
X122480717Y-97826985D01*
X122480722Y-97826983D01*
X122491333Y-97820707D01*
X122509081Y-97812012D01*
X122527922Y-97804552D01*
X122563692Y-97778564D01*
X122573612Y-97772048D01*
X122604840Y-97753580D01*
X122604843Y-97753578D01*
X122611667Y-97749542D01*
X122625988Y-97735221D01*
X122641022Y-97722380D01*
X122650999Y-97715131D01*
X122657412Y-97710472D01*
X122685603Y-97676395D01*
X122693593Y-97667616D01*
X123037247Y-97323962D01*
X123045537Y-97316418D01*
X123052018Y-97312305D01*
X123098659Y-97262637D01*
X123101413Y-97259796D01*
X123121134Y-97240075D01*
X123123612Y-97236880D01*
X123131318Y-97227858D01*
X123156158Y-97201406D01*
X123161586Y-97195626D01*
X123171346Y-97177873D01*
X123182199Y-97161350D01*
X123189753Y-97151611D01*
X123194613Y-97145346D01*
X123212176Y-97104762D01*
X123217383Y-97094132D01*
X123238695Y-97055365D01*
X123240666Y-97047688D01*
X123240668Y-97047683D01*
X123243732Y-97035747D01*
X123250138Y-97017035D01*
X123255034Y-97005722D01*
X123258181Y-96998450D01*
X123265097Y-96954786D01*
X123267504Y-96943165D01*
X123276528Y-96908016D01*
X123276528Y-96908015D01*
X123278500Y-96900335D01*
X123278500Y-96880074D01*
X123280051Y-96860363D01*
X123281979Y-96848190D01*
X123283219Y-96840362D01*
X123279059Y-96796351D01*
X123278500Y-96784494D01*
X123278500Y-94783767D01*
X123279027Y-94772584D01*
X123280702Y-94765091D01*
X123278562Y-94697000D01*
X123278500Y-94693043D01*
X123278500Y-94665144D01*
X123277996Y-94661153D01*
X123277063Y-94649311D01*
X123276078Y-94617949D01*
X123275674Y-94605111D01*
X123273462Y-94597497D01*
X123273461Y-94597492D01*
X123270023Y-94585659D01*
X123266012Y-94566295D01*
X123264467Y-94554064D01*
X123263474Y-94546203D01*
X123260557Y-94538836D01*
X123260556Y-94538831D01*
X123247198Y-94505092D01*
X123243354Y-94493865D01*
X123233230Y-94459022D01*
X123231018Y-94451407D01*
X123220707Y-94433972D01*
X123212012Y-94416224D01*
X123204552Y-94397383D01*
X123178564Y-94361613D01*
X123172048Y-94351693D01*
X123153580Y-94320465D01*
X123153578Y-94320462D01*
X123149542Y-94313638D01*
X123135221Y-94299317D01*
X123122380Y-94284283D01*
X123115132Y-94274307D01*
X123110472Y-94267893D01*
X123076401Y-94239707D01*
X123067622Y-94231718D01*
X122867122Y-94031218D01*
X122833096Y-93968906D01*
X122830907Y-93955293D01*
X122814232Y-93796635D01*
X122814232Y-93796633D01*
X122813542Y-93790072D01*
X122754527Y-93608444D01*
X122659040Y-93443056D01*
X122620389Y-93400129D01*
X122550771Y-93322811D01*
X122544263Y-93309250D01*
X122544161Y-93309228D01*
X122530485Y-93300576D01*
X122382094Y-93192763D01*
X122382093Y-93192762D01*
X122376752Y-93188882D01*
X122370724Y-93186198D01*
X122370722Y-93186197D01*
X122208319Y-93113891D01*
X122208318Y-93113891D01*
X122202288Y-93111206D01*
X122108887Y-93091353D01*
X122021944Y-93072872D01*
X122021939Y-93072872D01*
X122015487Y-93071500D01*
X121824513Y-93071500D01*
X121818061Y-93072872D01*
X121818056Y-93072872D01*
X121731113Y-93091353D01*
X121637712Y-93111206D01*
X121631682Y-93113891D01*
X121631681Y-93113891D01*
X121469278Y-93186197D01*
X121469276Y-93186198D01*
X121463248Y-93188882D01*
X121308747Y-93301134D01*
X121304326Y-93306044D01*
X121304325Y-93306045D01*
X121219612Y-93400129D01*
X121180960Y-93443056D01*
X121085473Y-93608444D01*
X121026458Y-93790072D01*
X121025768Y-93796633D01*
X121025768Y-93796635D01*
X121009093Y-93955293D01*
X121006496Y-93980000D01*
X121026458Y-94169928D01*
X121085473Y-94351556D01*
X121180960Y-94516944D01*
X121185378Y-94521851D01*
X121185379Y-94521852D01*
X121267899Y-94613500D01*
X121308747Y-94658866D01*
X121358520Y-94695028D01*
X121454953Y-94765091D01*
X121463248Y-94771118D01*
X121469276Y-94773802D01*
X121469278Y-94773803D01*
X121491658Y-94783767D01*
X121637712Y-94848794D01*
X121731113Y-94868647D01*
X121818056Y-94887128D01*
X121818061Y-94887128D01*
X121824513Y-94888500D01*
X121880405Y-94888500D01*
X121948526Y-94908502D01*
X121969500Y-94925405D01*
X121974595Y-94930500D01*
X122008621Y-94992812D01*
X122011500Y-95019595D01*
X122011500Y-96485500D01*
X121991498Y-96553621D01*
X121937842Y-96600114D01*
X121885500Y-96611500D01*
X117879594Y-96611500D01*
X117811473Y-96591498D01*
X117790499Y-96574595D01*
X117787122Y-96571218D01*
X117753096Y-96508906D01*
X117750907Y-96495293D01*
X117734232Y-96336635D01*
X117734232Y-96336633D01*
X117733542Y-96330072D01*
X117674527Y-96148444D01*
X117579040Y-95983056D01*
X117451253Y-95841134D01*
X117296752Y-95728882D01*
X117290724Y-95726198D01*
X117290722Y-95726197D01*
X117128319Y-95653891D01*
X117128318Y-95653891D01*
X117122288Y-95651206D01*
X117028888Y-95631353D01*
X116941944Y-95612872D01*
X116941939Y-95612872D01*
X116935487Y-95611500D01*
X116744513Y-95611500D01*
X116738061Y-95612872D01*
X116738056Y-95612872D01*
X116651112Y-95631353D01*
X116557712Y-95651206D01*
X116551682Y-95653891D01*
X116551681Y-95653891D01*
X116389278Y-95726197D01*
X116389276Y-95726198D01*
X116383248Y-95728882D01*
X116228747Y-95841134D01*
X116100960Y-95983056D01*
X116005473Y-96148444D01*
X115946458Y-96330072D01*
X115926496Y-96520000D01*
X115195905Y-96520000D01*
X114970405Y-96294500D01*
X114936379Y-96232188D01*
X114933500Y-96205405D01*
X114933500Y-89602524D01*
X114953502Y-89534403D01*
X114965858Y-89518221D01*
X115039040Y-89436944D01*
X115134527Y-89271556D01*
X115193542Y-89089928D01*
X115213504Y-88900000D01*
X115204285Y-88812289D01*
X115194232Y-88716635D01*
X115194232Y-88716633D01*
X115193542Y-88710072D01*
X115134527Y-88528444D01*
X115039040Y-88363056D01*
X114911253Y-88221134D01*
X114756752Y-88108882D01*
X114750724Y-88106198D01*
X114750722Y-88106197D01*
X114588319Y-88033891D01*
X114588318Y-88033891D01*
X114582288Y-88031206D01*
X114488887Y-88011353D01*
X114401944Y-87992872D01*
X114401939Y-87992872D01*
X114395487Y-87991500D01*
X114204513Y-87991500D01*
X114198061Y-87992872D01*
X114198056Y-87992872D01*
X114111113Y-88011353D01*
X114017712Y-88031206D01*
X114011682Y-88033891D01*
X114011681Y-88033891D01*
X113849278Y-88106197D01*
X113849276Y-88106198D01*
X113843248Y-88108882D01*
X113688747Y-88221134D01*
X113560960Y-88363056D01*
X113465473Y-88528444D01*
X113406458Y-88710072D01*
X113405768Y-88716633D01*
X113405768Y-88716635D01*
X113395715Y-88812289D01*
X113386496Y-88900000D01*
X110115904Y-88900000D01*
X111710499Y-87305405D01*
X111772811Y-87271379D01*
X111799594Y-87268500D01*
X111855487Y-87268500D01*
X111861939Y-87267128D01*
X111861944Y-87267128D01*
X111948887Y-87248647D01*
X112042288Y-87228794D01*
X112048319Y-87226109D01*
X112210722Y-87153803D01*
X112210724Y-87153802D01*
X112216752Y-87151118D01*
X112371253Y-87038866D01*
X112412548Y-86993003D01*
X112494621Y-86901852D01*
X112494622Y-86901851D01*
X112499040Y-86896944D01*
X112594527Y-86731556D01*
X112653542Y-86549928D01*
X112673504Y-86360000D01*
X112653542Y-86170072D01*
X112594527Y-85988444D01*
X112499040Y-85823056D01*
X112409509Y-85723621D01*
X112375675Y-85686045D01*
X112375674Y-85686044D01*
X112371253Y-85681134D01*
X112216752Y-85568882D01*
X112210724Y-85566198D01*
X112210722Y-85566197D01*
X112048319Y-85493891D01*
X112048318Y-85493891D01*
X112042288Y-85491206D01*
X111948887Y-85471353D01*
X111861944Y-85452872D01*
X111861939Y-85452872D01*
X111855487Y-85451500D01*
X111664513Y-85451500D01*
X111658061Y-85452872D01*
X111658056Y-85452872D01*
X111571113Y-85471353D01*
X111477712Y-85491206D01*
X111471682Y-85493891D01*
X111471681Y-85493891D01*
X111309278Y-85566197D01*
X111309276Y-85566198D01*
X111303248Y-85568882D01*
X111148747Y-85681134D01*
X111144326Y-85686044D01*
X111144325Y-85686045D01*
X111110492Y-85723621D01*
X111020960Y-85823056D01*
X110925473Y-85988444D01*
X110866458Y-86170072D01*
X110865768Y-86176633D01*
X110865768Y-86176635D01*
X110849093Y-86335292D01*
X110822080Y-86400949D01*
X110812878Y-86411217D01*
X108827747Y-88396348D01*
X108819461Y-88403888D01*
X108812982Y-88408000D01*
X108807557Y-88413777D01*
X108766357Y-88457651D01*
X108763602Y-88460493D01*
X108743865Y-88480230D01*
X108741385Y-88483427D01*
X108733682Y-88492447D01*
X108703414Y-88524679D01*
X108699595Y-88531625D01*
X108699593Y-88531628D01*
X108693652Y-88542434D01*
X108682801Y-88558953D01*
X108670386Y-88574959D01*
X108667241Y-88582228D01*
X108667238Y-88582232D01*
X108652826Y-88615537D01*
X108647609Y-88626187D01*
X108626305Y-88664940D01*
X108624334Y-88672615D01*
X108624334Y-88672616D01*
X108621267Y-88684562D01*
X108614863Y-88703266D01*
X108606819Y-88721855D01*
X108605580Y-88729678D01*
X108605577Y-88729688D01*
X108599901Y-88765524D01*
X108597495Y-88777144D01*
X108586500Y-88819970D01*
X108586500Y-88840224D01*
X108584949Y-88859934D01*
X108581780Y-88879943D01*
X108582526Y-88887835D01*
X108585941Y-88923961D01*
X108586500Y-88935819D01*
X108586500Y-93277476D01*
X108566498Y-93345597D01*
X108554142Y-93361779D01*
X108480960Y-93443056D01*
X108385473Y-93608444D01*
X108326458Y-93790072D01*
X108325768Y-93796633D01*
X108325768Y-93796635D01*
X108309093Y-93955293D01*
X108306496Y-93980000D01*
X102108500Y-93980000D01*
X102108500Y-78740000D01*
X110846496Y-78740000D01*
X110866458Y-78929928D01*
X110925473Y-79111556D01*
X111020960Y-79276944D01*
X111094137Y-79358215D01*
X111124853Y-79422221D01*
X111126500Y-79442524D01*
X111126500Y-81201233D01*
X111125973Y-81212416D01*
X111124298Y-81219909D01*
X111124547Y-81227835D01*
X111124547Y-81227836D01*
X111126438Y-81287986D01*
X111126500Y-81291945D01*
X111126500Y-81319856D01*
X111126997Y-81323790D01*
X111126997Y-81323791D01*
X111127005Y-81323856D01*
X111127938Y-81335693D01*
X111129327Y-81379889D01*
X111134978Y-81399339D01*
X111138987Y-81418700D01*
X111141526Y-81438797D01*
X111144445Y-81446168D01*
X111144445Y-81446170D01*
X111157804Y-81479912D01*
X111161649Y-81491142D01*
X111173982Y-81533593D01*
X111178015Y-81540412D01*
X111178017Y-81540417D01*
X111184293Y-81551028D01*
X111192988Y-81568776D01*
X111200448Y-81587617D01*
X111205110Y-81594033D01*
X111205110Y-81594034D01*
X111226436Y-81623387D01*
X111232952Y-81633307D01*
X111243745Y-81651556D01*
X111255458Y-81671362D01*
X111269779Y-81685683D01*
X111282619Y-81700716D01*
X111294528Y-81717107D01*
X111300634Y-81722158D01*
X111328605Y-81745298D01*
X111337384Y-81753288D01*
X122693641Y-93109545D01*
X122704600Y-93129615D01*
X122710497Y-93131225D01*
X122733502Y-93149406D01*
X123512878Y-93928782D01*
X123546904Y-93991094D01*
X123549092Y-94004703D01*
X123566458Y-94169928D01*
X123625473Y-94351556D01*
X123720960Y-94516944D01*
X123725378Y-94521851D01*
X123725379Y-94521852D01*
X123807899Y-94613500D01*
X123848747Y-94658866D01*
X123898520Y-94695028D01*
X123994953Y-94765091D01*
X124003248Y-94771118D01*
X124009276Y-94773802D01*
X124009278Y-94773803D01*
X124031658Y-94783767D01*
X124177712Y-94848794D01*
X124271113Y-94868647D01*
X124358056Y-94887128D01*
X124358061Y-94887128D01*
X124364513Y-94888500D01*
X124555487Y-94888500D01*
X124561939Y-94887128D01*
X124561944Y-94887128D01*
X124648888Y-94868647D01*
X124742288Y-94848794D01*
X124888342Y-94783767D01*
X124910722Y-94773803D01*
X124910724Y-94773802D01*
X124916752Y-94771118D01*
X124925048Y-94765091D01*
X125021480Y-94695028D01*
X125071253Y-94658866D01*
X125112101Y-94613500D01*
X125194621Y-94521852D01*
X125194622Y-94521851D01*
X125199040Y-94516944D01*
X125294527Y-94351556D01*
X125353542Y-94169928D01*
X125373504Y-93980000D01*
X125370907Y-93955293D01*
X125354232Y-93796635D01*
X125354232Y-93796633D01*
X125353542Y-93790072D01*
X125294527Y-93608444D01*
X125199040Y-93443056D01*
X125160389Y-93400129D01*
X125090771Y-93322811D01*
X125084263Y-93309250D01*
X125084161Y-93309228D01*
X125070485Y-93300576D01*
X124922094Y-93192763D01*
X124922093Y-93192762D01*
X124916752Y-93188882D01*
X124910724Y-93186198D01*
X124910722Y-93186197D01*
X124748319Y-93113891D01*
X124748318Y-93113891D01*
X124742288Y-93111206D01*
X124648887Y-93091353D01*
X124561944Y-93072872D01*
X124561939Y-93072872D01*
X124555487Y-93071500D01*
X124499595Y-93071500D01*
X124431474Y-93051498D01*
X124410500Y-93034595D01*
X112430405Y-81054500D01*
X112396379Y-80992188D01*
X112393500Y-80965405D01*
X112393500Y-79442524D01*
X112413502Y-79374403D01*
X112425858Y-79358221D01*
X112499040Y-79276944D01*
X112594527Y-79111556D01*
X112653542Y-78929928D01*
X112664474Y-78825919D01*
X123504501Y-78825919D01*
X123504871Y-78832740D01*
X123510395Y-78883602D01*
X123514021Y-78898854D01*
X123559176Y-79019304D01*
X123567714Y-79034899D01*
X123644215Y-79136974D01*
X123656776Y-79149535D01*
X123758851Y-79226036D01*
X123774446Y-79234574D01*
X123894894Y-79279728D01*
X123910149Y-79283355D01*
X123961014Y-79288881D01*
X123967828Y-79289250D01*
X125240385Y-79289250D01*
X125255624Y-79284775D01*
X125256829Y-79283385D01*
X125258500Y-79275702D01*
X125258500Y-79271134D01*
X125766500Y-79271134D01*
X125770975Y-79286373D01*
X125772365Y-79287578D01*
X125780048Y-79289249D01*
X127057169Y-79289249D01*
X127063990Y-79288879D01*
X127114852Y-79283355D01*
X127130104Y-79279729D01*
X127250554Y-79234574D01*
X127266149Y-79226036D01*
X127368224Y-79149535D01*
X127380785Y-79136974D01*
X127457286Y-79034899D01*
X127465824Y-79019304D01*
X127510978Y-78898856D01*
X127514605Y-78883601D01*
X127520131Y-78832736D01*
X127520500Y-78825922D01*
X127520500Y-77553365D01*
X127516025Y-77538126D01*
X127514635Y-77536921D01*
X127506952Y-77535250D01*
X125784615Y-77535250D01*
X125769376Y-77539725D01*
X125768171Y-77541115D01*
X125766500Y-77548798D01*
X125766500Y-79271134D01*
X125258500Y-79271134D01*
X125258500Y-77553365D01*
X125254025Y-77538126D01*
X125252635Y-77536921D01*
X125244952Y-77535250D01*
X123522616Y-77535250D01*
X123507377Y-77539725D01*
X123506172Y-77541115D01*
X123504501Y-77548798D01*
X123504501Y-78825919D01*
X112664474Y-78825919D01*
X112673504Y-78740000D01*
X112653542Y-78550072D01*
X112594527Y-78368444D01*
X112499040Y-78203056D01*
X112427030Y-78123080D01*
X112375675Y-78066045D01*
X112375674Y-78066044D01*
X112371253Y-78061134D01*
X112216752Y-77948882D01*
X112210724Y-77946198D01*
X112210722Y-77946197D01*
X112048319Y-77873891D01*
X112048318Y-77873891D01*
X112042288Y-77871206D01*
X111948888Y-77851353D01*
X111861944Y-77832872D01*
X111861939Y-77832872D01*
X111855487Y-77831500D01*
X111664513Y-77831500D01*
X111658061Y-77832872D01*
X111658056Y-77832872D01*
X111571112Y-77851353D01*
X111477712Y-77871206D01*
X111471682Y-77873891D01*
X111471681Y-77873891D01*
X111309278Y-77946197D01*
X111309276Y-77946198D01*
X111303248Y-77948882D01*
X111148747Y-78061134D01*
X111144326Y-78066044D01*
X111144325Y-78066045D01*
X111092971Y-78123080D01*
X111020960Y-78203056D01*
X110925473Y-78368444D01*
X110866458Y-78550072D01*
X110846496Y-78740000D01*
X102108500Y-78740000D01*
X102108500Y-77260168D01*
X128579417Y-77260168D01*
X128595182Y-77533570D01*
X128596007Y-77537775D01*
X128596008Y-77537783D01*
X128606627Y-77591907D01*
X128647905Y-77802303D01*
X128649292Y-77806353D01*
X128649293Y-77806358D01*
X128735223Y-78057338D01*
X128736612Y-78061394D01*
X128859660Y-78306049D01*
X128862086Y-78309578D01*
X128862089Y-78309584D01*
X129012343Y-78528203D01*
X129014774Y-78531740D01*
X129017661Y-78534913D01*
X129017662Y-78534914D01*
X129196192Y-78731117D01*
X129199082Y-78734293D01*
X129202377Y-78737048D01*
X129202378Y-78737049D01*
X129213759Y-78746565D01*
X129409175Y-78909957D01*
X129412816Y-78912241D01*
X129637524Y-79053201D01*
X129637528Y-79053203D01*
X129641164Y-79055484D01*
X129709044Y-79086133D01*
X129886845Y-79166414D01*
X129886849Y-79166416D01*
X129890757Y-79168180D01*
X129894877Y-79169400D01*
X129894876Y-79169400D01*
X130149223Y-79244741D01*
X130149227Y-79244742D01*
X130153336Y-79245959D01*
X130157570Y-79246607D01*
X130157575Y-79246608D01*
X130419798Y-79286733D01*
X130419800Y-79286733D01*
X130424040Y-79287382D01*
X130563412Y-79289572D01*
X130693571Y-79291617D01*
X130693577Y-79291617D01*
X130697862Y-79291684D01*
X130969735Y-79258784D01*
X131234627Y-79189291D01*
X131238587Y-79187651D01*
X131238592Y-79187649D01*
X131422295Y-79111556D01*
X131487636Y-79084491D01*
X131724082Y-78946323D01*
X131939589Y-78777344D01*
X131960346Y-78755925D01*
X132127186Y-78583759D01*
X132130169Y-78580681D01*
X132132702Y-78577233D01*
X132132706Y-78577228D01*
X132289757Y-78363428D01*
X132292295Y-78359973D01*
X132319654Y-78309584D01*
X132420918Y-78123080D01*
X132420919Y-78123078D01*
X132422968Y-78119304D01*
X132471368Y-77991216D01*
X132518251Y-77867145D01*
X132518252Y-77867141D01*
X132519769Y-77863127D01*
X132580907Y-77596183D01*
X132584729Y-77553365D01*
X132605031Y-77325877D01*
X132605031Y-77325875D01*
X132605251Y-77323411D01*
X132605693Y-77281250D01*
X132603965Y-77255898D01*
X132587359Y-77012305D01*
X132587358Y-77012299D01*
X132587067Y-77008028D01*
X132531532Y-76739862D01*
X132440117Y-76481715D01*
X132314513Y-76238362D01*
X132304540Y-76224171D01*
X132159508Y-76017812D01*
X132157045Y-76014307D01*
X131970625Y-75813695D01*
X131967310Y-75810981D01*
X131967306Y-75810978D01*
X131762023Y-75642956D01*
X131758705Y-75640240D01*
X131525204Y-75497151D01*
X131521268Y-75495423D01*
X131278373Y-75388799D01*
X131278369Y-75388798D01*
X131274445Y-75387075D01*
X131011066Y-75312050D01*
X131006824Y-75311446D01*
X131006818Y-75311445D01*
X130779866Y-75279145D01*
X130739943Y-75273463D01*
X130596089Y-75272710D01*
X130470377Y-75272052D01*
X130470371Y-75272052D01*
X130466091Y-75272030D01*
X130461847Y-75272589D01*
X130461843Y-75272589D01*
X130353916Y-75286798D01*
X130194578Y-75307775D01*
X130190438Y-75308908D01*
X130190436Y-75308908D01*
X130120918Y-75327926D01*
X129930428Y-75380038D01*
X129926480Y-75381722D01*
X129682482Y-75485796D01*
X129682478Y-75485798D01*
X129678530Y-75487482D01*
X129658625Y-75499395D01*
X129447225Y-75625914D01*
X129447221Y-75625917D01*
X129443543Y-75628118D01*
X129229818Y-75799344D01*
X129041308Y-75997992D01*
X128881502Y-76220386D01*
X128753357Y-76462411D01*
X128751885Y-76466434D01*
X128751883Y-76466438D01*
X128744814Y-76485756D01*
X128659243Y-76719587D01*
X128600904Y-76987157D01*
X128579417Y-77260168D01*
X102108500Y-77260168D01*
X102108500Y-77009135D01*
X123504500Y-77009135D01*
X123508975Y-77024374D01*
X123510365Y-77025579D01*
X123518048Y-77027250D01*
X125240385Y-77027250D01*
X125255624Y-77022775D01*
X125256829Y-77021385D01*
X125258500Y-77013702D01*
X125258500Y-77009135D01*
X125766500Y-77009135D01*
X125770975Y-77024374D01*
X125772365Y-77025579D01*
X125780048Y-77027250D01*
X127502384Y-77027250D01*
X127517623Y-77022775D01*
X127518828Y-77021385D01*
X127520499Y-77013702D01*
X127520499Y-75736581D01*
X127520129Y-75729760D01*
X127514605Y-75678898D01*
X127510979Y-75663646D01*
X127465824Y-75543196D01*
X127457286Y-75527601D01*
X127380785Y-75425526D01*
X127368224Y-75412965D01*
X127266149Y-75336464D01*
X127250554Y-75327926D01*
X127130106Y-75282772D01*
X127114851Y-75279145D01*
X127063986Y-75273619D01*
X127057172Y-75273250D01*
X125784615Y-75273250D01*
X125769376Y-75277725D01*
X125768171Y-75279115D01*
X125766500Y-75286798D01*
X125766500Y-77009135D01*
X125258500Y-77009135D01*
X125258500Y-75291366D01*
X125254025Y-75276127D01*
X125252635Y-75274922D01*
X125244952Y-75273251D01*
X123967831Y-75273251D01*
X123961010Y-75273621D01*
X123910148Y-75279145D01*
X123894896Y-75282771D01*
X123774446Y-75327926D01*
X123758851Y-75336464D01*
X123656776Y-75412965D01*
X123644215Y-75425526D01*
X123567714Y-75527601D01*
X123559176Y-75543196D01*
X123514022Y-75663644D01*
X123510395Y-75678899D01*
X123504869Y-75729764D01*
X123504500Y-75736578D01*
X123504500Y-77009135D01*
X102108500Y-77009135D01*
X102108500Y-71754500D01*
X102128502Y-71686379D01*
X102182158Y-71639886D01*
X102234500Y-71628500D01*
X151765500Y-71628500D01*
X151833621Y-71648502D01*
G37*
%TD.AperFunction*%
%TD*%
M02*
